<?xml version="1.0" standalone="no"?>
<!DOCTYPE svg PUBLIC "-//W3C//DTD SVG 20010904//EN"
 "http://www.w3.org/TR/2001/REC-SVG-20010904/DTD/svg10.dtd">
<svg version="1.0" xmlns="http://www.w3.org/2000/svg"
 width="985.000000pt" height="985.000000pt" viewBox="0 0 985.000000 985.000000"
 preserveAspectRatio="xMidYMid meet">
<metadata>
Created by potrace 1.11, written by Peter Selinger 2001-2013
</metadata>
<g transform="translate(0.000000,985.000000) scale(0.100000,-0.100000)"
fill="#000000" stroke="none">
<path d="M6706 9819 c-52 -62 -79 -196 -126 -629 -48 -438 -130 -1082 -185
-1435 -86 -565 -117 -751 -186 -1130 -96 -529 -190 -967 -300 -1410 -294
-1179 -570 -1977 -876 -2538 -163 -301 -250 -390 -314 -326 -130 130 -247 896
-299 1959 -59 1218 -25 3008 81 4279 5 68 8 125 5 128 -2 2 -144 -107 -314
-242 l-310 -247 -6 -81 c-3 -45 -13 -203 -21 -352 -52 -880 -198 -1838 -422
-2770 -252 -1048 -688 -2165 -1164 -2982 -49 -84 -89 -156 -89 -161 0 -6 103
-109 229 -231 l230 -222 21 48 c67 150 244 610 317 821 348 1015 687 2348
1018 4006 52 257 97 471 100 475 4 3 4 -41 1 -99 -28 -498 -41 -3453 -18
-4045 47 -1213 123 -1774 253 -1868 24 -17 29 -17 60 -4 203 86 640 995 1064
2212 333 957 563 1742 902 3080 86 340 132 507 128 465 -3 -36 -23 -249 -45
-475 -94 -978 -164 -1914 -205 -2725 -32 -642 -39 -932 -39 -1585 0 -636 1
-707 27 -1090 15 -226 32 -459 37 -520 6 -60 10 -114 10 -118 0 -5 3 -6 8 -4
4 3 108 28 232 57 124 28 232 53 241 56 13 3 14 14 8 67 -10 84 -46 489 -59
662 -35 468 -60 1520 -63 2595 -1 667 0 692 63 1490 22 272 51 668 65 880 78
1177 164 1902 293 2465 36 158 37 162 36 375 0 173 -5 241 -23 350 -74 449
-181 774 -274 830 -44 27 -61 25 -91 -11z"/>
</g>
</svg>
