<?xml version="1.0" encoding="UTF-8"?>
<svg width="461px" height="751px" viewBox="0 0 461 751" version="1.1" xmlns="http://www.w3.org/2000/svg" xmlns:xlink="http://www.w3.org/1999/xlink">
    <!-- Generator: Sketch 39.1 (31720) - http://www.bohemiancoding.com/sketch -->
    <title>m-logo-circle-fill-about-svg</title>
    <desc>Created with Sketch.</desc>
    <defs>
        <linearGradient x1="50%" y1="0%" x2="50%" y2="100%" id="linearGradient-1">
            <stop stop-color="#FBDA61" offset="0%"></stop>
            <stop stop-color="#F76B1C" offset="100%"></stop>
        </linearGradient>
        <path d="M216.288164,573.663231 C222.790248,575.046558 236.367925,555.831438 257.021604,514.515712 C277.292807,471.920079 298.137411,410.00758 319.55604,327.545548 C340.592195,241.563162 357.229631,146.0786 369.468848,41.9419022 C372.146176,16.0876687 375.970874,2.21065974 380.943056,0.4061884 C388.210091,-2.23111587 395.285782,7.96578317 402.170342,31.2433528 C409.054901,54.8491391 412.497129,75.8538597 412.497129,94.0119834 C412.497129,100.929364 411.73219,107.608649 410.202288,114.037277 C404.082679,137.007639 398.82372,165.744898 394.425251,200.225186 C390.026782,234.429377 386.297702,274.823888 383.237898,321.416426 C380.898795,356.408205 375.50356,404.236242 374.058542,435.408592 C371.723075,485.789983 374.058531,516.472798 374.058531,557.181501 C374.058531,623.077796 377.500759,684.533935 384.385319,742.093316 L342.504457,751 C340.59208,729.314501 339.062201,707.830433 337.914774,686.523449 C336.767347,665.263873 336.193643,644.199609 336.193643,623.294466 C336.193643,522.788974 344.607978,398.688118 361.436902,247.297578 C343.078076,316.904998 324.815144,379.518739 306.647556,435.408609 C288.479968,489.234208 270.217036,537.784557 251.85821,581.230802 C215.90551,661.431648 192.574853,696.944246 181.865538,693.0831 C174.216028,690.325139 168.287746,666.392584 164.080515,621.610652 C162.168137,599.764734 160.733876,574.47201 159.777687,545.707788 C158.821498,517.008906 158.343411,484.790764 158.343411,449.003393 C158.343411,413.216021 158.630263,377.426966 159.203976,341.598229 C159.77769,305.720259 160.447012,269.448353 161.211963,232.768202 C121.052032,422.984921 80.5102341,557.694776 39.5853524,642.637822 L0.573043432,607.568499 C43.4103028,543.454005 77.163262,467.791275 101.832934,383.426899 C126.502605,293.534806 140.1759,205.773081 142.853229,123.885987 L196.208299,85.1156105 C189.323739,163.082591 185.881511,238.924899 185.881511,313.547401 C185.881511,388.169903 188.750035,449.316402 194.487168,497.46054 C200.606776,546.304649 207.873702,571.873044 216.288164,573.663231 Z" id="path-2"></path>
        <filter x="-50%" y="-50%" width="200%" height="200%" filterUnits="objectBoundingBox" id="filter-3">
            <feGaussianBlur stdDeviation="1.5" in="SourceAlpha" result="shadowBlurInner1"></feGaussianBlur>
            <feOffset dx="0" dy="1" in="shadowBlurInner1" result="shadowOffsetInner1"></feOffset>
            <feComposite in="shadowOffsetInner1" in2="SourceAlpha" operator="arithmetic" k2="-1" k3="1" result="shadowInnerInner1"></feComposite>
            <feColorMatrix values="0 0 0 0 0   0 0 0 0 0   0 0 0 0 0  0 0 0 0.5 0" type="matrix" in="shadowInnerInner1"></feColorMatrix>
        </filter>
    </defs>
    <g id="Page-1" stroke="none" stroke-width="1" fill="none" fill-rule="evenodd">
        <g id="m-logo-circle-fill-about-svg">
            <polygon id="Shape" fill="#FF0000" opacity="0" points="479 249.609543 479 88.813913 258.179167 88.813913 258.179167 89.3243754 263.650833 89.3243754 263.650833 89.8348377 267.95 89.8348377 267.95 90.3453 271.858333 90.3453 271.858333 90.8557623 274.985 90.8557623 274.985 91.3662246 277.720833 91.3662246 277.720833 91.876687 280.456667 91.876687 280.456667 92.3871493 282.801667 92.3871493 282.801667 92.8976116 285.146667 92.8976116 285.146667 93.4080739 287.491667 93.4080739 287.491667 93.9185362 289.445833 93.9185362 289.445833 94.4289986 291.4 94.4289986 291.4 94.9394609 293.354167 94.9394609 293.354167 95.4499232 295.308333 95.4499232 295.308333 95.9603855 296.871667 95.9603855 296.871667 96.4708478 298.435 96.4708478 298.435 96.9813101 300.389167 96.9813101 300.389167 97.4917725 301.9525 97.4917725 301.9525 98.0022348 303.515833 98.0022348 303.515833 98.5126971 304.688333 98.5126971 304.688333 99.0231594 306.251667 99.0231594 306.251667 99.5336217 307.815 99.5336217 307.815 100.044084 308.9875 100.044084 308.9875 100.554546 310.550833 100.554546 310.550833 101.065009 311.723333 101.065009 311.723333 101.575471 312.895833 101.575471 312.895833 102.085933 314.459167 102.085933 314.459167 102.596396 315.631667 102.596396 315.631667 103.106858 316.804167 103.106858 316.804167 103.61732 317.976667 103.61732 317.976667 104.127783 319.149167 104.127783 319.149167 104.638245 320.321667 104.638245 320.321667 105.148707 321.494167 105.148707 321.494167 105.65917 322.666667 105.65917 322.666667 106.169632 323.839167 106.169632 323.839167 106.680094 324.620833 106.680094 324.620833 107.190557 325.793333 107.190557 325.793333 107.701019 326.965833 107.701019 326.965833 108.211481 327.7475 108.211481 327.7475 108.721943 328.92 108.721943 328.92 109.232406 330.0925 109.232406 330.0925 109.742868 330.874167 109.742868 330.874167 110.25333 332.046667 110.25333 332.046667 110.763793 332.828333 110.763793 332.828333 111.274255 334.000833 111.274255 334.000833 111.784717 334.7825 111.784717 334.7825 112.29518 335.955 112.29518 335.955 112.805642 336.736667 112.805642 336.736667 113.316104 337.518333 113.316104 337.518333 113.826567 338.3 113.826567 338.3 114.337029 339.4725 114.337029 339.4725 114.847491 340.254167 114.847491 340.254167 115.357954 341.035833 115.357954 341.035833 115.868416 341.8175 115.868416 341.8175 116.378878 342.99 116.378878 342.99 116.889341 343.771667 116.889341 343.771667 117.399803 344.553333 117.399803 344.553333 117.910265 345.335 117.910265 345.335 118.420728 346.116667 118.420728 346.116667 118.93119 346.898333 118.93119 346.898333 119.441652 347.68 119.441652 347.68 119.952114 348.461667 119.952114 348.461667 120.462577 349.243333 120.462577 349.243333 120.973039 350.025 120.973039 350.025 121.483501 350.806667 121.483501 350.806667 121.993964 351.588333 121.993964 351.588333 122.504426 352.37 122.504426 352.37 123.014888 353.151667 123.014888 353.151667 123.525351 353.933333 123.525351 353.933333 124.035813 354.715 124.035813 354.715 124.546275 355.496667 124.546275 355.496667 125.056738 356.278333 125.056738 356.278333 125.5672 356.669167 125.5672 356.669167 126.077662 357.450833 126.077662 357.450833 126.588125 358.2325 126.588125 358.2325 127.098587 359.014167 127.098587 359.014167 127.609049 359.795833 127.609049 359.795833 128.119512 360.186667 128.119512 360.186667 128.629974 360.968333 128.629974 360.968333 129.140436 361.75 129.140436 361.75 129.650899 362.531667 129.650899 362.531667 130.161361 362.9225 130.161361 362.9225 130.671823 363.704167 130.671823 363.704167 131.182286 364.485833 131.182286 364.485833 131.692748 364.876667 131.692748 364.876667 132.20321 365.658333 132.20321 365.658333 132.713672 366.44 132.713672 366.44 133.224135 366.830833 133.224135 366.830833 133.734597 367.6125 133.734597 367.6125 134.245059 368.394167 134.245059 368.394167 134.755522 368.785 134.755522 368.785 135.265984 369.566667 135.265984 369.566667 135.776446 369.9575 135.776446 369.9575 136.286909 370.739167 136.286909 370.739167 136.797371 371.520833 136.797371 371.520833 137.307833 371.911667 137.307833 371.911667 137.818296 372.693333 137.818296 372.693333 138.328758 373.084167 138.328758 373.084167 138.83922 373.865833 138.83922 373.865833 139.349683 374.256667 139.349683 374.256667 139.860145 375.038333 139.860145 375.038333 140.370607 375.429167 140.370607 375.429167 140.88107 376.210833 140.88107 376.210833 141.391532 376.601667 141.391532 376.601667 141.901994 376.9925 141.901994 376.9925 142.412457 377.774167 142.412457 377.774167 142.922919 378.165 142.922919 378.165 143.433381 378.946667 143.433381 378.946667 143.943843 379.3375 143.943843 379.3375 144.454306 380.119167 144.454306 380.119167 144.964768 380.51 144.964768 380.51 145.47523 381.291667 145.47523 381.291667 145.985693 381.6825 145.985693 381.6825 146.496155 382.073333 146.496155 382.073333 147.006617 382.855 147.006617 382.855 147.51708 383.245833 147.51708 383.245833 148.027542 383.636667 148.027542 383.636667 148.538004 384.418333 148.538004 384.418333 149.048467 384.809167 149.048467 384.809167 149.558929 385.2 149.558929 385.2 150.069391 385.981667 150.069391 385.981667 150.579854 386.3725 150.579854 386.3725 151.090316 386.763333 151.090316 386.763333 151.600778 387.545 151.600778 387.545 152.111241 387.935833 152.111241 387.935833 152.621703 388.326667 152.621703 388.326667 153.132165 389.108333 153.132165 389.108333 153.642628 389.499167 153.642628 389.499167 154.15309 389.89 154.15309 389.89 154.663552 390.280833 154.663552 390.280833 155.174014 391.0625 155.174014 391.0625 155.684477 391.453333 155.684477 391.453333 156.194939 391.844167 156.194939 391.844167 156.705401 392.235 156.705401 392.235 157.215864 393.016667 157.215864 393.016667 157.726326 393.4075 157.726326 393.4075 158.236788 393.798333 158.236788 393.798333 158.747251 394.189167 158.747251 394.189167 159.257713 394.58 159.257713 394.58 159.768175 395.361667 159.768175 395.361667 160.278638 395.7525 160.278638 395.7525 160.7891 396.143333 160.7891 396.143333 161.299562 396.534167 161.299562 396.534167 161.810025 396.925 161.810025 396.925 162.320487 397.315833 162.320487 397.315833 162.830949 398.0975 162.830949 398.0975 163.341412 398.488333 163.341412 398.488333 163.851874 398.879167 163.851874 398.879167 164.362336 399.27 164.362336 399.27 164.872799 399.660833 164.872799 399.660833 165.383261 400.051667 165.383261 400.051667 165.893723 400.4425 165.893723 400.4425 166.404186 401.224167 166.404186 401.224167 166.914648 401.615 166.914648 401.615 167.42511 402.005833 167.42511 402.005833 167.935572 402.396667 167.935572 402.396667 168.446035 402.7875 168.446035 402.7875 168.956497 403.178333 168.956497 403.178333 169.466959 403.569167 169.466959 403.569167 169.977422 403.96 169.977422 403.96 170.487884 404.350833 170.487884 404.350833 170.998346 404.741667 170.998346 404.741667 171.508809 405.1325 171.508809 405.1325 172.019271 405.914167 172.019271 405.914167 172.529733 406.305 172.529733 406.305 173.040196 406.695833 173.040196 406.695833 173.550658 407.086667 173.550658 407.086667 174.06112 407.4775 174.06112 407.4775 174.571583 407.868333 174.571583 407.868333 175.082045 408.259167 175.082045 408.259167 175.592507 408.65 175.592507 408.65 176.10297 409.040833 176.10297 409.040833 176.613432 409.431667 176.613432 409.431667 177.123894 409.8225 177.123894 409.8225 177.634357 410.213333 177.634357 410.213333 178.144819 410.604167 178.144819 410.604167 178.655281 410.995 178.655281 410.995 179.165743 411.385833 179.165743 411.385833 179.676206 411.776667 179.676206 411.776667 180.186668 412.1675 180.186668 412.1675 180.69713 412.558333 180.69713 412.558333 181.207593 412.949167 181.207593 412.949167 181.718055 413.34 181.718055 413.34 182.228517 413.730833 182.228517 413.730833 182.73898 414.121667 182.73898 414.121667 183.249442 414.5125 183.249442 414.5125 183.759904 414.903333 183.759904 414.903333 184.270367 415.294167 184.270367 415.294167 185.291291 415.685 185.291291 415.685 185.801754 416.075833 185.801754 416.075833 186.312216 416.466667 186.312216 416.466667 186.822678 416.8575 186.822678 416.8575 187.333141 417.248333 187.333141 417.248333 187.843603 417.639167 187.843603 417.639167 188.354065 418.03 188.354065 418.03 188.864528 418.420833 188.864528 418.420833 189.37499 418.811667 189.37499 418.811667 189.885452 419.2025 189.885452 419.2025 190.395914 419.593333 190.395914 419.593333 191.416839 419.984167 191.416839 419.984167 191.927301 420.375 191.927301 420.375 192.437764 420.765833 192.437764 420.765833 192.948226 421.156667 192.948226 421.156667 193.458688 421.5475 193.458688 421.5475 193.969151 421.938333 193.969151 421.938333 194.479613 422.329167 194.479613 422.329167 195.500538 422.72 195.500538 422.72 196.011 423.110833 196.011 423.110833 196.521462 423.501667 196.521462 423.501667 197.031925 423.8925 197.031925 423.8925 197.542387 424.283333 197.542387 424.283333 198.052849 424.674167 198.052849 424.674167 199.073774 425.065 199.073774 425.065 199.584236 425.455833 199.584236 425.455833 200.094699 425.846667 200.094699 425.846667 200.605161 426.2375 200.605161 426.2375 201.115623 426.628333 201.115623 426.628333 202.136548 427.019167 202.136548 427.019167 202.64701 427.41 202.64701 427.41 203.157472 427.800833 203.157472 427.800833 203.667935 428.191667 203.667935 428.191667 204.688859 428.5825 204.688859 428.5825 205.199322 428.973333 205.199322 428.973333 205.709784 429.364167 205.709784 429.364167 206.220246 429.755 206.220246 429.755 207.241171 430.145833 207.241171 430.145833 207.751633 430.536667 207.751633 430.536667 208.262096 430.9275 208.262096 430.9275 209.28302 431.318333 209.28302 431.318333 209.793483 431.709167 209.793483 431.709167 210.303945 432.1 210.303945 432.1 211.32487 432.490833 211.32487 432.490833 211.835332 432.881667 211.835332 432.881667 212.345794 433.2725 212.345794 433.2725 213.366719 433.663333 213.366719 433.663333 213.877181 434.054167 213.877181 434.054167 214.387643 434.445 214.387643 434.445 215.408568 434.835833 215.408568 434.835833 215.91903 435.226667 215.91903 435.226667 216.429493 435.6175 216.429493 435.6175 217.450417 436.008333 217.450417 436.008333 217.96088 436.399167 217.96088 436.399167 218.981804 436.79 218.981804 436.79 219.492267 437.180833 219.492267 437.180833 220.513191 437.571667 220.513191 437.571667 221.023654 437.9625 221.023654 437.9625 222.044578 438.353333 222.044578 438.353333 222.555041 438.744167 222.555041 438.744167 223.065503 439.135 223.065503 439.135 224.086428 439.525833 224.086428 439.525833 224.59689 439.916667 224.59689 439.916667 225.617814 440.3075 225.617814 440.3075 226.128277 440.698333 226.128277 440.698333 227.149201 441.089167 227.149201 441.089167 227.659664 441.48 227.659664 441.48 228.680588 441.870833 228.680588 441.870833 229.701513 442.261667 229.701513 442.261667 230.211975 442.6525 230.211975 442.6525 231.2329 443.043333 231.2329 443.043333 231.743362 443.434167 231.743362 443.434167 232.764287 443.825 232.764287 443.825 233.274749 444.215833 233.274749 444.215833 234.295674 444.606667 234.295674 444.606667 235.316599 444.9975 235.316599 444.9975 235.827061 445.388333 235.827061 445.388333 236.847986 445.779167 236.847986 445.779167 237.86891 446.17 237.86891 446.17 238.379372 446.560833 238.379372 446.560833 239.400297 446.951667 239.400297 446.951667 240.421222 447.3425 240.421222 447.3425 240.931684 447.733333 240.931684 447.733333 241.952609 448.124167 241.952609 448.124167 242.973533 448.515 242.973533 448.515 243.994458 448.905833 243.994458 448.905833 244.50492 449.296667 244.50492 449.296667 245.525845 449.6875 245.525845 449.6875 246.54677 450.078333 246.54677 450.078333 247.567694 450.469167 247.567694 450.469167 248.588619 450.86 248.588619 450.86 249.099081 451.250833 249.099081 451.250833 250.120006 451.641667 250.120006 451.641667 251.14093 452.0325 251.14093 452.0325 252.161855 452.423333 252.161855 452.423333 253.18278 452.814167 253.18278 452.814167 254.203704 453.205 254.203704 453.205 255.224629 453.595833 255.224629 453.595833 256.245554 453.986667 256.245554 453.986667 257.266478 454.3775 257.266478 454.3775 258.287403 454.768333 258.287403 454.768333 259.308328 455.159167 259.308328 455.159167 260.329252 455.55 260.329252 455.55 261.350177 455.940833 261.350177 455.940833 262.371101 456.331667 262.371101 456.331667 263.392026 456.7225 263.392026 456.7225 264.412951 457.113333 264.412951 457.113333 265.433875 457.504167 265.433875 457.504167 266.4548 457.895 266.4548 457.895 267.986187 458.285833 267.986187 458.285833 269.007112 458.676667 269.007112 458.676667 270.028036 459.0675 270.028036 459.0675 271.048961 459.458333 271.048961 459.458333 272.580348 459.849167 272.580348 459.849167 273.601272 460.24 273.601272 460.24 274.622197 460.630833 274.622197 460.630833 275.643122 461.021667 275.643122 461.021667 277.174509 461.4125 277.174509 461.4125 278.195433 461.803333 278.195433 461.803333 279.72682 462.194167 279.72682 462.194167 280.747745 462.585 280.747745 462.585 282.279132 462.975833 282.279132 462.975833 283.300057 463.366667 283.300057 463.366667 284.831443 463.7575 284.831443 463.7575 286.36283 464.148333 286.36283 464.148333 287.383755 464.539167 287.383755 464.539167 288.915142 464.93 288.915142 464.93 290.446529 465.320833 290.446529 465.320833 291.467454 465.711667 291.467454 465.711667 292.998841 466.1025 292.998841 466.1025 294.530228 466.493333 294.530228 466.493333 296.061614 466.884167 296.061614 466.884167 297.593001 467.275 297.593001 467.275 299.124388 467.665833 299.124388 467.665833 300.655775 468.056667 300.655775 468.056667 302.187162 468.4475 302.187162 468.4475 303.718549 468.838333 303.718549 468.838333 305.760399 469.229167 305.760399 469.229167 307.291786 469.62 307.291786 469.62 308.823172 470.010833 308.823172 470.010833 310.865022 470.401667 310.865022 470.401667 312.396409 470.7925 312.396409 470.7925 314.438258 471.183333 314.438258 471.183333 316.480107 471.574167 316.480107 471.574167 318.011494 471.965 318.011494 471.965 320.053343 472.355833 320.053343 472.355833 322.605655 472.746667 322.605655 472.746667 324.647504 473.1375 324.647504 473.1375 326.689354 473.528333 326.689354 473.528333 328.731203 473.919167 328.731203 473.919167 331.283514 474.31 331.283514 474.31 333.835826 474.700833 333.835826 474.700833 336.388138 475.091667 336.388138 475.091667 338.940449 475.4825 338.940449 475.4825 342.003223 475.873333 342.003223 475.873333 345.065997 476.264167 345.065997 476.264167 348.128771 476.655 348.128771 476.655 351.702007 477.045833 351.702007 477.045833 355.275243 477.436667 355.275243 477.436667 359.869404 477.8275 359.869404 477.8275 364.463565 478.218333 364.463565 478.218333 370.078651 478.609167 370.078651 478.609167 377.735586 479 377.735586"></polygon>
            <polygon id="Shape" fill="#FF0000" opacity="0" points="410.604167 612.03779 410.604167 611.527328 410.995 611.527328 410.995 611.016865 411.385833 611.016865 411.385833 610.506403 411.776667 610.506403 411.776667 609.995941 412.1675 609.995941 412.1675 609.485478 412.558333 609.485478 412.558333 608.975016 412.949167 608.975016 412.949167 608.464554 413.34 608.464554 413.34 607.954091 413.730833 607.954091 413.730833 607.443629 414.121667 607.443629 414.121667 606.933167 414.5125 606.933167 414.5125 606.422704 414.903333 606.422704 414.903333 605.912242 415.294167 605.912242 415.294167 604.891317 415.685 604.891317 415.685 604.380855 416.075833 604.380855 416.075833 603.870393 416.466667 603.870393 416.466667 603.35993 416.8575 603.35993 416.8575 602.849468 417.248333 602.849468 417.248333 602.339006 417.639167 602.339006 417.639167 601.828543 418.03 601.828543 418.03 601.318081 418.420833 601.318081 418.420833 600.807619 418.811667 600.807619 418.811667 600.297157 419.2025 600.297157 419.2025 599.786694 419.593333 599.786694 419.593333 598.76577 419.984167 598.76577 419.984167 598.255307 420.375 598.255307 420.375 597.744845 420.765833 597.744845 420.765833 597.234383 421.156667 597.234383 421.156667 596.72392 421.5475 596.72392 421.5475 596.213458 421.938333 596.213458 421.938333 595.702996 422.329167 595.702996 422.329167 594.682071 422.72 594.682071 422.72 594.171609 423.110833 594.171609 423.110833 593.661146 423.501667 593.661146 423.501667 593.150684 423.8925 593.150684 423.8925 592.640222 424.283333 592.640222 424.283333 592.129759 424.674167 592.129759 424.674167 591.108835 425.065 591.108835 425.065 590.598372 425.455833 590.598372 425.455833 590.08791 425.846667 590.08791 425.846667 589.577448 426.2375 589.577448 426.2375 589.066986 426.628333 589.066986 426.628333 588.046061 427.019167 588.046061 427.019167 587.535599 427.41 587.535599 427.41 587.025136 427.800833 587.025136 427.800833 586.514674 428.191667 586.514674 428.191667 585.493749 428.5825 585.493749 428.5825 584.983287 428.973333 584.983287 428.973333 584.472825 429.364167 584.472825 429.364167 583.962362 429.755 583.962362 429.755 582.941438 430.145833 582.941438 430.145833 582.430975 430.536667 582.430975 430.536667 581.920513 430.9275 581.920513 430.9275 580.899588 431.318333 580.899588 431.318333 580.389126 431.709167 580.389126 431.709167 579.878664 432.1 579.878664 432.1 578.857739 432.490833 578.857739 432.490833 578.347277 432.881667 578.347277 432.881667 577.836814 433.2725 577.836814 433.2725 576.81589 433.663333 576.81589 433.663333 576.305428 434.054167 576.305428 434.054167 575.794965 434.445 575.794965 434.445 574.774041 434.835833 574.774041 434.835833 574.263578 435.226667 574.263578 435.226667 573.242654 435.6175 573.242654 435.6175 572.732191 436.008333 572.732191 436.008333 572.221729 436.399167 572.221729 436.399167 571.200804 436.79 571.200804 436.79 570.690342 437.180833 570.690342 437.180833 569.669417 437.571667 569.669417 437.571667 569.158955 437.9625 569.158955 437.9625 568.13803 438.353333 568.13803 438.353333 567.627568 438.744167 567.627568 438.744167 567.117106 439.135 567.117106 439.135 566.096181 439.525833 566.096181 439.525833 565.585719 439.916667 565.585719 439.916667 564.564794 440.3075 564.564794 440.3075 564.054332 440.698333 564.054332 440.698333 563.033407 441.089167 563.033407 441.089167 562.522945 441.48 562.522945 441.48 561.50202 441.870833 561.50202 441.870833 560.481096 442.261667 560.481096 442.261667 559.970633 442.6525 559.970633 442.6525 558.949709 443.043333 558.949709 443.043333 558.439246 443.434167 558.439246 443.434167 557.418322 443.825 557.418322 443.825 556.397397 444.215833 556.397397 444.215833 555.886935 444.606667 555.886935 444.606667 554.86601 444.9975 554.86601 444.9975 554.355548 445.388333 554.355548 445.388333 553.334623 445.779167 553.334623 445.779167 552.313699 446.17 552.313699 446.17 551.803236 446.560833 551.803236 446.560833 550.782312 446.951667 550.782312 446.951667 549.761387 447.3425 549.761387 447.3425 549.250925 447.733333 549.250925 447.733333 548.23 448.124167 548.23 448.124167 547.209075 448.515 547.209075 448.515 546.188151 448.905833 546.188151 448.905833 545.677688 449.296667 545.677688 449.296667 544.656764 449.6875 544.656764 449.6875 543.635839 450.078333 543.635839 450.078333 542.614914 450.469167 542.614914 450.469167 541.59399 450.86 541.59399 450.86 541.083528 451.250833 541.083528 451.250833 540.062603 451.641667 540.062603 451.641667 539.041678 452.0325 539.041678 452.0325 538.020754 452.423333 538.020754 452.423333 536.999829 452.814167 536.999829 452.814167 535.978904 453.205 535.978904 453.205 534.95798 453.595833 534.95798 453.595833 533.937055 453.986667 533.937055 453.986667 532.91613 454.3775 532.91613 454.3775 531.895206 454.768333 531.895206 454.768333 530.874281 455.159167 530.874281 455.159167 529.853357 455.55 529.853357 455.55 528.832432 455.940833 528.832432 455.940833 527.811507 456.331667 527.811507 456.331667 526.790583 456.7225 526.790583 456.7225 525.769658 457.113333 525.769658 457.113333 524.748733 457.504167 524.748733 457.504167 523.727809 457.895 523.727809 457.895 522.196422 458.285833 522.196422 458.285833 521.175497 458.676667 521.175497 458.676667 520.154572 459.0675 520.154572 459.0675 519.133648 459.458333 519.133648 459.458333 517.602261 459.849167 517.602261 459.849167 516.581336 460.24 516.581336 460.24 515.560412 460.630833 515.560412 460.630833 514.539487 461.021667 514.539487 461.021667 513.0081 461.4125 513.0081 461.4125 511.987175 461.803333 511.987175 461.803333 510.455788 462.194167 510.455788 462.194167 509.434864 462.585 509.434864 462.585 507.903477 462.975833 507.903477 462.975833 506.882552 463.366667 506.882552 463.366667 505.351165 463.7575 505.351165 463.7575 503.819778 464.148333 503.819778 464.148333 502.798854 464.539167 502.798854 464.539167 501.267467 464.93 501.267467 464.93 499.73608 465.320833 499.73608 465.320833 498.715155 465.711667 498.715155 465.711667 497.183768 466.1025 497.183768 466.1025 495.652381 466.493333 495.652381 466.493333 494.120994 466.884167 494.120994 466.884167 492.589607 467.275 492.589607 467.275 491.05822 467.665833 491.05822 467.665833 489.526833 468.056667 489.526833 468.056667 487.995446 468.4475 487.995446 468.4475 486.464059 468.838333 486.464059 468.838333 484.42221 469.229167 484.42221 469.229167 482.890823 469.62 482.890823 469.62 481.359436 470.010833 481.359436 470.010833 479.317587 470.401667 479.317587 470.401667 477.7862 470.7925 477.7862 470.7925 475.744351 471.183333 475.744351 471.183333 473.702501 471.574167 473.702501 471.574167 472.171114 471.965 472.171114 471.965 470.129265 472.355833 470.129265 472.355833 467.576954 472.746667 467.576954 472.746667 465.535104 473.1375 465.535104 473.1375 463.493255 473.528333 463.493255 473.528333 460.940943 473.919167 460.940943 473.919167 458.899094 474.31 458.899094 474.31 456.346783 474.700833 456.346783 474.700833 453.794471 475.091667 453.794471 475.091667 451.242159 475.4825 451.242159 475.4825 448.179386 475.873333 448.179386 475.873333 445.116612 476.264167 445.116612 476.264167 442.053838 476.655 442.053838 476.655 438.480601 477.045833 438.480601 477.045833 434.907365 477.436667 434.907365 477.436667 430.313204 477.8275 430.313204 477.8275 425.719043 478.218333 425.719043 478.218333 420.103958 478.609167 420.103958 478.609167 412.447023 479 412.447023 479 701.368696 257.788333 701.368696 257.788333 700.858233 263.650833 700.858233 263.650833 700.347771 267.95 700.347771 267.95 699.837309 271.4675 699.837309 271.4675 699.326846 274.985 699.326846 274.985 698.816384 277.720833 698.816384 277.720833 698.305922 280.456667 698.305922 280.456667 697.795459 282.801667 697.795459 282.801667 697.284997 285.146667 697.284997 285.146667 696.774535 287.491667 696.774535 287.491667 696.264072 289.445833 696.264072 289.445833 695.75361 291.4 695.75361 291.4 695.243148 293.354167 695.243148 293.354167 694.732686 294.9175 694.732686 294.9175 694.222223 296.871667 694.222223 296.871667 693.711761 298.435 693.711761 298.435 693.201299 299.998333 693.201299 299.998333 692.690836 301.9525 692.690836 301.9525 692.180374 303.515833 692.180374 303.515833 691.669912 304.688333 691.669912 304.688333 691.159449 306.251667 691.159449 306.251667 690.648987 307.815 690.648987 307.815 690.138525 308.9875 690.138525 308.9875 689.628062 310.550833 689.628062 310.550833 689.1176 311.723333 689.1176 311.723333 688.607138 312.895833 688.607138 312.895833 688.096675 314.459167 688.096675 314.459167 687.586213 315.631667 687.586213 315.631667 687.075751 316.804167 687.075751 316.804167 686.565288 317.976667 686.565288 317.976667 686.054826 319.149167 686.054826 319.149167 685.544364 320.321667 685.544364 320.321667 685.033901 321.494167 685.033901 321.494167 684.523439 322.666667 684.523439 322.666667 684.012977 323.839167 684.012977 323.839167 683.502514 324.620833 683.502514 324.620833 682.992052 325.793333 682.992052 325.793333 682.48159 326.965833 682.48159 326.965833 681.971128 327.7475 681.971128 327.7475 681.460665 328.92 681.460665 328.92 680.950203 330.0925 680.950203 330.0925 680.439741 330.874167 680.439741 330.874167 679.929278 332.046667 679.929278 332.046667 679.418816 332.828333 679.418816 332.828333 678.908354 334.000833 678.908354 334.000833 678.397891 334.7825 678.397891 334.7825 677.887429 335.955 677.887429 335.955 677.376967 336.736667 677.376967 336.736667 676.866504 337.518333 676.866504 337.518333 676.356042 338.3 676.356042 338.3 675.84558 339.4725 675.84558 339.4725 675.335117 340.254167 675.335117 340.254167 674.824655 341.035833 674.824655 341.035833 674.314193 341.8175 674.314193 341.8175 673.80373 342.99 673.80373 342.99 673.293268 343.771667 673.293268 343.771667 672.782806 344.553333 672.782806 344.553333 672.272343 345.335 672.272343 345.335 671.761881 346.116667 671.761881 346.116667 671.251419 346.898333 671.251419 346.898333 670.740957 347.68 670.740957 347.68 670.230494 348.461667 670.230494 348.461667 669.720032 349.243333 669.720032 349.243333 669.20957 350.025 669.20957 350.025 668.699107 350.806667 668.699107 350.806667 668.188645 351.588333 668.188645 351.588333 667.678183 352.37 667.678183 352.37 667.16772 353.151667 667.16772 353.151667 666.657258 353.933333 666.657258 353.933333 666.146796 354.715 666.146796 354.715 665.636333 355.496667 665.636333 355.496667 665.125871 356.278333 665.125871 356.278333 664.615409 356.669167 664.615409 356.669167 664.104946 357.450833 664.104946 357.450833 663.594484 358.2325 663.594484 358.2325 663.084022 359.014167 663.084022 359.014167 662.573559 359.795833 662.573559 359.795833 662.063097 360.186667 662.063097 360.186667 661.552635 360.968333 661.552635 360.968333 661.042172 361.75 661.042172 361.75 660.53171 362.531667 660.53171 362.531667 660.021248 362.9225 660.021248 362.9225 659.510786 363.704167 659.510786 363.704167 659.000323 364.485833 659.000323 364.485833 658.489861 364.876667 658.489861 364.876667 657.979399 365.658333 657.979399 365.658333 657.468936 366.44 657.468936 366.44 656.958474 366.830833 656.958474 366.830833 656.448012 367.6125 656.448012 367.6125 655.937549 368.003333 655.937549 368.003333 655.427087 368.785 655.427087 368.785 654.916625 369.566667 654.916625 369.566667 654.406162 369.9575 654.406162 369.9575 653.8957 370.739167 653.8957 370.739167 653.385238 371.13 653.385238 371.13 652.874775 371.911667 652.874775 371.911667 652.364313 372.693333 652.364313 372.693333 651.853851 373.084167 651.853851 373.084167 651.343388 373.865833 651.343388 373.865833 650.832926 374.256667 650.832926 374.256667 650.322464 375.038333 650.322464 375.038333 649.812001 375.429167 649.812001 375.429167 649.301539 376.210833 649.301539 376.210833 648.791077 376.601667 648.791077 376.601667 648.280614 376.9925 648.280614 376.9925 647.770152 377.774167 647.770152 377.774167 647.25969 378.165 647.25969 378.165 646.749228 378.946667 646.749228 378.946667 646.238765 379.3375 646.238765 379.3375 645.728303 380.119167 645.728303 380.119167 645.217841 380.51 645.217841 380.51 644.707378 380.900833 644.707378 380.900833 644.196916 381.6825 644.196916 381.6825 643.686454 382.073333 643.686454 382.073333 643.175991 382.855 643.175991 382.855 642.665529 383.245833 642.665529 383.245833 642.155067 383.636667 642.155067 383.636667 641.644604 384.418333 641.644604 384.418333 641.134142 384.809167 641.134142 384.809167 640.62368 385.2 640.62368 385.2 640.113217 385.981667 640.113217 385.981667 639.602755 386.3725 639.602755 386.3725 639.092293 386.763333 639.092293 386.763333 638.58183 387.545 638.58183 387.545 638.071368 387.935833 638.071368 387.935833 637.560906 388.326667 637.560906 388.326667 637.050443 389.108333 637.050443 389.108333 636.539981 389.499167 636.539981 389.499167 636.029519 389.89 636.029519 389.89 635.519057 390.280833 635.519057 390.280833 635.008594 391.0625 635.008594 391.0625 634.498132 391.453333 634.498132 391.453333 633.98767 391.844167 633.98767 391.844167 633.477207 392.235 633.477207 392.235 632.966745 393.016667 632.966745 393.016667 632.456283 393.4075 632.456283 393.4075 631.94582 393.798333 631.94582 393.798333 631.435358 394.189167 631.435358 394.189167 630.924896 394.58 630.924896 394.58 630.414433 395.361667 630.414433 395.361667 629.903971 395.7525 629.903971 395.7525 629.393509 396.143333 629.393509 396.143333 628.883046 396.534167 628.883046 396.534167 628.372584 396.925 628.372584 396.925 627.862122 397.315833 627.862122 397.315833 627.351659 398.0975 627.351659 398.0975 626.841197 398.488333 626.841197 398.488333 626.330735 398.879167 626.330735 398.879167 625.820272 399.27 625.820272 399.27 625.30981 399.660833 625.30981 399.660833 624.799348 400.051667 624.799348 400.051667 624.288886 400.4425 624.288886 400.4425 623.778423 401.224167 623.778423 401.224167 623.267961 401.615 623.267961 401.615 622.757499 402.005833 622.757499 402.005833 622.247036 402.396667 622.247036 402.396667 621.736574 402.7875 621.736574 402.7875 621.226112 403.178333 621.226112 403.178333 620.715649 403.569167 620.715649 403.569167 620.205187 403.96 620.205187 403.96 619.694725 404.350833 619.694725 404.350833 619.184262 404.741667 619.184262 404.741667 618.6738 405.1325 618.6738 405.1325 618.163338 405.914167 618.163338 405.914167 617.652875 406.305 617.652875 406.305 617.142413 406.695833 617.142413 406.695833 616.631951 407.086667 616.631951 407.086667 616.121488 407.4775 616.121488 407.4775 615.611026 407.868333 615.611026 407.868333 615.100564 408.259167 615.100564 408.259167 614.590101 408.65 614.590101 408.65 614.079639 409.040833 614.079639 409.040833 613.569177 409.431667 613.569177 409.431667 613.058714 409.8225 613.058714 409.8225 612.548252 410.213333 612.548252 410.213333 612.03779"></polygon>
            <polygon id="Shape" fill="#FF0000" opacity="0" points="133.1125 701.368696 10 701.368696 10 412.957486 10.3908333 412.957486 10.3908333 420.103958 10.7816667 420.103958 10.7816667 426.229506 11.1725 426.229506 11.1725 430.823667 11.5633333 430.823667 11.5633333 434.907365 11.9541667 434.907365 11.9541667 438.480601 12.345 438.480601 12.345 442.053838 12.7358333 442.053838 12.7358333 445.116612 13.1266667 445.116612 13.1266667 448.179386 13.5175 448.179386 13.5175 451.242159 13.9083333 451.242159 13.9083333 453.794471 14.2991667 453.794471 14.2991667 456.346783 14.69 456.346783 14.69 458.899094 15.0808333 458.899094 15.0808333 461.451406 15.4716667 461.451406 15.4716667 463.493255 15.8625 463.493255 15.8625 465.535104 16.2533333 465.535104 16.2533333 468.087416 16.6441667 468.087416 16.6441667 470.129265 17.035 470.129265 17.035 472.171114 17.4258333 472.171114 17.4258333 473.702501 17.8166667 473.702501 17.8166667 475.744351 18.2075 475.744351 18.2075 477.7862 18.5983333 477.7862 18.5983333 479.317587 18.9891667 479.317587 18.9891667 481.359436 19.38 481.359436 19.38 482.890823 19.7708333 482.890823 19.7708333 484.42221 20.1616667 484.42221 20.1616667 486.464059 20.5525 486.464059 20.5525 487.995446 20.9433333 487.995446 20.9433333 489.526833 21.3341667 489.526833 21.3341667 491.05822 21.725 491.05822 21.725 492.589607 22.1158333 492.589607 22.1158333 494.120994 22.5066667 494.120994 22.5066667 495.652381 22.8975 495.652381 22.8975 497.183768 23.2883333 497.183768 23.2883333 498.715155 23.6791667 498.715155 23.6791667 499.73608 24.07 499.73608 24.07 501.267467 24.4608333 501.267467 24.4608333 502.798854 24.8516667 502.798854 24.8516667 503.819778 25.2425 503.819778 25.2425 505.351165 25.6333333 505.351165 25.6333333 506.882552 26.0241667 506.882552 26.0241667 507.903477 26.415 507.903477 26.415 509.434864 26.8058333 509.434864 26.8058333 510.455788 27.1966667 510.455788 27.1966667 511.987175 27.5875 511.987175 27.5875 513.0081 27.9783333 513.0081 27.9783333 514.539487 28.3691667 514.539487 28.3691667 515.560412 28.76 515.560412 28.76 516.581336 29.1508333 516.581336 29.1508333 517.602261 29.5416667 517.602261 29.5416667 519.133648 29.9325 519.133648 29.9325 520.154572 30.3233333 520.154572 30.3233333 521.175497 30.7141667 521.175497 30.7141667 522.196422 31.105 522.196422 31.105 523.727809 31.4958333 523.727809 31.4958333 524.748733 31.8866667 524.748733 31.8866667 525.769658 32.2775 525.769658 32.2775 526.790583 32.6683333 526.790583 32.6683333 527.811507 33.0591667 527.811507 33.0591667 528.832432 33.45 528.832432 33.45 529.853357 33.8408333 529.853357 33.8408333 530.874281 34.2316667 530.874281 34.2316667 531.895206 34.6225 531.895206 34.6225 532.91613 35.0133333 532.91613 35.0133333 533.937055 35.4041667 533.937055 35.4041667 534.95798 35.795 534.95798 35.795 535.978904 36.1858333 535.978904 36.1858333 536.999829 36.5766667 536.999829 36.5766667 538.020754 36.9675 538.020754 36.9675 539.041678 37.3583333 539.041678 37.3583333 540.062603 37.7491667 540.062603 37.7491667 541.083528 38.14 541.083528 38.14 541.59399 38.5308333 541.59399 38.5308333 542.614914 38.9216667 542.614914 38.9216667 543.635839 39.3125 543.635839 39.3125 544.656764 39.7033333 544.656764 39.7033333 545.677688 40.0941667 545.677688 40.0941667 546.188151 40.485 546.188151 40.485 547.209075 40.8758333 547.209075 40.8758333 548.23 41.2666667 548.23 41.2666667 549.250925 41.6575 549.250925 41.6575 549.761387 42.0483333 549.761387 42.0483333 550.782312 42.4391667 550.782312 42.4391667 551.803236 42.83 551.803236 42.83 552.313699 43.2208333 552.313699 43.2208333 553.334623 43.6116667 553.334623 43.6116667 554.355548 44.0025 554.355548 44.0025 554.86601 44.3933333 554.86601 44.3933333 555.886935 44.7841667 555.886935 44.7841667 556.907859 45.175 556.907859 45.175 557.418322 45.5658333 557.418322 45.5658333 558.439246 45.9566667 558.439246 45.9566667 558.949709 46.3475 558.949709 46.3475 559.970633 46.7383333 559.970633 46.7383333 560.991558 47.1291667 560.991558 47.1291667 561.50202 47.52 561.50202 47.52 562.522945 47.9108333 562.522945 47.9108333 563.033407 48.3016667 563.033407 48.3016667 564.054332 48.6925 564.054332 48.6925 564.564794 49.0833333 564.564794 49.0833333 565.585719 49.4741667 565.585719 49.4741667 566.096181 49.865 566.096181 49.865 567.117106 50.2558333 567.117106 50.2558333 567.627568 50.6466667 567.627568 50.6466667 568.648493 51.0375 568.648493 51.0375 569.158955 51.4283333 569.158955 51.4283333 569.669417 51.8191667 569.669417 51.8191667 570.690342 52.21 570.690342 52.21 571.200804 52.6008333 571.200804 52.6008333 572.221729 52.9916667 572.221729 52.9916667 572.732191 53.3825 572.732191 53.3825 573.753116 53.7733333 573.753116 53.7733333 574.263578 54.1641667 574.263578 54.1641667 574.774041 54.555 574.774041 54.555 575.794965 54.9458333 575.794965 54.9458333 576.305428 55.3366667 576.305428 55.3366667 576.81589 55.7275 576.81589 55.7275 577.836814 56.1183333 577.836814 56.1183333 578.347277 56.5091667 578.347277 56.5091667 578.857739 56.9 578.857739 56.9 579.878664 57.2908333 579.878664 57.2908333 580.389126 57.6816667 580.389126 57.6816667 580.899588 58.0725 580.899588 58.0725 581.920513 58.4633333 581.920513 58.4633333 582.430975 58.8541667 582.430975 58.8541667 582.941438 59.245 582.941438 59.245 583.962362 59.6358333 583.962362 59.6358333 584.472825 60.0266667 584.472825 60.0266667 584.983287 60.4175 584.983287 60.4175 585.493749 60.8083333 585.493749 60.8083333 586.514674 61.1991667 586.514674 61.1991667 587.025136 61.59 587.025136 61.59 587.535599 61.9808333 587.535599 61.9808333 588.046061 62.3716667 588.046061 62.3716667 589.066986 62.7625 589.066986 62.7625 589.577448 63.1533333 589.577448 63.1533333 590.08791 63.5441667 590.08791 63.5441667 590.598372 63.935 590.598372 63.935 591.108835 64.3258333 591.108835 64.3258333 592.129759 64.7166667 592.129759 64.7166667 592.640222 65.1075 592.640222 65.1075 593.150684 65.4983333 593.150684 65.4983333 593.661146 65.8891667 593.661146 65.8891667 594.171609 66.28 594.171609 66.28 594.682071 66.6708333 594.682071 66.6708333 595.702996 67.0616667 595.702996 67.0616667 596.213458 67.4525 596.213458 67.4525 596.72392 67.8433333 596.72392 67.8433333 597.234383 68.2341667 597.234383 68.2341667 597.744845 68.625 597.744845 68.625 598.255307 69.0158333 598.255307 69.0158333 598.76577 69.4066667 598.76577 69.4066667 599.786694 69.7975 599.786694 69.7975 600.297157 70.1883333 600.297157 70.1883333 600.807619 70.5791667 600.807619 70.5791667 601.318081 70.97 601.318081 70.97 601.828543 71.3608333 601.828543 71.3608333 602.339006 71.7516667 602.339006 71.7516667 602.849468 72.1425 602.849468 72.1425 603.35993 72.5333333 603.35993 72.5333333 603.870393 72.9241667 603.870393 72.9241667 604.380855 73.315 604.380855 73.315 604.891317 73.7058333 604.891317 73.7058333 605.912242 74.0966667 605.912242 74.0966667 606.422704 74.4875 606.422704 74.4875 606.933167 74.8783333 606.933167 74.8783333 607.443629 75.2691667 607.443629 75.2691667 607.954091 75.66 607.954091 75.66 608.464554 76.0508333 608.464554 76.0508333 608.975016 76.4416667 608.975016 76.4416667 609.485478 76.8325 609.485478 76.8325 609.995941 77.2233333 609.995941 77.2233333 610.506403 77.6141667 610.506403 77.6141667 611.016865 78.005 611.016865 78.005 611.527328 78.3958333 611.527328 78.3958333 612.03779 78.7866667 612.03779 78.7866667 612.548252 79.1775 612.548252 79.1775 613.058714 79.5683333 613.058714 79.5683333 613.569177 79.9591667 613.569177 79.9591667 614.079639 80.35 614.079639 80.35 614.590101 80.7408333 614.590101 80.7408333 615.100564 81.1316667 615.100564 81.1316667 615.611026 81.5225 615.611026 81.5225 616.121488 81.9133333 616.121488 81.9133333 616.631951 82.3041667 616.631951 82.3041667 617.142413 82.695 617.142413 82.695 617.652875 83.0858333 617.652875 83.0858333 618.163338 83.8675 618.163338 83.8675 618.6738 84.2583333 618.6738 84.2583333 619.184262 84.6491667 619.184262 84.6491667 619.694725 85.04 619.694725 85.04 620.205187 85.4308333 620.205187 85.4308333 620.715649 85.8216667 620.715649 85.8216667 621.226112 86.2125 621.226112 86.2125 621.736574 86.6033333 621.736574 86.6033333 622.247036 86.9941667 622.247036 86.9941667 622.757499 87.385 622.757499 87.385 623.267961 87.7758333 623.267961 87.7758333 623.778423 88.5575 623.778423 88.5575 624.288886 88.9483333 624.288886 88.9483333 624.799348 89.3391667 624.799348 89.3391667 625.30981 89.73 625.30981 89.73 625.820272 90.1208333 625.820272 90.1208333 626.330735 90.5116667 626.330735 90.5116667 626.841197 90.9025 626.841197 90.9025 627.351659 91.2933333 627.351659 91.2933333 627.862122 92.075 627.862122 92.075 628.372584 92.4658333 628.372584 92.4658333 628.883046 92.8566667 628.883046 92.8566667 629.393509 93.2475 629.393509 93.2475 629.903971 93.6383333 629.903971 93.6383333 630.414433 94.42 630.414433 94.42 630.924896 94.8108333 630.924896 94.8108333 631.435358 95.2016667 631.435358 95.2016667 631.94582 95.5925 631.94582 95.5925 632.456283 95.9833333 632.456283 95.9833333 632.966745 96.765 632.966745 96.765 633.477207 97.1558333 633.477207 97.1558333 633.98767 97.5466667 633.98767 97.5466667 634.498132 97.9375 634.498132 97.9375 635.008594 98.7191667 635.008594 98.7191667 635.519057 99.11 635.519057 99.11 636.029519 99.5008333 636.029519 99.5008333 636.539981 99.8916667 636.539981 99.8916667 637.050443 100.673333 637.050443 100.673333 637.560906 101.064167 637.560906 101.064167 638.071368 101.455 638.071368 101.455 638.58183 102.236667 638.58183 102.236667 639.092293 102.6275 639.092293 102.6275 639.602755 103.018333 639.602755 103.018333 640.113217 103.8 640.113217 103.8 640.62368 104.190833 640.62368 104.190833 641.134142 104.581667 641.134142 104.581667 641.644604 105.363333 641.644604 105.363333 642.155067 105.754167 642.155067 105.754167 642.665529 106.145 642.665529 106.145 643.175991 106.926667 643.175991 106.926667 643.686454 107.3175 643.686454 107.3175 644.196916 107.708333 644.196916 107.708333 644.707378 108.49 644.707378 108.49 645.217841 108.880833 645.217841 108.880833 645.728303 109.6625 645.728303 109.6625 646.238765 110.053333 646.238765 110.053333 646.749228 110.835 646.749228 110.835 647.25969 111.225833 647.25969 111.225833 647.770152 112.0075 647.770152 112.0075 648.280614 112.398333 648.280614 112.398333 648.791077 112.789167 648.791077 112.789167 649.301539 113.570833 649.301539 113.570833 649.812001 113.961667 649.812001 113.961667 650.322464 114.743333 650.322464 114.743333 650.832926 115.134167 650.832926 115.134167 651.343388 115.915833 651.343388 115.915833 651.853851 116.306667 651.853851 116.306667 652.364313 117.088333 652.364313 117.088333 652.874775 117.87 652.874775 117.87 653.385238 118.260833 653.385238 118.260833 653.8957 119.0425 653.8957 119.0425 654.406162 119.433333 654.406162 119.433333 654.916625 120.215 654.916625 120.215 655.427087 120.605833 655.427087 120.605833 655.937549 121.3875 655.937549 121.3875 656.448012 122.169167 656.448012 122.169167 656.958474 122.56 656.958474 122.56 657.468936 123.341667 657.468936 123.341667 657.979399 124.123333 657.979399 124.123333 658.489861 124.514167 658.489861 124.514167 659.000323 125.295833 659.000323 125.295833 659.510786 126.0775 659.510786 126.0775 660.021248 126.468333 660.021248 126.468333 660.53171 127.25 660.53171 127.25 661.042172 128.031667 661.042172 128.031667 661.552635 128.813333 661.552635 128.813333 662.063097 129.204167 662.063097 129.204167 662.573559 129.985833 662.573559 129.985833 663.084022 130.7675 663.084022 130.7675 663.594484 131.549167 663.594484 131.549167 664.104946 132.330833 664.104946 132.330833 664.615409 132.721667 664.615409 132.721667 665.125871 133.503333 665.125871 133.503333 665.636333 134.285 665.636333 134.285 666.146796 135.066667 666.146796 135.066667 666.657258 135.848333 666.657258 135.848333 667.16772 136.63 667.16772 136.63 667.678183 137.411667 667.678183 137.411667 668.188645 138.193333 668.188645 138.193333 668.699107 138.975 668.699107 138.975 669.20957 139.756667 669.20957 139.756667 669.720032 140.538333 669.720032 140.538333 670.230494 141.32 670.230494 141.32 670.740957 142.101667 670.740957 142.101667 671.251419 142.883333 671.251419 142.883333 671.761881 143.665 671.761881 143.665 672.272343 144.446667 672.272343 144.446667 672.782806 145.228333 672.782806 145.228333 673.293268 146.01 673.293268 146.01 673.80373 147.1825 673.80373 147.1825 674.314193 147.964167 674.314193 147.964167 674.824655 148.745833 674.824655 148.745833 675.335117 149.5275 675.335117 149.5275 675.84558 150.7 675.84558 150.7 676.356042 151.481667 676.356042 151.481667 676.866504 152.263333 676.866504 152.263333 677.376967 153.045 677.376967 153.045 677.887429 154.2175 677.887429 154.2175 678.397891 154.999167 678.397891 154.999167 678.908354 156.171667 678.908354 156.171667 679.418816 156.953333 679.418816 156.953333 679.929278 158.125833 679.929278 158.125833 680.439741 158.9075 680.439741 158.9075 680.950203 160.08 680.950203 160.08 681.460665 161.2525 681.460665 161.2525 681.971128 162.034167 681.971128 162.034167 682.48159 163.206667 682.48159 163.206667 682.992052 164.379167 682.992052 164.379167 683.502514 165.160833 683.502514 165.160833 684.012977 166.333333 684.012977 166.333333 684.523439 167.505833 684.523439 167.505833 685.033901 168.678333 685.033901 168.678333 685.544364 169.850833 685.544364 169.850833 686.054826 171.023333 686.054826 171.023333 686.565288 172.195833 686.565288 172.195833 687.075751 173.368333 687.075751 173.368333 687.586213 174.540833 687.586213 174.540833 688.096675 176.104167 688.096675 176.104167 688.607138 177.276667 688.607138 177.276667 689.1176 178.449167 689.1176 178.449167 689.628062 180.0125 689.628062 180.0125 690.138525 181.185 690.138525 181.185 690.648987 182.748333 690.648987 182.748333 691.159449 184.311667 691.159449 184.311667 691.669912 185.484167 691.669912 185.484167 692.180374 187.0475 692.180374 187.0475 692.690836 189.001667 692.690836 189.001667 693.201299 190.565 693.201299 190.565 693.711761 192.128333 693.711761 192.128333 694.222223 193.691667 694.222223 193.691667 694.732686 195.645833 694.732686 195.645833 695.243148 197.6 695.243148 197.6 695.75361 199.554167 695.75361 199.554167 696.264072 201.508333 696.264072 201.508333 696.774535 203.853333 696.774535 203.853333 697.284997 206.198333 697.284997 206.198333 697.795459 208.543333 697.795459 208.543333 698.305922 211.279167 698.305922 211.279167 698.816384 214.015 698.816384 214.015 699.326846 217.5325 699.326846 217.5325 699.837309 221.05 699.837309 221.05 700.347771 225.349167 700.347771 225.349167 700.858233 231.211667 700.858233 231.211667 701.368696"></polygon>
            <polygon id="Shape" fill="#FF0000" opacity="0" points="10 88.813913 10 377.225123 10.3908333 377.225123 10.3908333 370.078651 10.7816667 370.078651 10.7816667 363.953103 11.1725 363.953103 11.1725 359.358942 11.5633333 359.358942 11.5633333 355.275243 11.9541667 355.275243 11.9541667 351.702007 12.345 351.702007 12.345 348.128771 12.7358333 348.128771 12.7358333 345.065997 13.1266667 345.065997 13.1266667 342.003223 13.5175 342.003223 13.5175 338.940449 13.9083333 338.940449 13.9083333 336.388138 14.2991667 336.388138 14.2991667 333.835826 14.69 333.835826 14.69 331.283514 15.0808333 331.283514 15.0808333 328.731203 15.4716667 328.731203 15.4716667 326.689354 15.8625 326.689354 15.8625 324.647504 16.2533333 324.647504 16.2533333 322.095193 16.6441667 322.095193 16.6441667 320.053343 17.035 320.053343 17.035 318.011494 17.4258333 318.011494 17.4258333 316.480107 17.8166667 316.480107 17.8166667 314.438258 18.2075 314.438258 18.2075 312.396409 18.5983333 312.396409 18.5983333 310.865022 18.9891667 310.865022 18.9891667 308.823172 19.38 308.823172 19.38 307.291786 19.7708333 307.291786 19.7708333 305.760399 20.1616667 305.760399 20.1616667 303.718549 20.5525 303.718549 20.5525 302.187162 20.9433333 302.187162 20.9433333 300.655775 21.3341667 300.655775 21.3341667 299.124388 21.725 299.124388 21.725 297.593001 22.1158333 297.593001 22.1158333 296.061614 22.5066667 296.061614 22.5066667 294.530228 22.8975 294.530228 22.8975 292.998841 23.2883333 292.998841 23.2883333 291.467454 23.6791667 291.467454 23.6791667 289.936067 24.07 289.936067 24.07 288.915142 24.4608333 288.915142 24.4608333 287.383755 24.8516667 287.383755 24.8516667 285.852368 25.2425 285.852368 25.2425 284.831443 25.6333333 284.831443 25.6333333 283.300057 26.0241667 283.300057 26.0241667 282.279132 26.415 282.279132 26.415 280.747745 26.8058333 280.747745 26.8058333 279.72682 27.1966667 279.72682 27.1966667 278.195433 27.5875 278.195433 27.5875 277.174509 27.9783333 277.174509 27.9783333 275.643122 28.3691667 275.643122 28.3691667 274.622197 28.76 274.622197 28.76 273.601272 29.1508333 273.601272 29.1508333 272.580348 29.5416667 272.580348 29.5416667 271.048961 29.9325 271.048961 29.9325 270.028036 30.3233333 270.028036 30.3233333 269.007112 30.7141667 269.007112 30.7141667 267.986187 31.105 267.986187 31.105 266.4548 31.4958333 266.4548 31.4958333 265.433875 31.8866667 265.433875 31.8866667 264.412951 32.2775 264.412951 32.2775 263.392026 32.6683333 263.392026 32.6683333 262.371101 33.0591667 262.371101 33.0591667 261.350177 33.45 261.350177 33.45 260.329252 33.8408333 260.329252 33.8408333 259.308328 34.2316667 259.308328 34.2316667 258.287403 34.6225 258.287403 34.6225 257.266478 35.0133333 257.266478 35.0133333 256.245554 35.4041667 256.245554 35.4041667 255.224629 35.795 255.224629 35.795 254.203704 36.1858333 254.203704 36.1858333 253.18278 36.5766667 253.18278 36.5766667 252.161855 36.9675 252.161855 36.9675 251.14093 37.3583333 251.14093 37.3583333 250.120006 37.7491667 250.120006 37.7491667 249.099081 38.14 249.099081 38.14 248.588619 38.5308333 248.588619 38.5308333 247.567694 38.9216667 247.567694 38.9216667 246.54677 39.3125 246.54677 39.3125 245.525845 39.7033333 245.525845 39.7033333 244.50492 40.0941667 244.50492 40.0941667 243.994458 40.485 243.994458 40.485 242.973533 40.8758333 242.973533 40.8758333 241.952609 41.2666667 241.952609 41.2666667 240.931684 41.6575 240.931684 41.6575 240.421222 42.0483333 240.421222 42.0483333 239.400297 42.4391667 239.400297 42.4391667 238.379372 42.83 238.379372 42.83 237.86891 43.2208333 237.86891 43.2208333 236.847986 43.6116667 236.847986 43.6116667 235.827061 44.0025 235.827061 44.0025 235.316599 44.3933333 235.316599 44.3933333 234.295674 44.7841667 234.295674 44.7841667 233.274749 45.175 233.274749 45.175 232.764287 45.5658333 232.764287 45.5658333 231.743362 45.9566667 231.743362 45.9566667 231.2329 46.3475 231.2329 46.3475 230.211975 46.7383333 230.211975 46.7383333 229.191051 47.1291667 229.191051 47.1291667 228.680588 47.52 228.680588 47.52 227.659664 47.9108333 227.659664 47.9108333 227.149201 48.3016667 227.149201 48.3016667 226.128277 48.6925 226.128277 48.6925 225.617814 49.0833333 225.617814 49.0833333 224.59689 49.4741667 224.59689 49.4741667 224.086428 49.865 224.086428 49.865 223.065503 50.2558333 223.065503 50.2558333 222.555041 50.6466667 222.555041 50.6466667 221.534116 51.0375 221.534116 51.0375 221.023654 51.4283333 221.023654 51.4283333 220.513191 51.8191667 220.513191 51.8191667 219.492267 52.21 219.492267 52.21 218.981804 52.6008333 218.981804 52.6008333 217.96088 52.9916667 217.96088 52.9916667 217.450417 53.3825 217.450417 53.3825 216.429493 53.7733333 216.429493 53.7733333 215.91903 54.1641667 215.91903 54.1641667 215.408568 54.555 215.408568 54.555 214.387643 54.9458333 214.387643 54.9458333 213.877181 55.3366667 213.877181 55.3366667 213.366719 55.7275 213.366719 55.7275 212.345794 56.1183333 212.345794 56.1183333 211.835332 56.5091667 211.835332 56.5091667 211.32487 56.9 211.32487 56.9 210.303945 57.2908333 210.303945 57.2908333 209.793483 57.6816667 209.793483 57.6816667 209.28302 58.0725 209.28302 58.0725 208.262096 58.4633333 208.262096 58.4633333 207.751633 58.8541667 207.751633 58.8541667 207.241171 59.245 207.241171 59.245 206.220246 59.6358333 206.220246 59.6358333 205.709784 60.0266667 205.709784 60.0266667 205.199322 60.4175 205.199322 60.4175 204.688859 60.8083333 204.688859 60.8083333 203.667935 61.1991667 203.667935 61.1991667 203.157472 61.59 203.157472 61.59 202.64701 61.9808333 202.64701 61.9808333 202.136548 62.3716667 202.136548 62.3716667 201.115623 62.7625 201.115623 62.7625 200.605161 63.1533333 200.605161 63.1533333 200.094699 63.5441667 200.094699 63.5441667 199.584236 63.935 199.584236 63.935 199.073774 64.3258333 199.073774 64.3258333 198.052849 64.7166667 198.052849 64.7166667 197.542387 65.1075 197.542387 65.1075 197.031925 65.4983333 197.031925 65.4983333 196.521462 65.8891667 196.521462 65.8891667 196.011 66.28 196.011 66.28 194.990075 66.6708333 194.990075 66.6708333 194.479613 67.0616667 194.479613 67.0616667 193.969151 67.4525 193.969151 67.4525 193.458688 67.8433333 193.458688 67.8433333 192.948226 68.2341667 192.948226 68.2341667 192.437764 68.625 192.437764 68.625 191.927301 69.0158333 191.927301 69.0158333 191.416839 69.4066667 191.416839 69.4066667 190.395914 69.7975 190.395914 69.7975 189.885452 70.1883333 189.885452 70.1883333 189.37499 70.5791667 189.37499 70.5791667 188.864528 70.97 188.864528 70.97 188.354065 71.3608333 188.354065 71.3608333 187.843603 71.7516667 187.843603 71.7516667 187.333141 72.1425 187.333141 72.1425 186.822678 72.5333333 186.822678 72.5333333 186.312216 72.9241667 186.312216 72.9241667 185.801754 73.315 185.801754 73.315 184.780829 73.7058333 184.780829 73.7058333 184.270367 74.0966667 184.270367 74.0966667 183.759904 74.4875 183.759904 74.4875 183.249442 74.8783333 183.249442 74.8783333 182.73898 75.2691667 182.73898 75.2691667 182.228517 75.66 182.228517 75.66 181.718055 76.0508333 181.718055 76.0508333 181.207593 76.4416667 181.207593 76.4416667 180.69713 76.8325 180.69713 76.8325 180.186668 77.2233333 180.186668 77.2233333 179.676206 77.6141667 179.676206 77.6141667 179.165743 78.005 179.165743 78.005 178.655281 78.3958333 178.655281 78.3958333 178.144819 78.7866667 178.144819 78.7866667 177.634357 79.1775 177.634357 79.1775 177.123894 79.5683333 177.123894 79.5683333 176.613432 79.9591667 176.613432 79.9591667 176.10297 80.35 176.10297 80.35 175.592507 80.7408333 175.592507 80.7408333 175.082045 81.1316667 175.082045 81.1316667 174.571583 81.5225 174.571583 81.5225 174.06112 81.9133333 174.06112 81.9133333 173.550658 82.3041667 173.550658 82.3041667 173.040196 82.695 173.040196 82.695 172.529733 83.0858333 172.529733 83.0858333 172.019271 83.4766667 172.019271 83.4766667 171.508809 84.2583333 171.508809 84.2583333 170.998346 84.6491667 170.998346 84.6491667 170.487884 85.04 170.487884 85.04 169.977422 85.4308333 169.977422 85.4308333 169.466959 85.8216667 169.466959 85.8216667 168.956497 86.2125 168.956497 86.2125 168.446035 86.6033333 168.446035 86.6033333 167.935572 86.9941667 167.935572 86.9941667 167.42511 87.385 167.42511 87.385 166.914648 87.7758333 166.914648 87.7758333 166.404186 88.5575 166.404186 88.5575 165.893723 88.9483333 165.893723 88.9483333 165.383261 89.3391667 165.383261 89.3391667 164.872799 89.73 164.872799 89.73 164.362336 90.1208333 164.362336 90.1208333 163.851874 90.5116667 163.851874 90.5116667 163.341412 90.9025 163.341412 90.9025 162.830949 91.2933333 162.830949 91.2933333 162.320487 92.075 162.320487 92.075 161.810025 92.4658333 161.810025 92.4658333 161.299562 92.8566667 161.299562 92.8566667 160.7891 93.2475 160.7891 93.2475 160.278638 93.6383333 160.278638 93.6383333 159.768175 94.42 159.768175 94.42 159.257713 94.8108333 159.257713 94.8108333 158.747251 95.2016667 158.747251 95.2016667 158.236788 95.5925 158.236788 95.5925 157.726326 95.9833333 157.726326 95.9833333 157.215864 96.765 157.215864 96.765 156.705401 97.1558333 156.705401 97.1558333 156.194939 97.5466667 156.194939 97.5466667 155.684477 97.9375 155.684477 97.9375 155.174014 98.7191667 155.174014 98.7191667 154.663552 99.11 154.663552 99.11 154.15309 99.5008333 154.15309 99.5008333 153.642628 99.8916667 153.642628 99.8916667 153.132165 100.673333 153.132165 100.673333 152.621703 101.064167 152.621703 101.064167 152.111241 101.455 152.111241 101.455 151.600778 102.236667 151.600778 102.236667 151.090316 102.6275 151.090316 102.6275 150.579854 103.018333 150.579854 103.018333 150.069391 103.8 150.069391 103.8 149.558929 104.190833 149.558929 104.190833 149.048467 104.581667 149.048467 104.581667 148.538004 105.363333 148.538004 105.363333 148.027542 105.754167 148.027542 105.754167 147.51708 106.145 147.51708 106.145 147.006617 106.926667 147.006617 106.926667 146.496155 107.3175 146.496155 107.3175 145.985693 107.708333 145.985693 107.708333 145.47523 108.49 145.47523 108.49 144.964768 108.880833 144.964768 108.880833 144.454306 109.6625 144.454306 109.6625 143.943843 110.053333 143.943843 110.053333 143.433381 110.835 143.433381 110.835 142.922919 111.225833 142.922919 111.225833 142.412457 111.616667 142.412457 111.616667 141.901994 112.398333 141.901994 112.398333 141.391532 112.789167 141.391532 112.789167 140.88107 113.570833 140.88107 113.570833 140.370607 113.961667 140.370607 113.961667 139.860145 114.743333 139.860145 114.743333 139.349683 115.134167 139.349683 115.134167 138.83922 115.915833 138.83922 115.915833 138.328758 116.306667 138.328758 116.306667 137.818296 117.088333 137.818296 117.088333 137.307833 117.479167 137.307833 117.479167 136.797371 118.260833 136.797371 118.260833 136.286909 119.0425 136.286909 119.0425 135.776446 119.433333 135.776446 119.433333 135.265984 120.215 135.265984 120.215 134.755522 120.605833 134.755522 120.605833 134.245059 121.3875 134.245059 121.3875 133.734597 122.169167 133.734597 122.169167 133.224135 122.56 133.224135 122.56 132.713672 123.341667 132.713672 123.341667 132.20321 124.123333 132.20321 124.123333 131.692748 124.514167 131.692748 124.514167 131.182286 125.295833 131.182286 125.295833 130.671823 126.0775 130.671823 126.0775 130.161361 126.468333 130.161361 126.468333 129.650899 127.25 129.650899 127.25 129.140436 128.031667 129.140436 128.031667 128.629974 128.813333 128.629974 128.813333 128.119512 129.204167 128.119512 129.204167 127.609049 129.985833 127.609049 129.985833 127.098587 130.7675 127.098587 130.7675 126.588125 131.549167 126.588125 131.549167 126.077662 132.330833 126.077662 132.330833 125.5672 132.721667 125.5672 132.721667 125.056738 133.503333 125.056738 133.503333 124.546275 134.285 124.546275 134.285 124.035813 135.066667 124.035813 135.066667 123.525351 135.848333 123.525351 135.848333 123.014888 136.63 123.014888 136.63 122.504426 137.411667 122.504426 137.411667 121.993964 138.193333 121.993964 138.193333 121.483501 138.975 121.483501 138.975 120.973039 139.756667 120.973039 139.756667 120.462577 140.538333 120.462577 140.538333 119.952114 141.32 119.952114 141.32 119.441652 142.101667 119.441652 142.101667 118.93119 142.883333 118.93119 142.883333 118.420728 143.665 118.420728 143.665 117.910265 144.446667 117.910265 144.446667 117.399803 145.228333 117.399803 145.228333 116.889341 146.01 116.889341 146.01 116.378878 147.1825 116.378878 147.1825 115.868416 147.964167 115.868416 147.964167 115.357954 148.745833 115.357954 148.745833 114.847491 149.5275 114.847491 149.5275 114.337029 150.7 114.337029 150.7 113.826567 151.481667 113.826567 151.481667 113.316104 152.263333 113.316104 152.263333 112.805642 153.045 112.805642 153.045 112.29518 154.2175 112.29518 154.2175 111.784717 154.999167 111.784717 154.999167 111.274255 156.171667 111.274255 156.171667 110.763793 156.953333 110.763793 156.953333 110.25333 158.125833 110.25333 158.125833 109.742868 158.9075 109.742868 158.9075 109.232406 160.08 109.232406 160.08 108.721943 161.2525 108.721943 161.2525 108.211481 162.034167 108.211481 162.034167 107.701019 163.206667 107.701019 163.206667 107.190557 163.988333 107.190557 163.988333 106.680094 165.160833 106.680094 165.160833 106.169632 166.333333 106.169632 166.333333 105.65917 167.505833 105.65917 167.505833 105.148707 168.678333 105.148707 168.678333 104.638245 169.850833 104.638245 169.850833 104.127783 171.023333 104.127783 171.023333 103.61732 172.195833 103.61732 172.195833 103.106858 173.368333 103.106858 173.368333 102.596396 174.540833 102.596396 174.540833 102.085933 175.713333 102.085933 175.713333 101.575471 177.276667 101.575471 177.276667 101.065009 178.449167 101.065009 178.449167 100.554546 180.0125 100.554546 180.0125 100.044084 181.185 100.044084 181.185 99.5336217 182.748333 99.5336217 182.748333 99.0231594 184.311667 99.0231594 184.311667 98.5126971 185.484167 98.5126971 185.484167 98.0022348 187.0475 98.0022348 187.0475 97.4917725 188.610833 97.4917725 188.610833 96.9813101 190.565 96.9813101 190.565 96.4708478 192.128333 96.4708478 192.128333 95.9603855 193.691667 95.9603855 193.691667 95.4499232 195.645833 95.4499232 195.645833 94.9394609 197.6 94.9394609 197.6 94.4289986 199.554167 94.4289986 199.554167 93.9185362 201.508333 93.9185362 201.508333 93.4080739 203.853333 93.4080739 203.853333 92.8976116 206.198333 92.8976116 206.198333 92.3871493 208.543333 92.3871493 208.543333 91.876687 211.279167 91.876687 211.279167 91.3662246 214.015 91.3662246 214.015 90.8557623 217.141667 90.8557623 217.141667 90.3453 220.659167 90.3453 220.659167 89.8348377 225.349167 89.8348377 225.349167 89.3243754 230.820833 89.3243754 230.820833 88.813913"></polygon>
            <ellipse id="Oval-2" stroke="#979797" fill="url(#linearGradient-1)" cx="235" cy="418.032691" rx="225" ry="304.403125"></ellipse>
            <g id="M">
                <use fill="#0E7283" fill-rule="evenodd" xlink:href="#path-2"></use>
                <use fill="black" fill-opacity="1" filter="url(#filter-3)" xlink:href="#path-2"></use>
            </g>
        </g>
    </g>
</svg>