<?xml version="1.0" standalone="no"?>
<!DOCTYPE svg PUBLIC "-//W3C//DTD SVG 20010904//EN"
 "http://www.w3.org/TR/2001/REC-SVG-20010904/DTD/svg10.dtd">
<svg version="1.0" xmlns="http://www.w3.org/2000/svg"
 width="300.000000pt" height="300.000000pt" viewBox="0 0 300.000000 300.000000"
 preserveAspectRatio="xMidYMid meet">
<metadata>
Created by potrace 1.13, written by Peter Selinger 2001-2015
</metadata>
<g transform="translate(0.000000,300.000000) scale(0.100000,-0.100000)"
fill="#000000" stroke="none">
<path d="M1395 2864 c-33 -14 -84 -32 -114 -40 -29 -8 -59 -18 -65 -22 -6 -4
-36 -7 -66 -7 -65 0 -110 -24 -110 -58 0 -19 2 -18 20 11 18 28 25 32 65 32
26 0 45 -5 45 -11 0 -6 7 -9 15 -5 8 3 15 1 15 -3 0 -5 -7 -11 -15 -15 -8 -3
-15 -1 -15 5 0 16 -17 1 -23 -20 -4 -18 0 -19 59 -14 49 3 69 0 86 -12 l23
-17 -28 6 c-16 4 -34 3 -40 -2 -15 -12 -47 -12 -47 0 0 5 -15 9 -32 8 -18 0
-55 0 -82 0 -85 -2 -216 -80 -216 -130 0 -11 -9 -30 -20 -42 -21 -23 -26 -53
-10 -63 6 -3 10 5 10 18 0 14 7 28 16 31 22 9 32 -3 14 -14 -13 -8 -12 -10 3
-10 9 0 17 -3 17 -7 0 -9 -6 -13 -120 -102 -93 -72 -106 -87 -114 -131 -5 -27
-4 -30 3 -14 5 12 14 25 20 28 6 4 4 -9 -4 -29 -15 -35 -15 -35 10 -35 l25 0
-31 -57 c-17 -32 -39 -69 -49 -83 -29 -41 -54 -128 -43 -152 8 -17 9 -15 9 16
0 20 4 40 10 46 6 6 8 -33 7 -108 -1 -75 1 -106 6 -87 5 17 9 23 10 14 0 -9 4
-31 8 -49 5 -25 3 -31 -7 -25 -18 11 -6 -22 41 -106 21 -39 39 -81 39 -93 0
-11 7 -30 15 -40 19 -25 19 -34 -2 -38 -10 -2 1 -12 32 -28 49 -25 96 -87 111
-145 3 -13 12 -26 19 -29 10 -3 14 -29 14 -93 0 -48 5 -112 11 -142 5 -29 11
-56 11 -60 1 -3 5 12 9 34 5 27 3 53 -6 80 -26 77 -10 270 21 245 7 -6 11 -18
8 -28 -3 -12 2 -17 19 -17 13 -1 36 -4 51 -8 19 -5 26 -4 22 2 -3 7 0 8 9 5
23 -9 20 9 -4 26 -23 17 -26 36 -6 43 10 4 17 -3 21 -23 4 -17 10 -32 15 -35
12 -7 190 -13 190 -6 0 4 -10 12 -21 19 -15 10 -24 11 -32 3 -6 -6 -15 -11
-19 -11 -13 0 -9 28 5 33 14 6 -54 77 -75 77 -10 0 -9 3 2 10 13 9 13 11 0 20
-13 9 -13 11 -1 19 12 7 12 13 3 24 -7 7 -9 17 -5 20 3 4 2 7 -4 7 -5 0 -10
14 -11 30 0 17 4 28 9 25 5 -4 9 3 9 14 0 12 5 22 10 22 6 1 15 2 22 3 7 0 15
15 18 32 9 39 19 56 31 49 5 -3 6 1 3 9 -10 25 5 19 17 -6 8 -19 9 -15 5 20
-3 28 -1 40 6 35 7 -3 8 -1 4 5 -4 7 0 27 10 44 31 60 34 68 34 85 0 15 -2 15
-14 -2 -27 -39 -56 -96 -56 -110 0 -8 -4 -15 -8 -15 -5 0 -13 -12 -20 -27
l-12 -28 5 28 c8 39 0 34 -24 -18 -19 -40 -51 -62 -51 -35 0 6 4 10 8 10 4 0
14 15 20 34 7 19 18 36 25 39 7 3 35 40 61 83 53 88 108 136 174 152 53 12 54
7 3 -14 -46 -18 -96 -70 -96 -99 0 -11 -5 -27 -12 -36 -7 -8 -15 -38 -18 -65
-2 -27 -2 -41 1 -31 6 20 24 23 24 5 1 -7 10 10 22 37 12 28 25 52 28 55 3 3
16 19 29 35 13 17 21 22 18 13 -5 -15 -1 -18 23 -18 22 0 30 -5 30 -17 0 -15
2 -16 10 -3 8 12 10 10 10 -9 0 -23 1 -24 13 -6 10 13 16 15 21 6 5 -8 13 -5
25 10 l17 21 43 -41 c24 -23 49 -40 55 -38 6 2 20 -8 30 -21 19 -23 20 -24 27
-6 7 18 8 18 9 -1 1 -18 2 -17 11 4 7 19 6 27 -4 33 -22 12 -9 58 15 58 17 0
20 5 15 30 -5 23 -3 28 8 24 19 -8 31 -47 16 -52 -15 -5 -13 -33 4 -56 20 -26
21 -53 2 -37 -15 12 -27 5 -27 -15 0 -8 6 -11 15 -8 9 4 15 1 15 -7 0 -52 61
134 75 231 3 23 10 51 15 63 13 30 6 -180 -7 -213 -6 -14 -13 -50 -16 -80 -6
-49 -5 -53 8 -36 11 15 15 16 19 5 22 -68 27 -96 29 -152 1 -43 5 -60 11 -50
4 8 6 37 4 64 -3 27 -3 51 0 54 3 3 21 -9 40 -27 31 -30 34 -31 27 -10 -6 22
-5 23 16 11 31 -16 54 -45 80 -99 11 -25 28 -54 38 -64 12 -15 13 -17 1 -11
-12 7 -11 3 3 -18 9 -14 17 -33 17 -42 0 -8 5 -15 11 -15 5 0 7 -4 4 -10 -3
-5 -1 -10 4 -10 6 0 11 -6 11 -13 0 -7 9 -23 20 -35 11 -12 20 -36 21 -54 0
-18 4 -41 8 -52 7 -17 8 -17 24 -2 16 16 22 42 18 74 -1 7 4 12 11 11 31 -5
54 12 120 90 20 24 34 31 62 31 30 0 36 -4 36 -21 0 -11 4 -17 10 -14 6 3 10
15 10 26 0 10 5 19 10 19 14 0 13 -19 -6 -81 -38 -128 -67 -195 -110 -254 -60
-85 -100 -118 -135 -113 -26 4 -29 1 -40 -46 -7 -28 -23 -82 -37 -121 -21 -61
-24 -82 -19 -160 2 -49 1 -79 -3 -65 -6 19 -8 12 -9 -31 -1 -60 11 -83 47 -92
22 -5 23 -3 20 46 -3 49 -2 52 22 52 20 0 26 7 33 37 11 48 33 56 41 16 4 -20
1 -37 -8 -47 -7 -9 -17 -26 -20 -38 -4 -13 -13 -23 -20 -23 -6 0 -13 -15 -14
-33 -6 -76 -23 -112 -81 -167 -34 -32 -75 -61 -98 -69 -23 -7 -53 -24 -68 -37
-34 -29 -75 -30 -134 -4 -59 27 -126 26 -185 -4 -27 -13 -58 -27 -71 -30 -35
-9 -95 21 -145 73 -33 34 -60 51 -100 63 -65 20 -107 61 -165 158 -22 36 -66
97 -100 135 -33 39 -70 84 -83 100 l-22 30 -27 -31 c-30 -34 -84 -65 -202
-118 -58 -26 -100 -37 -176 -46 -55 -6 -116 -18 -135 -28 -64 -33 -225 -134
-240 -150 -8 -10 -43 -41 -77 -70 -59 -52 -74 -75 -88 -137 -10 -46 -21 -13
-29 85 -3 47 -13 184 -22 305 -8 121 -17 222 -20 224 -2 2 -4 -152 -4 -343 l0
-347 1498 1 1497 2 2 383 3 384 -46 7 c-42 6 -84 4 -336 -13 -110 -7 -163 1
-152 25 4 9 18 49 31 87 14 41 37 85 58 108 23 26 37 54 44 90 24 120 39 222
34 231 -4 5 -1 6 4 3 6 -4 14 0 17 9 3 8 10 13 15 10 5 -3 12 4 16 17 3 12 8
17 11 11 6 -15 64 39 64 60 0 9 6 16 14 16 9 0 13 -8 10 -22 -4 -16 -1 -14 9
7 8 17 13 41 11 55 -1 14 -3 36 -3 49 -1 16 -5 21 -16 17 -12 -4 -14 0 -11 20
3 13 -2 41 -10 60 -10 23 -12 40 -5 47 12 16 16 67 6 90 -4 10 -3 29 3 41 12
27 -3 83 -32 115 -13 15 -14 20 -4 24 10 4 10 8 -2 16 -11 7 -19 4 -32 -17
-12 -18 -18 -22 -18 -11 0 9 -7 30 -16 48 -14 28 -14 34 -1 49 8 9 12 24 10
32 -22 70 -65 122 -132 157 -34 18 -77 53 -65 53 3 0 28 -11 54 -24 27 -13 51
-22 54 -18 4 3 12 -9 18 -26 7 -18 17 -32 23 -32 6 0 25 -24 43 -52 27 -43 32
-47 26 -23 -4 17 -9 34 -12 39 -12 22 -14 71 -6 146 3 32 1 65 -5 80 -10 22
-11 23 -7 3 6 -35 -8 -27 -29 15 -29 57 -30 59 -3 34 l25 -23 -4 26 c-3 14 -9
28 -14 31 -20 12 -8 34 19 34 23 1 25 2 11 13 -8 7 -18 20 -22 31 -7 17 -9 17
-30 3 -20 -13 -25 -12 -59 12 -21 14 -42 38 -47 54 -11 30 -9 32 20 17 10 -6
19 -9 19 -6 0 6 -93 64 -110 68 -18 4 -39 28 -40 46 0 18 34 14 62 -8 l25 -19
-1 22 c-1 26 -42 49 -74 42 -13 -3 -30 -1 -38 6 -12 10 -13 9 -8 -5 3 -9 2
-16 -2 -16 -5 0 -22 -11 -38 -25 -16 -14 -32 -25 -35 -25 -3 0 -13 -15 -20
-32 -8 -18 -21 -39 -28 -47 -12 -12 -15 -10 -20 8 -6 23 -23 29 -23 9 0 -8 -5
-5 -11 4 -5 10 -20 17 -33 16 -18 -2 -22 -7 -19 -23 4 -16 3 -17 -6 -5 -6 8
-11 11 -12 5 0 -5 -5 3 -9 19 -7 21 -5 32 6 43 16 16 19 33 5 33 -5 0 -11 -9
-14 -20 -3 -11 -10 -20 -17 -20 -6 0 -8 5 -5 10 3 6 -3 10 -14 10 -11 0 -24 8
-30 18 -11 20 -61 24 -61 4 0 -10 -4 -9 -17 4 -11 11 -18 13 -21 5 -6 -19 -20
-13 -58 27 -20 20 -33 29 -30 20 4 -13 0 -18 -16 -18 -20 0 -20 -1 -5 -18 10
-10 17 -22 17 -27 0 -5 8 -18 17 -29 9 -12 -4 0 -30 27 -53 52 -85 65 -38 15
29 -31 35 -51 9 -31 -20 15 -81 16 -72 2 5 -9 2 -10 -12 -4 -33 14 -137 35
-176 35 -21 0 -38 5 -38 11 0 7 19 10 52 7 34 -2 52 1 55 10 3 6 -1 12 -9 12
-14 0 -39 45 -30 55 3 3 19 -7 36 -22 20 -18 24 -20 12 -5 -16 18 -16 22 -4
22 8 0 23 -9 33 -20 10 -11 32 -24 49 -29 17 -4 30 -13 29 -19 -2 -6 4 -9 11
-6 29 11 2 48 -42 58 -23 6 -42 13 -42 17 0 7 62 -4 95 -16 19 -7 18 -6 -2 13
-13 13 -29 20 -40 16 -10 -3 -2 4 17 16 l35 21 -44 -6 c-34 -4 -42 -3 -38 8 4
11 -4 13 -35 11 -46 -4 -65 -14 -27 -14 13 0 31 -5 39 -11 11 -8 5 -9 -25 -5
-22 3 -41 10 -43 16 -2 5 -12 10 -22 10 -10 0 -22 5 -25 10 -11 18 -89 10
-150 -16z m303 -203 c45 -23 82 -43 82 -46 0 -2 -7 -1 -17 2 -11 4 -14 3 -9
-5 5 -8 2 -10 -9 -5 -14 5 -14 8 -3 15 10 7 8 8 -5 4 -10 -3 -31 1 -47 9 -16
8 -37 15 -47 14 -10 0 0 -8 22 -18 101 -45 156 -73 151 -78 -2 -3 -31 7 -63
22 -43 20 -79 28 -138 32 -124 7 -157 6 -165 -7 -5 -8 -10 -9 -14 -2 -3 6 -2
13 4 17 6 3 -1 17 -17 31 -24 22 -37 28 -55 25 -5 0 -8 4 -8 9 0 13 111 13
145 0 17 -7 32 -7 43 0 16 9 16 9 0 10 -9 0 -20 5 -24 12 -15 24 92 -1 174
-41z m483 -382 c49 -35 171 -158 173 -174 1 -5 18 -45 39 -89 44 -92 59 -166
33 -166 -18 0 -21 -22 -6 -50 5 -10 12 -40 15 -66 4 -26 8 -51 11 -56 3 -4 0
-8 -7 -8 -6 0 -9 -8 -6 -20 3 -11 2 -18 -3 -15 -12 7 -19 45 -9 45 5 0 9 7 9
15 0 8 -7 15 -15 15 -21 0 -55 72 -37 77 6 3 12 9 12 14 0 6 -4 8 -9 5 -5 -3
-9 22 -8 57 0 49 -6 75 -30 127 -37 79 -119 171 -135 149 -8 -11 -9 -11 -4 3
3 11 -5 25 -22 38 -18 14 -23 23 -15 26 10 4 10 11 -2 27 -8 12 -15 26 -15 32
0 5 4 4 9 -4 6 -8 11 -10 15 -3 4 6 -9 18 -29 28 -37 17 -43 24 -22 24 8 0 34
-14 58 -31z m-118 -44 c11 0 127 -115 127 -126 0 -4 -8 -6 -17 -2 -14 5 -12 0
6 -20 26 -28 53 -38 31 -12 -7 9 -11 18 -8 20 19 20 41 -73 29 -123 -6 -21 -7
-20 -26 15 -29 55 -95 130 -145 165 -19 14 -20 16 -5 11 18 -6 19 -5 5 13 -11
15 -11 16 0 7 8 -7 20 -13 27 -13 16 0 -9 26 -50 53 -33 21 -37 43 -4 25 12
-7 25 -12 30 -13z m-673 -194 c0 -5 -7 -17 -16 -26 -24 -23 -8 -32 18 -10 30
24 -38 -42 -77 -75 -49 -41 -119 -131 -149 -190 -30 -59 -52 -87 -61 -78 -3 3
6 23 20 43 28 42 24 63 -5 28 -10 -13 -23 -23 -29 -23 -6 0 -11 -4 -11 -10 0
-5 -6 -10 -14 -10 -8 0 -16 -7 -20 -15 -3 -8 -10 -15 -15 -15 -14 0 44 100 83
142 18 20 31 40 27 44 -3 4 2 4 12 1 11 -4 16 -3 12 3 -7 12 94 122 105 115 5
-3 11 2 14 11 4 10 2 13 -6 8 -7 -4 -8 -3 -4 5 4 6 12 9 17 6 5 -4 12 1 15 9
3 9 10 13 15 10 5 -3 21 4 35 15 30 24 34 25 34 12z"/>
<path d="M1640 1355 c-48 -22 -84 -56 -68 -66 8 -5 5 -13 -12 -27 l-24 -19 37
-5 c35 -4 41 1 38 28 -1 6 10 19 23 27 24 16 25 15 45 -18 l20 -35 81 5 c45 2
86 10 93 17 61 56 -139 135 -233 93z"/>
<path d="M1185 703 c4 -10 13 -37 20 -60 7 -23 22 -54 33 -70 26 -37 103 -75
161 -80 33 -2 40 -1 26 6 -11 5 -23 7 -28 4 -4 -2 -10 3 -13 11 -3 9 -15 16
-26 16 -11 0 -16 4 -13 11 4 6 13 8 21 5 8 -3 14 -1 14 4 0 5 -8 11 -17 13
-10 2 -4 3 12 2 17 -1 66 8 110 20 l80 23 -75 -5 c-55 -3 -71 -2 -60 6 12 8 7
11 -23 11 -39 0 -83 19 -164 70 -54 34 -68 37 -58 13z"/>
</g>
</svg>
