<?xml version="1.0" standalone="no"?>
<!DOCTYPE svg PUBLIC "-//W3C//DTD SVG 20010904//EN"
 "http://www.w3.org/TR/2001/REC-SVG-20010904/DTD/svg10.dtd">
<svg version="1.0" xmlns="http://www.w3.org/2000/svg"
 width="2880.000000pt" height="1800.000000pt" viewBox="0 0 2880.000000 1800.000000"
 preserveAspectRatio="xMidYMid meet">
<metadata>
Created by potrace 1.13, written by Peter Selinger 2001-2015
</metadata>
<g transform="translate(0.000000,1800.000000) scale(0.100000,-0.100000)"
fill="#000000" stroke="none">
<path d="M0 11186 c0 -6044 2 -6815 15 -6826 8 -7 15 -19 15 -27 0 -9 -6 -13
-15 -9 -13 5 -15 -239 -15 -2159 l0 -2165 14400 0 14400 0 0 5010 c0 4443 -2
5009 -15 5004 -10 -4 -15 0 -15 10 0 9 7 19 15 22 12 5 14 27 12 121 -2 100
-4 116 -21 125 -10 6 -27 19 -37 29 -11 11 -22 19 -25 19 -3 0 -17 14 -31 30
-23 28 -53 40 -53 22 0 -11 52 -68 66 -73 8 -3 9 -12 3 -27 -8 -22 -9 -22 -41
-6 -52 27 -128 104 -128 131 0 21 16 27 30 13 3 -3 17 -13 32 -23 39 -25 37 2
-2 28 -16 11 -31 27 -32 35 -3 12 -8 10 -26 -8 l-22 -22 -28 25 c-15 14 -30
25 -34 25 -5 0 -8 6 -8 13 0 8 -12 19 -26 26 -15 6 -24 14 -21 17 3 4 -3 16
-14 27 -11 12 -18 26 -15 33 2 6 1 16 -3 23 -5 8 -10 -2 -14 -25 -5 -31 -2
-41 18 -60 14 -13 25 -26 25 -29 0 -3 11 -17 25 -31 14 -14 25 -29 25 -34 0
-6 7 -10 15 -10 8 0 15 -4 15 -9 0 -5 -7 -11 -15 -15 -8 -3 -15 -1 -15 4 0 4
-13 11 -30 15 -16 4 -30 12 -30 18 0 7 -17 17 -37 24 -21 6 -46 15 -55 18 -12
5 -18 2 -18 -7 0 -16 42 -42 82 -52 15 -3 29 -14 32 -24 4 -10 21 -24 39 -30
116 -40 127 -45 141 -73 8 -15 11 -30 8 -33 -9 -9 -42 -7 -42 3 0 11 -81 20
-99 11 -24 -12 6 -22 82 -28 72 -5 113 -27 97 -52 -9 -14 -46 -8 -43 7 3 17
-46 22 -61 7 -16 -15 -50 -11 -74 8 -12 10 -14 10 -8 1 4 -7 2 -13 -3 -13 -6
0 -11 -4 -11 -10 0 -5 7 -10 15 -10 8 0 15 -6 15 -14 0 -20 -66 -26 -85 -7 -8
8 -15 10 -15 4 0 -12 -64 -25 -85 -17 -7 3 -16 17 -20 31 -5 21 -10 24 -30 19
-25 -6 -30 0 -19 28 5 12 10 13 25 5 16 -8 19 -6 19 15 0 14 -5 28 -11 32 -6
3 -8 15 -6 26 3 10 1 33 -3 50 -7 21 -5 41 5 64 15 38 10 42 -23 18 -24 -17
-29 -43 -10 -62 8 -8 9 -12 1 -12 -6 0 -13 5 -15 12 -3 7 -12 4 -27 -11 -17
-17 -20 -25 -11 -36 6 -8 17 -12 25 -9 7 3 20 -5 29 -18 20 -28 4 -37 -21 -12
-17 17 -18 17 -21 -4 -2 -12 -8 -22 -14 -22 -6 0 -8 9 -5 19 3 13 -1 21 -14
24 -12 3 -19 14 -19 29 -1 18 -3 20 -9 8 -5 -8 -8 -30 -7 -48 2 -25 -2 -32
-16 -32 -10 0 -18 -4 -18 -10 0 -30 -63 12 -102 68 -8 12 -25 25 -37 27 -18 3
-21 0 -19 -22 2 -15 -3 -28 -11 -31 -8 -2 -11 0 -8 5 3 5 8 28 10 51 5 39 4
41 -15 31 -11 -6 -20 -9 -21 -7 -1 2 -7 13 -14 24 -9 16 -9 24 0 33 8 8 8 14
-1 23 -14 14 -26 -15 -35 -79 -5 -40 7 -54 24 -29 10 13 29 -3 29 -24 0 -10
-7 -20 -15 -24 -8 -3 -15 -1 -15 4 0 5 -10 9 -22 7 -14 -1 -26 6 -33 20 -7 13
-15 20 -20 15 -4 -4 -5 4 -1 18 18 68 19 80 3 80 -8 0 -17 -6 -20 -13 -6 -17
3 -108 14 -129 6 -11 5 -18 -4 -21 -8 -4 -7 -6 3 -6 9 -1 21 -16 28 -33 10
-27 14 -30 22 -18 9 13 10 13 11 0 1 -8 1 -18 0 -22 0 -5 10 -8 24 -8 29 0 33
-15 8 -25 -20 -7 -29 -4 -25 8 1 4 -5 7 -13 7 -8 0 -15 3 -15 8 0 4 -11 8 -25
8 -14 1 -25 -2 -25 -7 0 -6 -8 -5 -19 1 -25 13 -31 13 -31 0 0 -5 7 -10 16
-10 8 0 12 -5 9 -10 -3 -6 7 -18 24 -28 33 -18 40 -37 17 -45 -15 -6 -46 22
-46 42 0 8 -10 6 -32 -6 l-33 -17 35 -10 c45 -14 44 -46 0 -46 -22 0 -28 -4
-24 -15 7 -18 55 -20 72 -3 9 9 15 9 24 0 9 -9 8 -12 -4 -12 -8 0 -21 -7 -28
-15 -17 -20 -70 -20 -70 0 0 8 -6 15 -13 15 -18 0 -39 57 -23 64 8 3 8 5 -1 5
-6 1 -15 -3 -18 -9 -4 -6 -13 -5 -24 2 -24 15 -53 4 -44 -17 4 -11 13 -15 28
-11 17 4 27 -1 39 -19 9 -14 14 -30 11 -35 -3 -6 -1 -10 6 -10 7 0 9 -3 6 -7
-4 -3 -18 4 -31 16 -33 31 -47 19 -43 -35 3 -35 0 -44 -11 -39 -7 3 -24 5 -36
5 -12 0 -32 9 -44 20 -12 11 -25 21 -29 21 -5 1 -14 4 -21 6 -7 3 -19 0 -27
-7 -7 -6 -38 -11 -67 -10 -92 3 -98 2 -98 -20 0 -11 5 -20 10 -20 14 0 12 -57
-2 -66 -6 -4 -14 -2 -16 4 -2 7 -11 12 -20 12 -9 0 -29 12 -43 28 -115 121
-137 132 -126 68 3 -17 3 -25 0 -18 -2 6 -14 12 -25 12 -17 0 -18 -3 -8 -15 7
-8 18 -15 25 -15 6 0 20 -9 30 -20 10 -11 25 -20 33 -20 10 0 12 -7 8 -24 -3
-13 -2 -26 4 -28 5 -2 6 -9 1 -16 -11 -19 -42 13 -34 34 5 13 1 15 -15 10 -12
-3 -31 -9 -42 -12 -21 -6 -28 -24 -9 -24 6 0 24 -9 40 -21 31 -21 39 -59 14
-59 -8 0 -15 5 -15 10 0 13 -98 11 -106 -2 -3 -4 -13 -8 -24 -8 -21 0 -32 -21
-20 -39 4 -8 -2 -23 -16 -38 -20 -21 -30 -25 -59 -20 -26 4 -38 2 -42 -8 -4
-13 -60 -14 -382 -10 -383 5 -1017 14 -1351 20 -102 2 -729 6 -1395 10 -1092
6 -1213 5 -1245 -9 l-35 -16 68 3 c37 2 70 0 73 -5 3 -4 -29 -8 -70 -8 -65 0
-76 -2 -76 -17 0 -13 -3 -14 -12 -5 -7 7 -42 12 -93 11 -44 0 -74 -3 -67 -6
20 -8 14 -23 -9 -23 -14 0 -19 5 -16 14 7 18 -34 30 -45 13 -8 -12 -21 0 -32
28 -2 6 -14 -2 -27 -17 -23 -26 -30 -28 -103 -28 -65 0 -77 -2 -72 -15 4 -10
-1 -15 -14 -15 -24 0 -27 25 -4 34 9 3 27 6 40 6 14 0 22 4 19 10 -7 11 -74
14 -99 4 -8 -3 -12 -12 -9 -19 3 -9 -7 -17 -29 -23 -25 -6 -34 -5 -36 5 -2 7
-8 13 -14 13 -6 0 -8 13 -6 30 4 27 2 30 -24 30 -21 0 -28 -5 -28 -20 0 -18
-7 -20 -55 -20 -41 0 -55 4 -55 15 0 35 -92 39 -111 4 -5 -11 -20 -19 -34 -19
-14 0 -25 -4 -25 -10 0 -16 -37 -12 -44 5 -3 9 3 24 14 35 11 11 20 24 20 29
0 15 -81 18 -96 4 -19 -19 -24 -16 -24 17 0 38 -13 38 -46 0 -15 -16 -35 -32
-45 -35 -11 -4 -19 -12 -19 -20 0 -7 -15 -16 -32 -19 -18 -4 -45 -9 -60 -13
-16 -3 -28 -1 -28 4 0 5 -16 7 -35 5 -19 -2 -35 -8 -35 -13 0 -5 -11 -9 -25
-9 -14 0 -36 -7 -50 -16 -18 -12 -28 -13 -44 -4 -30 16 -88 2 -140 -32 -31
-21 -47 -26 -54 -19 -6 6 -24 11 -39 11 -18 0 -28 5 -28 15 0 8 7 15 15 15 32
0 65 31 65 61 0 27 -3 29 -37 28 -55 -1 -74 -11 -92 -49 -22 -46 -46 -53 -38
-11 6 31 6 31 -38 31 -34 0 -51 -6 -74 -28 -24 -22 -28 -31 -19 -40 6 -6 10
-13 7 -14 -54 -34 -72 -40 -80 -27 -5 8 -9 10 -9 4 0 -5 -5 -3 -10 5 -8 13
-12 13 -32 1 -16 -10 -23 -10 -26 -2 -7 21 -22 11 -22 -14 0 -20 -9 -29 -45
-46 -34 -16 -45 -27 -45 -44 0 -38 -11 -55 -34 -55 -12 0 -31 -6 -42 -14 -12
-9 -23 -11 -30 -5 -8 6 -24 4 -47 -7 -32 -15 -35 -21 -30 -46 5 -26 3 -28 -26
-28 -24 0 -31 -4 -31 -20 0 -25 -29 -38 -40 -20 -5 7 -4 24 1 37 5 13 6 46 3
74 -4 30 -2 49 4 49 6 0 2 22 -9 50 -10 28 -19 68 -19 90 0 22 -4 48 -10 58
-9 16 -29 63 -62 147 -9 22 -19 63 -22 90 -4 28 -13 88 -21 135 -15 85 -34
270 -54 518 -8 93 -8 147 0 182 13 59 9 75 -17 75 -16 0 -19 8 -22 55 -1 30
-8 65 -14 78 -9 17 -9 40 0 95 7 49 8 85 1 112 -12 52 -12 226 1 239 6 6 10
16 10 22 0 14 52 95 86 134 158 181 154 176 154 187 0 4 18 27 39 49 30 33 39
52 44 90 6 54 42 144 57 144 6 0 10 5 10 10 0 10 37 68 51 80 3 3 14 21 25 40
23 42 32 50 61 50 22 0 73 46 73 66 0 13 55 54 73 54 8 0 20 7 27 15 16 19 59
19 102 1 52 -22 171 -56 195 -56 12 0 25 -4 28 -10 10 -16 45 -12 39 4 -3 8 6
36 20 62 14 27 28 61 31 75 3 14 21 42 38 61 l32 36 53 -10 c32 -7 52 -16 52
-24 0 -20 14 -17 56 11 44 30 58 32 45 6 -8 -14 -6 -22 8 -35 28 -26 40 -19
43 27 3 39 5 42 36 45 30 3 38 -4 33 -31 -1 -4 6 -7 15 -5 9 2 21 -6 28 -16
19 -33 45 -55 71 -62 14 -3 25 -12 25 -19 0 -20 17 -27 38 -16 21 11 44 1 34
-15 -4 -6 -14 -13 -22 -16 -10 -4 -6 -8 13 -13 17 -5 27 -14 27 -26 0 -10 7
-19 15 -19 8 0 15 5 15 10 0 6 7 10 15 10 9 0 15 -10 15 -26 0 -18 4 -25 14
-21 7 3 23 -1 35 -9 19 -14 21 -13 21 0 0 9 9 16 20 16 22 0 27 15 8 23 -9 4
-7 6 3 6 23 1 49 -31 49 -62 0 -15 5 -27 11 -27 5 0 7 5 4 10 -3 6 -1 10 5 10
6 0 10 8 8 18 -2 11 4 18 20 20 12 2 22 8 22 13 0 14 48 11 53 -3 4 -10 6 -10
6 0 1 15 64 16 92 2 13 -8 19 -7 19 0 0 7 8 9 19 5 25 -8 35 9 19 34 -16 26
-12 29 51 34 43 4 57 1 72 -14 13 -13 33 -19 62 -19 24 0 48 -5 55 -12 10 -10
112 -30 112 -21 0 1 -18 12 -39 23 -22 10 -41 25 -44 32 -4 10 -6 10 -6 1 -1
-20 -31 -3 -31 18 0 23 48 27 56 4 7 -18 64 -21 64 -2 -1 21 -28 50 -42 44 -9
-3 -14 3 -14 14 0 13 7 19 23 19 16 0 21 4 17 15 -4 9 0 15 7 15 8 0 25 9 38
19 l23 18 -31 12 c-17 8 -42 10 -55 7 -14 -3 -27 -2 -31 4 -3 5 -18 9 -33 9
-64 1 -72 4 -66 28 5 19 2 23 -15 23 -12 0 -21 6 -21 15 0 11 -11 15 -40 15
-27 0 -43 5 -46 15 -4 8 -14 15 -23 15 -29 1 -54 27 -48 51 5 20 3 21 -39 16
-24 -2 -47 0 -50 5 -3 5 -19 6 -35 3 -17 -4 -29 -2 -29 4 0 5 12 11 28 13 20
2 28 9 30 28 2 14 12 33 23 43 33 31 25 32 -83 11 -21 -4 -34 2 -63 30 -39 38
-50 43 -60 26 -3 -6 3 -14 15 -18 17 -6 18 -10 8 -23 -17 -21 -98 -14 -98 7 0
9 -12 14 -35 14 -24 0 -35 5 -35 15 0 22 -15 18 -45 -9 -19 -18 -38 -25 -66
-24 -21 0 -39 4 -39 9 0 28 -95 16 -127 -17 -17 -17 -18 -17 -21 5 -2 14 5 30
19 41 16 15 19 23 11 33 -8 10 -6 16 9 26 12 7 18 19 15 27 -3 8 1 14 9 14 8
0 24 9 36 21 l21 21 -30 -7 c-30 -6 -30 -5 -23 22 5 18 15 29 29 31 12 2 22
10 22 18 0 8 5 14 10 14 6 0 10 5 10 10 0 6 -7 10 -15 10 -18 0 -19 12 -3 28
9 9 7 12 -10 12 -12 0 -22 2 -22 5 0 14 34 55 45 55 8 0 23 12 35 27 19 24 19
28 5 33 -9 3 -31 4 -50 2 -30 -4 -33 -7 -38 -44 -5 -40 -22 -61 -42 -54 -5 2
-10 13 -9 25 1 23 -4 25 -25 12 -8 -5 -11 -16 -7 -29 5 -15 0 -25 -16 -36 -13
-10 -24 -12 -26 -6 -5 15 -28 12 -42 -5 -8 -10 -9 -15 -2 -15 6 0 9 -7 6 -15
-5 -12 -9 -12 -29 3 -18 13 -22 24 -18 45 4 20 2 27 -11 27 -9 0 -15 3 -15 8
1 4 1 18 0 31 l-1 24 -22 -20 c-26 -24 -78 -21 -78 3 0 8 -4 14 -10 14 -5 0
-10 7 -10 15 0 8 5 15 12 15 6 0 8 3 4 7 -7 8 -12 9 -53 11 -16 2 -23 8 -23
22 0 22 -28 28 -47 9 -8 -8 -13 -8 -17 0 -4 6 -2 11 3 11 6 0 11 7 11 15 0 10
-10 15 -27 15 -39 1 -78 60 -57 87 17 23 17 33 0 33 -8 0 -20 -13 -28 -30 -7
-16 -19 -30 -25 -30 -20 0 -15 28 5 34 17 6 62 80 62 103 0 6 7 16 15 23 8 7
15 25 15 39 0 19 12 38 36 60 33 28 43 32 88 29 44 -3 51 -6 54 -25 4 -26 -13
-31 -26 -7 -8 15 -10 15 -15 0 -5 -14 -11 -15 -27 -6 -12 6 -20 7 -20 1 0 -5
9 -13 21 -16 11 -4 24 -18 29 -31 11 -28 22 -30 44 -9 8 8 24 15 35 15 11 0
23 5 26 10 4 6 11 8 16 5 5 -4 9 5 9 19 0 19 -5 26 -19 26 -10 0 -24 7 -31 15
-7 8 -19 15 -26 15 -8 0 -14 7 -14 15 0 9 9 15 25 15 16 0 25 6 25 15 0 9 9
15 25 15 17 0 25 -5 24 -17 0 -11 -3 -13 -6 -5 -2 6 -12 12 -21 12 -12 0 -5
-11 21 -37 29 -27 38 -42 34 -60 -3 -17 5 -33 29 -57 18 -18 35 -28 37 -22 2
6 -2 16 -9 23 -7 7 -10 22 -7 33 5 18 7 18 34 5 27 -15 59 -20 59 -10 0 11
-35 45 -47 45 -7 0 -13 5 -13 10 0 6 7 10 15 10 8 0 15 -4 15 -10 0 -5 7 -10
15 -10 9 0 18 -7 21 -15 4 -8 15 -15 26 -15 16 0 19 4 13 23 -4 12 -7 30 -6
40 0 9 -4 15 -9 12 -5 -3 -11 -1 -15 5 -7 11 34 14 59 4 19 -7 21 -40 4 -47
-10 -4 -10 -6 0 -6 22 -1 45 28 45 57 0 15 6 32 14 37 8 6 14 20 12 30 -5 25
-29 32 -29 8 0 -16 -8 -19 -50 -19 -27 0 -50 3 -50 8 0 4 12 8 28 8 15 0 35 7
45 15 18 13 18 14 -2 32 -25 21 -26 29 -7 36 8 3 26 -4 40 -16 20 -18 35 -21
71 -19 37 3 44 7 35 17 -6 8 -21 15 -32 17 -12 2 -23 9 -26 16 -5 15 30 16 45
1 8 -8 18 -6 37 6 32 22 34 39 2 31 -16 -4 -32 2 -52 19 -16 14 -35 25 -41 25
-20 0 -15 44 6 57 13 8 18 19 14 33 -3 11 0 20 6 20 6 0 11 7 11 16 0 11 -6
14 -17 11 -70 -23 -93 -33 -93 -40 0 -8 -55 0 -73 10 -4 2 4 18 18 35 14 16
25 36 25 44 0 23 -26 16 -38 -12 -7 -14 -16 -23 -21 -19 -5 3 -12 1 -16 -5
-12 -19 -38 -11 -32 10 6 23 -11 28 -19 5 -3 -8 -14 -17 -25 -20 -10 -4 -19
-14 -19 -24 0 -18 -18 -41 -32 -41 -4 0 -8 7 -8 15 0 8 -7 15 -15 15 -8 0 -15
5 -15 10 0 6 -7 10 -15 10 -8 0 -15 -5 -15 -12 0 -6 -6 -3 -14 8 -10 13 -11
23 -4 31 15 19 48 16 48 -3 0 -14 3 -14 15 -4 8 7 15 17 15 23 0 15 -33 36
-57 37 -13 0 -23 4 -23 9 0 6 -15 11 -32 13 -41 4 -44 28 -5 46 32 16 33 23 8
46 -12 11 -27 15 -39 11 -11 -3 -23 -1 -27 5 -3 5 -1 10 4 10 6 0 11 7 11 16
0 14 -7 15 -37 11 -21 -4 -39 -11 -41 -17 -2 -5 -15 -10 -28 -10 -18 0 -24 5
-24 20 0 18 -4 20 -35 14 -31 -5 -35 -4 -35 14 0 30 -22 32 -48 4 -19 -20 -26
-22 -33 -11 -6 9 -4 15 6 17 8 2 15 10 15 18 0 16 -45 20 -55 4 -3 -5 -13 -10
-21 -10 -17 0 -19 36 -1 43 6 3 -7 6 -30 6 -23 1 -43 6 -45 13 -3 9 -12 9 -36
-1 -28 -12 -37 -11 -68 4 -32 15 -38 15 -51 2 -14 -13 -17 -13 -34 1 -29 25
-23 42 14 42 57 0 80 44 27 52 -18 3 -31 0 -34 -9 -3 -7 -17 -13 -31 -13 -21
0 -25 4 -21 18 5 13 -1 22 -19 30 -30 14 -35 15 -34 5 3 -23 -16 -53 -33 -53
-16 0 -18 -3 -9 -14 9 -10 7 -19 -9 -37 -11 -15 -19 -19 -20 -10 0 9 -8 11
-25 7 -18 -5 -25 -2 -25 9 0 8 7 15 17 15 9 0 13 3 10 6 -8 9 -67 -16 -67 -27
0 -5 -11 -9 -25 -9 -16 0 -25 6 -25 15 0 9 9 15 24 15 13 0 27 7 30 16 9 24 1
28 -17 9 -15 -14 -17 -14 -27 6 -11 20 -12 20 -31 3 -23 -20 -25 -52 -4 -60
27 -11 17 -34 -15 -34 -20 0 -30 5 -30 15 0 11 -12 15 -45 15 -33 0 -45 4 -45
15 0 8 -7 15 -16 15 -8 0 -12 -5 -9 -10 10 -16 -5 -50 -22 -50 -9 0 -13 6 -9
15 4 10 -1 15 -14 15 -15 0 -20 -7 -20 -25 0 -23 -3 -24 -45 -22 -43 3 -45 2
-45 -25 0 -15 -5 -28 -11 -28 -5 0 -8 4 -5 8 6 10 -63 37 -83 33 -21 -4 -38
-24 -33 -39 2 -8 9 -9 22 -2 13 7 20 6 24 -6 4 -10 -1 -18 -13 -21 -11 -3 -22
-10 -24 -17 -2 -6 -3 -4 -2 6 2 11 -7 17 -29 21 -53 8 -75 -15 -41 -43 26 -22
17 -29 -32 -26 -27 2 -50 4 -52 5 -2 0 6 9 17 19 18 15 27 49 23 88 -1 14 -61
14 -61 0 0 -15 -36 -46 -53 -46 -7 0 -18 -5 -23 -10 -14 -14 -74 8 -74 27 0
11 -6 14 -23 9 -12 -3 -32 -6 -44 -6 -32 0 -28 -16 7 -32 33 -14 39 -42 14
-56 -18 -10 -16 -43 4 -50 6 -2 12 4 12 13 0 12 9 15 42 13 39 -3 69 -28 34
-28 -9 0 -19 -7 -22 -15 -4 -8 -10 -15 -15 -15 -5 0 -9 7 -9 15 0 18 -21 20
-37 4 -7 -7 -19 -8 -30 -4 -32 15 -93 15 -93 0 0 -16 -22 -25 -58 -25 -27 0
-27 1 6 16 17 9 32 22 32 29 0 7 10 19 23 28 27 18 22 24 -22 29 -38 3 -54
-16 -22 -27 12 -4 18 -12 14 -21 -4 -10 -21 -14 -61 -14 -54 0 -55 0 -38 -19
17 -19 17 -21 -4 -43 l-21 -23 62 -5 63 -5 -32 -27 c-40 -33 -48 -73 -15 -72
14 0 23 -5 23 -14 0 -8 6 -12 15 -8 11 4 15 -1 15 -19 0 -16 6 -25 15 -25 8 0
15 -4 15 -9 0 -14 -61 -10 -92 6 -17 8 -28 22 -28 34 0 31 -24 17 -28 -17 -4
-31 -17 -44 -44 -44 -12 0 -18 8 -18 25 0 26 -34 53 -45 35 -10 -17 -55 -12
-55 6 0 23 -24 11 -28 -14 -3 -18 2 -22 23 -22 14 0 28 -7 31 -15 4 -11 11
-12 24 -5 14 7 19 5 22 -8 3 -9 3 -23 1 -29 -6 -18 -33 -16 -33 2 0 8 -7 15
-15 15 -8 0 -15 -9 -15 -21 0 -13 -6 -20 -17 -18 -40 4 -83 -13 -83 -33 0 -16
-5 -19 -25 -15 -20 3 -25 0 -24 -12 3 -31 -1 -40 -16 -35 -8 4 -15 15 -15 25
0 24 -11 24 -32 0 -14 -16 -14 -20 -2 -25 20 -8 18 -23 -6 -43 -11 -10 -20
-25 -20 -35 0 -11 -5 -15 -15 -12 -8 3 -14 9 -13 12 3 26 -3 34 -16 23 -10 -8
-16 -9 -21 -1 -3 5 2 13 12 17 22 8 48 33 36 34 -4 1 -16 1 -25 0 -10 -1 -18
3 -18 9 0 6 10 11 22 10 40 -4 44 0 18 13 -33 18 -93 30 -85 18 3 -6 -4 -16
-16 -25 -13 -8 -18 -19 -14 -26 5 -8 3 -11 -6 -8 -8 3 -13 11 -12 17 2 6 -4
11 -12 11 -8 0 -15 -6 -15 -14 0 -18 -20 -25 -52 -19 -30 6 -44 29 -22 37 23
9 16 26 -11 26 -18 0 -23 -4 -19 -15 9 -22 -32 -20 -45 3 -7 13 -12 14 -22 5
-16 -16 -3 -47 16 -39 9 3 15 0 15 -10 0 -18 -24 -28 -47 -19 -10 4 -33 8 -50
10 -30 2 -33 -1 -33 -27 0 -27 -11 -34 -48 -29 -8 1 -20 -3 -28 -9 -11 -10
-11 -17 -2 -34 6 -11 11 -23 10 -26 -1 -3 10 -4 23 -2 14 2 25 -1 25 -7 0 -6
7 -11 15 -11 9 0 12 -6 9 -15 -6 -13 -8 -14 -18 -1 -11 14 -100 28 -124 19 -6
-3 -12 -18 -12 -34 0 -17 4 -28 10 -24 5 3 32 3 60 -1 48 -6 50 -8 35 -24 -9
-10 -24 -16 -34 -13 -11 3 -22 0 -25 -6 -13 -20 -46 -13 -46 10 0 14 -5 19
-14 16 -8 -3 -17 -1 -19 6 -3 9 -8 8 -18 -2 -11 -11 -11 -14 -1 -18 7 -3 16
-12 21 -21 7 -13 4 -17 -12 -19 -45 -5 -60 -10 -71 -25 -9 -12 -16 -14 -30 -6
-17 10 -18 7 -12 -33 l6 -44 -57 -3 c-68 -4 -90 -17 -70 -41 18 -22 10 -51
-14 -51 -11 0 -18 -4 -14 -9 5 -9 133 -6 143 3 7 8 32 -21 32 -38 0 -9 -4 -16
-10 -16 -5 0 -10 -6 -10 -14 0 -11 -5 -12 -24 -3 -14 7 -24 15 -23 18 2 7 -3
9 -28 9 -23 0 -18 -18 6 -22 12 -2 26 -13 30 -25 7 -20 5 -23 -17 -23 -13 0
-27 -7 -30 -15 -4 -9 -20 -16 -43 -16 -23 -1 -28 -3 -13 -6 12 -2 22 -9 22
-14 0 -5 7 -9 15 -9 8 0 15 -9 15 -19 0 -11 -7 -26 -15 -35 -17 -17 -20 -30
-5 -21 6 3 10 -3 10 -14 0 -11 6 -24 13 -28 7 -4 20 -20 30 -35 17 -28 17 -28
-5 -29 -13 -1 -38 0 -55 1 -18 1 -33 -3 -33 -9 0 -6 -6 -11 -13 -11 -9 0 -14
-13 -15 -37 -2 -81 -5 -93 -19 -93 -10 0 -11 -4 -3 -19 5 -11 10 -27 10 -36 0
-21 -41 -36 -59 -22 -11 10 -10 13 7 17 15 3 19 9 13 19 -7 11 -12 10 -29 -7
-18 -18 -18 -22 -6 -43 7 -13 17 -32 20 -41 3 -10 16 -18 28 -18 13 0 27 -12
38 -30 9 -17 24 -30 33 -30 8 0 15 -7 15 -15 0 -8 -9 -15 -21 -15 -13 0 -18
-4 -13 -12 4 -6 9 -27 11 -47 2 -19 9 -41 14 -47 6 -7 9 -23 7 -35 -3 -25 -28
-29 -111 -15 -33 6 -52 5 -60 -3 -6 -6 -27 -11 -47 -11 -19 -1 -54 -11 -77
-23 -33 -17 -40 -25 -33 -37 8 -12 10 -12 10 -1 0 7 6 11 14 8 8 -3 23 3 35
14 12 11 25 18 30 15 10 -7 71 16 71 27 0 4 9 3 19 -3 11 -5 42 -10 70 -10 28
0 51 -3 51 -7 0 -5 24 -9 53 -10 28 -2 62 -5 75 -7 12 -3 38 2 57 10 35 14 35
14 35 -11 0 -30 11 -32 33 -7 22 24 21 32 -4 32 -19 0 -19 1 -4 16 12 13 19
13 30 4 11 -9 20 -8 41 9 30 24 50 27 56 9 6 -18 -46 -68 -71 -68 -23 0 -51
-25 -51 -46 0 -8 -4 -14 -10 -14 -5 0 -10 7 -10 15 0 20 -16 19 -38 -2 -26
-25 -59 -43 -77 -43 -8 0 -15 -6 -15 -12 -1 -7 -10 -2 -21 11 -17 21 -23 22
-44 13 -16 -8 -26 -8 -31 -1 -3 6 -12 8 -19 5 -7 -2 -18 1 -24 7 -8 8 -11 7
-11 -6 0 -12 -8 -17 -30 -17 -22 0 -28 4 -24 15 4 8 10 15 15 15 5 0 8 11 7
23 -2 21 -4 23 -25 12 -13 -7 -46 -11 -73 -10 -50 3 -50 3 -50 -28 -1 -30 -2
-31 -15 -13 -12 16 -17 17 -30 6 -10 -9 -19 -9 -27 -2 -19 15 -91 19 -95 5 -3
-7 -11 -9 -20 -6 -8 3 -18 1 -22 -6 -19 -31 -91 -15 -91 21 0 5 -7 8 -15 4 -9
-3 -15 0 -15 8 0 8 -14 15 -35 18 -36 4 -51 -16 -21 -28 18 -7 10 -33 -18 -57
l-21 -18 25 7 c14 4 30 7 35 7 43 0 64 -5 69 -19 4 -11 2 -15 -7 -11 -8 3 -35
1 -62 -4 -31 -6 -51 -6 -55 0 -7 13 -55 -10 -56 -27 -1 -7 -2 -16 -3 -22 0 -5
-14 -10 -31 -10 -23 0 -30 -4 -30 -20 0 -28 22 -34 65 -20 38 13 60 6 35 -10
-13 -8 -12 -10 3 -10 9 0 17 5 17 11 0 5 4 8 9 4 5 -3 12 -1 16 5 3 5 15 10
26 10 10 0 19 5 19 10 0 6 8 10 18 10 13 0 14 2 4 9 -10 6 -9 10 7 14 12 3 21
1 21 -4 0 -5 6 -9 14 -9 17 0 28 -41 20 -77 l-5 -28 20 25 c11 14 31 38 43 53
17 21 29 27 48 24 15 -3 29 1 37 11 11 16 12 16 13 0 0 -10 -4 -18 -9 -18 -11
0 -21 -51 -13 -64 3 -5 9 1 14 13 5 16 15 21 30 19 21 -3 23 -10 29 -83 3 -44
6 -75 7 -69 1 7 11 14 22 17 20 5 28 27 10 27 -16 0 -12 47 5 54 8 3 15 12 15
21 0 8 7 15 15 15 10 0 15 -10 15 -30 0 -16 4 -30 9 -30 13 0 33 28 27 38 -3
6 1 15 9 22 20 16 20 51 1 44 -8 -3 -17 -13 -19 -22 -4 -14 -5 -14 -6 2 -1 11
-6 16 -15 13 -24 -10 -45 28 -39 72 5 39 23 59 23 26 0 -10 10 -15 27 -15 14
0 35 -8 45 -17 18 -16 21 -16 48 1 29 16 31 16 62 -1 18 -10 35 -21 36 -25 2
-5 10 -8 18 -8 8 0 14 -8 15 -17 0 -11 3 -13 6 -5 2 6 16 12 29 12 17 0 24 -6
24 -19 0 -11 -4 -22 -9 -25 -12 -8 -72 5 -66 14 2 4 -6 5 -18 3 -16 -3 -23
-12 -24 -35 -2 -29 -1 -30 32 -26 34 4 35 3 35 -29 0 -18 -4 -33 -10 -33 -5 0
-10 -7 -10 -15 0 -8 7 -15 15 -15 16 0 55 34 55 49 0 5 6 11 12 14 18 5 48 -4
48 -15 0 -5 4 -7 10 -3 15 9 -22 45 -47 45 -13 0 -23 4 -23 10 0 17 39 31 66
24 20 -5 31 -2 40 11 7 10 20 15 29 12 19 -8 20 -27 0 -27 -8 0 -15 -7 -15
-15 0 -20 20 -19 35 2 9 12 25 16 59 14 34 -1 48 2 52 14 3 8 12 15 19 15 7 0
15 7 19 15 4 10 -1 15 -14 15 -23 0 -24 1 -8 35 9 19 9 28 0 37 -17 17 -15 75
3 82 18 6 45 -2 45 -15 0 -5 7 -9 15 -9 8 0 15 5 15 10 0 6 7 10 15 10 8 0 15
7 15 17 0 15 -1 15 -18 0 -22 -20 -42 -22 -42 -4 0 26 99 85 120 72 11 -7 4
-46 -11 -55 -4 -3 -10 -18 -13 -33 -7 -38 20 -36 29 3 9 42 45 42 45 1 0 -16
-6 -32 -12 -34 -8 -3 -6 -6 5 -6 9 -1 17 -5 17 -11 0 -5 6 -10 14 -10 8 0 16
-7 20 -15 8 -23 -40 -49 -87 -48 -23 1 -47 -3 -54 -9 -10 -8 -13 -5 -13 11 0
18 -4 20 -27 15 -37 -9 -41 -13 -22 -27 8 -7 18 -20 22 -29 7 -18 27 -25 27
-9 0 9 56 25 78 22 6 -1 12 3 12 10 0 7 9 9 25 5 19 -5 32 0 53 19 21 21 34
25 60 21 42 -6 64 -27 46 -43 -20 -20 -64 -27 -64 -12 0 8 -5 6 -12 -6 -7 -11
-29 -37 -50 -57 -41 -39 -38 -56 5 -33 33 17 57 40 57 54 0 6 7 11 15 11 14 0
63 26 75 40 3 3 23 15 45 26 51 26 146 30 188 9 16 -8 38 -15 47 -15 9 0 25
-7 36 -15 10 -8 27 -15 36 -15 9 0 29 -11 43 -25 21 -22 25 -35 25 -85 0 -34
-4 -60 -10 -60 -12 0 8 -39 30 -57 8 -7 26 -16 39 -19 14 -4 35 -18 47 -31 12
-12 26 -23 32 -23 6 0 12 -4 14 -9 4 -11 106 -81 118 -81 4 0 22 -17 39 -37
46 -55 51 -62 51 -67 0 -3 14 -19 30 -36 17 -17 30 -36 30 -41 0 -6 13 -31 30
-56 16 -24 30 -46 30 -48 0 -2 14 -19 30 -37 17 -18 30 -41 30 -50 0 -10 4
-26 9 -36 5 -9 19 -42 32 -72 13 -30 27 -57 31 -61 4 -3 12 -29 18 -59 6 -30
14 -56 18 -59 17 -12 34 -92 22 -106 -8 -9 -8 -15 0 -20 14 -9 13 -52 -2 -58
-10 -3 -10 -9 -1 -28 22 -45 24 -81 24 -432 0 -349 3 -396 39 -567 5 -25 12
-63 16 -85 4 -22 10 -44 14 -50 11 -14 24 -94 21 -126 -2 -20 2 -27 15 -25 9
0 19 -5 22 -13 3 -9 0 -11 -8 -6 -10 6 -12 1 -6 -25 3 -19 12 -38 19 -42 6 -4
10 -8 7 -8 -3 0 -1 -36 5 -81 10 -82 -1 -249 -17 -249 -4 0 -8 -11 -8 -24 0
-13 -7 -29 -15 -36 -8 -7 -15 -21 -15 -30 0 -22 -54 -37 -73 -22 -13 11 -47
-7 -47 -24 0 -5 -12 -17 -26 -27 -21 -16 -38 -18 -107 -13 -51 3 -81 9 -80 15
2 6 -6 11 -17 11 -11 0 -20 4 -20 8 0 5 -23 15 -51 22 -27 8 -52 18 -55 22 -7
12 -82 10 -89 -2 -4 -6 -11 -8 -16 -5 -5 4 -15 3 -21 -2 -22 -13 -38 -12 -38
3 0 13 18 19 47 15 6 -1 14 3 17 8 3 5 15 7 26 4 13 -4 20 0 20 9 0 11 -8 13
-37 8 -51 -9 -83 -21 -83 -30 0 -4 -9 -10 -20 -13 -11 -3 -18 -1 -15 3 3 5 -3
11 -12 13 -11 2 -9 3 4 2 40 -4 35 24 -5 31 -20 4 -40 11 -44 17 -4 6 -12 4
-22 -6 -10 -10 -12 -18 -6 -22 14 -9 13 -48 -2 -63 -21 -21 -53 -13 -92 22
-22 19 -47 32 -59 31 -12 -2 -57 -8 -100 -15 -58 -10 -84 -10 -102 -2 -20 10
-25 9 -25 -3 0 -17 -45 -21 -55 -5 -3 6 -18 10 -32 10 -18 0 -24 4 -20 14 4
10 1 13 -8 9 -8 -3 -18 2 -21 11 -5 14 -9 14 -33 2 -23 -13 -29 -12 -50 5 -28
23 -61 25 -61 4 0 -9 9 -15 21 -15 13 0 19 -5 17 -16 -2 -8 -6 -14 -9 -12 -3
2 -13 -3 -22 -10 -19 -16 -31 -1 -22 28 6 18 3 20 -19 14 -23 -6 -26 -3 -26
22 0 16 -4 24 -8 17 -7 -11 -25 -16 -51 -14 -8 1 -11 8 -8 21 6 22 -3 26 -20
9 -18 -18 -46 -3 -35 18 18 31 -12 46 -86 43 -37 -1 -89 -2 -116 -1 -27 1 -55
-4 -63 -10 -10 -9 -20 -9 -39 0 -14 6 -30 9 -35 5 -19 -11 -59 6 -59 26 0 24
27 32 67 21 25 -7 33 -6 37 6 5 11 15 14 44 9 55 -9 105 -16 120 -16 35 1 58
5 62 12 3 4 18 1 33 -7 15 -7 27 -10 27 -5 0 17 30 -2 30 -19 1 -14 2 -14 13
-1 7 9 20 14 30 12 10 -2 17 3 17 12 0 12 9 15 33 13 27 -2 32 -7 32 -27 0
-22 6 -25 46 -31 25 -4 56 -13 68 -20 18 -12 23 -12 31 1 7 12 4 16 -18 18
-61 6 -72 12 -72 37 0 24 3 25 55 25 44 0 53 3 49 15 -5 12 -29 15 -127 15
-113 0 -119 1 -105 18 19 23 17 46 -5 50 -12 3 -17 -3 -17 -22 0 -30 -16 -42
-36 -25 -8 6 -17 9 -20 6 -10 -10 6 -27 27 -27 10 0 19 -7 19 -15 0 -22 -37
-18 -61 6 -17 17 -19 23 -8 30 10 6 6 9 -13 9 -17 0 -28 -5 -28 -14 0 -7 -7
-19 -15 -26 -10 -9 -15 -9 -15 -1 0 18 -77 14 -84 -5 -8 -20 -25 -9 -23 16 1
10 5 16 9 14 4 -3 8 0 8 7 0 8 12 10 40 5 22 -3 40 -4 40 -1 0 2 -19 13 -42
24 l-43 19 26 12 c21 10 26 18 25 46 0 19 -5 32 -11 31 -5 -2 -9 -16 -7 -30 3
-27 -11 -37 -23 -17 -14 23 -31 10 -27 -20 3 -23 0 -30 -13 -30 -9 0 -19 9
-22 20 -3 11 -12 20 -19 20 -8 0 -14 10 -14 25 0 23 4 25 42 25 33 0 39 3 30
12 -20 20 -14 35 16 43 15 4 21 10 15 12 -7 3 -14 17 -14 31 -1 17 -3 21 -6
10 -5 -22 -33 -24 -33 -4 0 8 -5 18 -12 22 -8 5 -9 0 -5 -15 5 -21 3 -22 -34
-17 -22 3 -45 9 -52 13 -6 4 -21 7 -32 8 -54 3 -63 6 -69 21 -5 14 -1 16 34
11 30 -4 40 -2 40 9 0 8 -7 14 -15 14 -18 0 -19 12 -3 28 9 9 9 15 1 23 -8 8
-14 5 -23 -10 -6 -12 -15 -19 -21 -16 -5 4 -9 1 -9 -4 0 -7 -29 -11 -74 -11
-76 0 -104 13 -93 43 3 8 -3 21 -13 29 -22 19 -70 20 -70 2 0 -18 -46 -18 -57
-1 -10 18 -81 29 -86 14 -6 -20 -40 2 -34 23 3 13 0 20 -9 20 -8 0 -14 -9 -14
-19 0 -22 -16 -36 -24 -23 -3 5 -18 8 -33 6 -15 -1 -35 3 -43 10 -18 16 -98
27 -106 15 -3 -5 -12 -9 -20 -9 -8 0 -12 5 -9 10 8 13 -50 13 -95 0 -22 -6
-38 -6 -44 0 -14 14 -73 12 -79 -2 -4 -10 -8 -9 -17 2 -9 11 -13 12 -17 3 -5
-14 -53 -18 -53 -5 0 4 -26 6 -57 5 -35 -2 -60 1 -64 9 -5 7 -42 13 -96 15
-48 1 -82 0 -75 -3 19 -9 14 -24 -8 -24 -11 0 -23 7 -26 15 -5 13 -30 15 -147
14 -136 0 -175 -8 -160 -32 4 -6 -2 -8 -18 -4 -13 4 -34 7 -46 7 -13 0 -23 5
-23 11 0 6 9 8 20 4 11 -3 28 -2 37 4 13 8 -16 10 -109 10 -96 -1 -128 -4
-132 -14 -3 -8 0 -16 7 -19 8 -3 8 -5 -1 -5 -15 -1 -44 24 -36 32 3 2 -215 7
-483 11 -693 9 -1015 15 -1038 20 -11 3 -598 8 -1305 11 -1807 9 -1966 12
-1976 38 -8 22 12 72 29 72 22 0 53 36 49 56 -2 11 -10 15 -23 12 -10 -3 -26
0 -34 7 -14 11 -12 15 15 28 16 8 30 21 30 28 0 16 27 19 32 4 2 -6 14 -12 28
-13 14 -1 36 -14 50 -29 28 -32 45 -35 59 -10 10 16 10 16 11 0 0 -14 9 -18
44 -18 26 0 48 -6 56 -15 7 -8 22 -15 34 -15 18 1 17 4 -14 31 -27 23 -32 32
-22 38 38 23 -30 68 -130 88 -19 3 -28 12 -28 24 0 26 26 24 58 -6 17 -16 30
-21 36 -15 13 13 -26 66 -45 63 -8 -2 -27 8 -43 22 -16 14 -34 25 -40 25 -35
1 -86 89 -62 109 7 6 19 3 34 -9 13 -11 18 -21 12 -25 -14 -8 -13 -45 1 -45 7
0 17 7 24 16 10 14 15 14 33 3 17 -11 24 -11 34 -1 9 9 8 12 -5 12 -14 0 -16
6 -11 39 8 47 -2 55 -66 52 -53 -1 -75 20 -40 39 24 13 26 45 5 54 -8 3 -15
12 -15 20 0 10 11 13 43 11 23 -2 50 -6 60 -10 12 -5 26 0 43 15 30 29 31 50
2 50 -14 0 -31 12 -43 30 -14 21 -28 30 -47 30 -16 0 -28 4 -28 9 0 5 -11 12
-25 15 -14 4 -29 14 -32 24 -3 9 -12 24 -20 34 -10 11 -11 18 -4 23 15 8 14
48 -1 63 -9 9 -5 12 20 12 18 0 32 5 32 10 0 19 -32 60 -46 60 -20 0 -17 39 4
47 27 11 40 34 40 76 1 31 -3 37 -17 35 -9 -2 -29 5 -44 15 -15 10 -27 13 -27
7 0 -5 -7 -10 -16 -10 -14 0 -14 3 -4 15 7 8 18 15 25 15 7 0 15 7 19 15 4 10
-1 15 -14 15 -23 0 -24 4 -8 30 7 10 9 23 4 27 -4 4 -12 0 -17 -10 -11 -19
-73 -22 -97 -3 -10 7 -13 6 -10 -5 3 -14 -3 -19 -24 -19 -10 0 -9 3 1 9 11 7
9 10 -8 16 -16 5 -21 14 -21 38 0 21 -7 36 -20 45 -11 7 -20 21 -20 32 0 11
-5 20 -11 20 -6 0 -1 8 12 18 35 29 19 55 -31 50 -27 -2 -40 0 -40 9 0 15 9
21 41 27 38 7 57 16 63 31 6 18 -19 45 -42 45 -9 0 -26 10 -37 23 -11 13 -28
26 -37 30 -12 4 -18 17 -18 37 0 16 -4 30 -10 30 -5 0 -10 13 -10 29 0 29 -20
47 -36 31 -15 -14 -79 4 -82 23 -2 10 3 17 12 17 20 0 21 36 1 44 -21 8 -21
92 0 100 8 3 15 14 15 23 0 21 -55 73 -76 73 -8 0 -14 5 -14 10 0 6 -8 10 -19
10 -10 0 -24 7 -31 15 -7 8 -18 15 -26 15 -7 0 -19 7 -27 15 -8 8 -28 13 -43
12 -27 -2 -29 1 -32 36 -2 24 -8 37 -18 37 -8 0 -14 6 -14 14 0 7 -12 21 -26
31 -20 13 -24 22 -20 41 7 26 -24 71 -41 61 -5 -3 -8 7 -5 22 2 16 -1 38 -7
50 -10 17 -8 23 9 33 21 14 27 38 9 38 -5 0 -8 -4 -4 -9 3 -5 1 -12 -5 -16 -5
-3 -10 1 -10 10 0 21 -24 45 -44 45 -9 0 -16 4 -16 9 0 4 -12 8 -27 8 -16 1
-37 3 -48 6 -11 3 -26 6 -32 6 -7 1 -13 6 -13 12 0 7 -10 20 -22 30 -16 15
-18 19 -5 19 8 0 17 -5 19 -11 3 -9 10 -9 26 0 25 14 31 -3 6 -17 -12 -7 -13
-11 -5 -16 7 -4 19 -2 27 5 13 11 18 10 26 -4 6 -12 20 -17 42 -15 21 1 40 -5
50 -15 10 -9 25 -17 34 -17 15 0 15 -2 2 -10 -9 -6 -10 -10 -3 -10 17 0 29 23
15 28 -7 2 -12 11 -12 19 0 13 2 13 17 2 15 -12 16 -12 10 3 -3 10 -1 20 5 24
7 4 8 -7 3 -35 -4 -27 -3 -41 4 -41 6 0 11 7 11 15 0 8 4 15 9 15 5 0 7 -8 5
-17 -4 -14 8 -23 48 -38 39 -15 54 -26 59 -45 l7 -25 1 25 c1 34 19 50 53 50
25 0 32 -8 30 -31 -2 -12 38 -42 45 -35 4 3 2 11 -4 17 -14 14 -4 56 15 64 25
9 40 -14 20 -29 -23 -17 -23 -26 2 -26 13 0 27 14 42 43 16 30 23 37 26 25 4
-22 42 -24 42 -3 0 8 -5 15 -12 15 -8 0 -7 6 4 16 18 19 40 11 31 -11 -4 -11
2 -15 22 -15 14 0 24 4 21 9 -6 10 37 31 64 31 27 0 25 -14 -5 -30 -27 -14
-24 -30 6 -30 10 0 19 -4 19 -10 0 -5 -14 -10 -30 -10 -20 0 -33 -6 -37 -17
-3 -10 -15 -26 -27 -35 -21 -17 -21 -18 12 -18 19 0 32 5 32 13 0 23 39 48 64
41 25 -6 44 10 25 22 -8 4 -7 9 2 15 11 8 11 12 -4 23 -17 13 -17 15 5 30 30
22 48 20 48 -4 0 -11 4 -20 9 -20 5 0 17 -8 27 -17 15 -16 17 -16 30 2 11 14
17 16 26 7 8 -8 8 -15 -1 -26 -10 -11 -9 -19 1 -36 11 -17 11 -22 -2 -30 -12
-7 -12 -12 -2 -22 9 -9 15 -9 24 0 7 7 20 12 30 12 10 0 18 3 18 8 -1 15 -28
43 -41 40 -7 -2 -15 5 -17 14 -2 12 5 19 22 24 28 7 57 34 37 34 -7 0 -10 4
-7 9 9 14 46 0 47 -18 1 -9 0 -32 0 -51 l-2 -35 18 28 c20 31 26 33 43 12 7
-8 16 -15 21 -15 5 0 6 7 3 15 -4 8 -13 15 -21 15 -8 0 -11 5 -8 10 3 6 15 10
26 10 12 0 19 7 19 20 0 11 5 20 10 20 6 0 10 -7 10 -15 0 -8 9 -19 21 -26
l21 -11 -22 -23 c-19 -20 -19 -23 -5 -29 32 -12 105 -7 105 8 0 19 -32 30 -41
14 -4 -7 -11 -9 -15 -5 -4 3 -1 14 7 23 11 14 11 18 -6 30 -12 9 -14 14 -5 14
7 0 26 -13 42 -30 15 -16 33 -30 38 -30 6 0 10 -7 10 -15 0 -8 7 -15 15 -15
18 0 20 19 3 21 -7 1 3 5 22 9 l35 6 -35 11 c-32 9 -33 10 -12 17 12 4 22 12
22 17 0 6 9 7 20 4 16 -5 20 -2 20 19 0 14 -4 26 -10 26 -5 0 -10 5 -10 10 0
6 8 5 20 -2 17 -11 20 -21 15 -55 -4 -34 -1 -42 13 -45 36 -7 74 5 82 26 8 19
9 19 9 -6 1 -35 18 -36 31 -2 9 22 13 24 25 14 11 -9 12 -17 5 -30 -6 -10 -10
-23 -10 -28 0 -15 32 -24 43 -13 5 5 16 7 23 4 8 -3 14 0 14 7 0 6 -3 9 -8 6
-4 -2 -15 2 -25 9 -13 9 -15 20 -11 44 4 17 9 31 11 31 12 0 53 -46 54 -60 0
-8 5 -2 11 15 8 21 8 30 -1 33 -6 2 -9 8 -5 13 3 5 23 -4 44 -21 42 -33 60
-38 60 -15 0 8 2 15 5 15 12 0 70 -33 77 -44 5 -8 8 -7 8 2 0 17 46 15 75 -4
20 -13 28 -14 40 -4 8 7 15 18 15 25 0 12 48 40 62 37 4 -1 26 8 48 19 35 19
44 20 71 9 26 -11 31 -10 44 6 12 15 14 16 15 3 0 -21 -37 -59 -59 -59 -10 0
-26 -8 -35 -19 -16 -17 -16 -19 6 -24 12 -4 25 -2 28 3 3 5 18 13 33 19 19 8
27 17 27 36 0 32 23 33 38 0 20 -44 47 -25 44 30 -2 28 -1 29 13 11 8 -11 18
-17 21 -13 20 20 -55 48 -138 52 -9 0 -21 4 -25 9 -4 4 21 4 56 0 50 -5 62 -4
56 6 -4 7 -2 16 6 21 22 14 31 11 25 -9 -7 -22 31 -49 47 -33 19 19 62 12 87
-14 l23 -25 -31 0 c-21 0 -32 -5 -32 -14 0 -8 -6 -17 -12 -19 -7 -3 -2 -6 11
-6 13 -1 30 7 37 17 13 16 13 16 14 0 0 -22 30 -24 30 -3 0 8 11 17 25 21 14
3 25 10 25 15 0 6 8 5 19 0 15 -9 20 -7 24 9 3 13 11 17 26 13 27 -7 27 -23 1
-30 -26 -7 -25 -19 0 -33 16 -8 22 -8 26 4 3 8 11 13 18 10 18 -7 39 22 33 46
-3 13 0 20 9 20 8 0 14 7 14 15 0 10 10 15 29 15 16 0 34 -7 41 -15 7 -8 20
-15 28 -15 13 0 13 -2 -3 -13 -13 -10 -15 -16 -6 -21 14 -9 42 23 34 38 -6 9
15 26 35 26 6 0 12 -9 12 -19 0 -26 18 -37 27 -15 4 10 0 22 -11 30 -20 14
-13 60 7 47 16 -10 67 -11 67 -1 0 11 27 11 32 -1 2 -4 22 -20 46 -35 36 -22
43 -24 48 -11 8 21 21 19 29 -5 9 -27 29 -26 22 1 -8 29 3 80 15 73 6 -4 7
-27 3 -55 -5 -33 -3 -49 4 -49 6 0 11 7 11 15 0 11 11 15 39 15 42 0 56 16 52
58 -2 15 3 22 14 22 12 0 16 -8 13 -32 -4 -39 18 -49 34 -14 8 19 16 25 30 20
11 -3 27 1 37 10 16 15 19 14 39 -14 28 -38 55 -41 46 -5 -4 15 -2 25 5 25 6
0 11 7 11 16 0 12 7 14 29 9 17 -3 32 -2 36 4 3 6 15 11 27 11 17 0 18 -2 8
-15 -11 -13 -8 -15 14 -15 17 0 26 5 26 16 0 13 7 15 35 10 30 -6 35 -4 35 13
0 11 -10 27 -22 35 l-22 16 21 0 c12 0 28 -7 36 -15 9 -8 17 -10 19 -5 6 17
63 -5 60 -23 -2 -10 2 -25 7 -35 9 -14 10 -12 11 13 0 17 4 36 9 44 6 9 4 19
-5 28 -22 22 -18 53 7 53 11 0 17 -5 14 -10 -3 -6 -3 -20 0 -31 5 -16 13 -20
31 -16 13 2 24 0 24 -4 0 -5 16 -9 36 -9 27 0 35 4 31 14 -4 9 2 16 15 19 16
5 19 12 16 31 -4 18 -1 26 8 26 8 0 14 -7 14 -16 0 -12 9 -14 38 -12 29 2 37
7 37 23 0 12 -9 21 -24 25 -23 5 -23 6 -7 23 10 9 23 17 29 17 8 0 7 -3 -2 -9
-20 -13 -4 -31 26 -31 22 0 24 3 19 24 -6 25 8 45 18 27 4 -5 0 -12 -6 -14
-10 -4 -10 -6 0 -6 7 -1 10 -5 7 -11 -9 -14 25 -68 46 -73 15 -4 16 -2 6 14
-13 21 -6 32 26 34 17 1 23 9 25 33 3 27 7 31 28 30 24 -2 35 -18 12 -18 -6 0
-8 -3 -5 -7 4 -3 25 2 47 12 27 12 40 24 40 38 0 14 -5 18 -20 14 -29 -7 -32
6 -5 19 19 9 25 9 29 -2 8 -21 43 -17 49 6 3 11 12 20 20 20 12 0 15 -8 10
-37 l-5 -38 45 49 c42 46 47 48 81 42 34 -7 36 -9 37 -49 l2 -42 6 35 c5 29
10 35 29 33 16 -2 22 2 22 18 0 17 4 19 35 13 27 -5 36 -3 41 10 3 9 12 16 20
16 8 0 14 7 14 15 0 8 5 15 10 15 15 0 12 -26 -5 -40 -18 -15 -20 -40 -2 -39
6 0 23 13 35 30 19 23 22 33 12 44 -12 15 -6 35 11 35 5 0 9 -7 9 -15 0 -10
10 -15 30 -15 27 0 30 3 30 30 0 16 -6 33 -14 37 -9 5 9 8 44 8 32 0 62 -3 66
-7 4 -5 11 -8 16 -8 13 0 -14 26 -32 32 -11 3 -9 8 10 18 17 9 25 10 28 1 2
-6 8 -11 14 -11 13 0 47 41 48 58 0 27 20 10 20 -18 0 -23 4 -30 20 -30 15 0
20 7 20 25 0 15 9 31 25 41 18 12 23 22 19 38 -3 14 1 28 10 35 9 8 16 19 16
27 0 7 4 15 9 19 13 7 5 -35 -9 -49 -20 -20 -11 -56 16 -66 33 -13 37 -13 32
3 -3 6 -10 13 -16 13 -23 3 -24 4 -12 19 7 8 22 15 34 15 11 0 37 14 56 30 19
16 38 30 43 30 4 0 7 7 7 15 0 17 9 19 44 5 16 -6 28 -6 31 0 3 5 -6 12 -20
16 -48 12 -22 34 41 34 19 0 34 5 34 10 0 6 6 10 14 10 7 0 21 10 29 23 16 22
16 22 16 -12 l1 -34 21 27 c12 15 31 32 43 36 17 7 12 9 -21 9 -24 1 -43 6
-43 11 0 6 13 10 28 10 40 0 81 22 84 45 4 30 53 33 61 4 3 -11 11 -19 18 -17
25 8 20 29 -9 39 -33 11 -45 29 -33 48 6 9 11 8 21 -4 7 -8 25 -15 40 -15 16
0 31 -6 34 -12 3 -7 4 4 1 25 -5 29 -3 37 10 37 8 0 15 4 15 10 0 5 -7 7 -15
4 -10 -4 -15 0 -15 14 0 21 32 38 50 27 5 -3 17 -1 27 4 10 5 27 12 38 16 16
5 17 8 5 15 -20 12 3 60 29 60 24 0 85 56 71 65 -15 9 -2 25 21 25 10 0 19 -7
19 -15 0 -8 4 -15 10 -15 12 0 8 27 -7 56 -8 13 -8 25 -2 35 8 12 13 10 29
-10 11 -13 20 -29 20 -37 0 -27 15 -13 35 31 19 43 38 61 55 50 14 -9 30 29
19 46 -6 10 -9 11 -9 1 0 -7 -4 -11 -9 -7 -6 3 -9 14 -8 24 1 15 6 17 22 11
11 -4 23 -9 26 -11 3 -2 13 2 22 10 10 7 17 9 17 3 0 -16 38 -21 51 -6 9 11 7
14 -11 14 -13 0 -20 5 -17 13 2 6 19 12 38 12 40 1 59 11 59 31 0 8 5 14 12
14 6 0 29 18 50 40 31 31 37 43 30 57 -10 18 4 63 20 63 4 0 8 10 8 22 0 12 3
18 8 14 4 -4 7 -13 7 -19 0 -6 14 -19 31 -29 l31 -18 26 36 c27 38 26 60 -1
67 -10 3 5 3 32 0 45 -4 48 -2 43 16 -6 26 13 42 41 34 24 -6 29 6 10 25 -9 9
-9 12 0 12 7 0 12 9 12 20 0 18 2 19 20 8 16 -10 24 -10 41 0 25 16 37 8 19
-13 -18 -21 -6 -30 14 -10 9 9 16 12 16 6 0 -6 7 -11 15 -11 8 0 15 5 15 10 0
6 -4 10 -10 10 -5 0 -10 7 -10 15 0 8 4 15 10 15 5 0 15 11 22 24 7 14 16 25
21 25 4 1 14 1 22 1 8 0 15 8 15 18 1 28 49 56 91 53 40 -2 61 15 38 30 -8 5
-25 8 -39 7 -28 -2 -69 17 -58 28 11 10 112 6 116 -6 6 -17 20 -11 27 10 4 11
10 18 15 15 5 -3 15 3 22 13 17 24 49 36 58 22 4 -7 21 3 44 26 36 36 39 37
78 27 39 -10 40 -10 35 13 -4 24 9 34 44 34 11 0 18 4 15 9 -10 15 18 19 32 4
7 -7 22 -13 33 -13 16 0 18 3 9 19 -16 30 -12 41 14 41 13 0 26 7 30 15 3 8
14 15 25 15 11 0 21 8 23 17 2 11 13 18 28 18 20 0 25 5 25 25 0 19 5 25 22
25 16 0 23 -6 24 -20 1 -13 4 -9 11 13 12 37 23 41 31 12 6 -22 35 -28 34 -7
-1 30 4 45 17 50 10 4 12 0 9 -14 -7 -26 33 -26 42 0 4 13 12 17 25 14 16 -4
21 1 26 27 6 30 9 31 41 25 50 -9 88 2 104 31 13 25 13 25 21 5 10 -28 48 -28
48 -1 0 11 -5 20 -11 20 -5 0 -7 5 -3 11 4 8 9 8 17 0 6 -6 24 -11 39 -11 24
0 28 4 28 30 0 30 1 30 43 24 23 -3 52 -7 63 -10 12 -2 28 3 35 12 8 10 21 13
36 9 15 -3 30 0 40 10 12 12 18 13 23 5 6 -9 9 -9 16 1 4 7 3 14 -4 17 -7 2
-12 8 -12 13 0 12 47 12 55 -1 11 -17 37 -11 42 10 7 27 65 27 104 -1 31 -22
59 -20 59 5 0 8 9 18 20 21 11 3 20 14 20 23 0 12 3 13 11 5 6 -6 18 -9 25 -6
8 3 14 -1 14 -10 0 -18 26 -47 42 -47 6 0 8 11 4 26 -7 26 -6 26 29 20 30 -6
35 -4 35 13 0 11 5 23 10 26 6 4 10 -5 10 -20 0 -21 4 -26 16 -21 9 3 18 6 20
6 3 0 0 9 -6 20 -9 17 -7 20 12 22 13 0 30 0 38 -1 54 -5 120 -2 138 8 19 10
22 9 22 -9 0 -18 3 -19 21 -10 11 7 27 9 36 6 19 -8 53 11 53 29 0 8 7 15 15
15 9 0 15 -7 13 -16 -4 -25 19 -28 32 -5 11 22 40 29 40 10 0 -6 7 -9 15 -5 8
3 15 2 15 -3 0 -8 69 -32 107 -37 13 -1 30 4 38 13 16 15 45 11 45 -7 0 -5 9
-10 19 -10 14 0 18 5 14 19 -3 10 0 22 6 25 7 5 11 -5 11 -29 0 -23 4 -34 11
-29 6 3 8 16 5 29 -7 28 17 41 34 19 7 -8 21 -14 31 -14 10 0 22 -8 28 -17 8
-15 13 -15 36 -5 33 15 45 15 45 0 0 -7 4 -19 9 -27 8 -12 12 -12 25 -2 9 7
26 11 39 7 13 -3 39 -1 57 4 23 7 38 6 47 -2 10 -8 20 -8 39 1 31 14 47 6 39
-20 -5 -15 -1 -19 14 -19 12 0 21 5 21 10 0 6 -4 10 -10 10 -5 0 -10 7 -10 15
0 8 2 15 5 15 11 0 55 -24 55 -31 0 -14 33 -20 41 -7 7 11 12 11 29 0 22 -13
45 -8 35 9 -4 5 -1 9 4 9 6 0 11 8 12 18 0 9 7 0 16 -20 15 -38 43 -52 43 -23
0 8 3 15 6 15 8 0 67 -42 75 -53 3 -4 18 -5 32 -1 17 4 27 2 27 -5 0 -6 7 -11
15 -11 8 0 15 5 15 10 0 21 37 9 48 -15 7 -16 20 -25 34 -25 50 0 98 -13 98
-26 0 -9 11 -14 33 -14 18 0 38 -5 45 -12 8 -8 15 -8 25 0 11 9 18 8 31 -7 10
-11 25 -17 36 -14 29 8 62 -15 55 -38 -7 -21 -3 -22 80 -21 28 1 44 -1 38 -4
-18 -8 -16 -24 2 -24 9 0 18 -7 21 -15 4 -10 13 -13 25 -10 14 5 22 -1 30 -19
9 -19 15 -22 28 -15 11 7 27 6 55 -6 30 -13 37 -20 33 -36 -4 -14 0 -19 14
-19 11 0 19 7 19 16 0 16 4 16 52 -8 27 -13 39 -48 16 -48 -6 0 -9 -3 -5 -6 3
-3 15 1 27 9 20 14 26 12 78 -19 38 -23 67 -34 87 -32 24 2 29 0 27 -15 -3
-14 1 -17 16 -13 23 8 70 -27 82 -60 6 -14 18 -25 30 -25 11 -1 25 -2 30 -3
13 -1 30 -28 24 -37 -6 -10 17 -5 43 9 26 15 33 15 33 2 0 -5 -10 -10 -22 -11
-22 -1 -22 -1 -3 -8 50 -17 75 -36 85 -64 5 -17 13 -27 16 -24 10 9 46 -41 39
-53 -3 -6 2 -13 12 -16 67 -22 73 -26 67 -50 -4 -15 -2 -24 5 -24 6 0 11 9 11
20 0 26 38 47 46 25 4 -8 1 -21 -5 -29 -8 -10 -8 -16 3 -25 8 -6 18 -10 23 -9
5 2 21 -10 36 -27 l26 -30 1 28 c0 15 5 27 10 27 6 0 10 -13 10 -29 0 -19 8
-35 21 -44 13 -10 17 -17 10 -22 -6 -3 -9 -11 -5 -16 3 -5 9 -7 14 -4 12 7 21
-23 15 -48 -3 -12 1 -31 9 -42 15 -20 15 -20 16 2 0 12 9 27 20 33 23 12 27 0
8 -29 -9 -15 -6 -25 18 -59 16 -23 36 -40 43 -39 8 1 20 -9 27 -21 16 -32 34
-50 34 -34 0 20 17 13 23 -9 5 -17 12 -21 36 -17 27 4 31 2 31 -19 0 -18 6
-23 24 -23 22 0 76 -52 76 -73 0 -4 15 -7 32 -5 31 3 33 1 42 -41 7 -33 7 -46
-2 -49 -10 -3 41 -62 54 -62 2 0 13 9 25 21 l21 21 16 -24 c9 -12 20 -26 26
-30 6 -4 7 -10 3 -14 -3 -4 -13 -1 -22 6 -10 8 -15 9 -15 1 0 -6 5 -11 10 -11
6 0 10 -6 10 -14 0 -8 12 -24 26 -35 19 -15 31 -18 49 -11 14 5 27 5 30 1 5
-10 -11 -24 -40 -36 -18 -6 -16 -9 13 -19 18 -6 30 -15 26 -19 -4 -4 2 -7 14
-7 28 0 39 -20 19 -35 -17 -12 -23 -35 -11 -35 4 0 12 7 19 16 10 14 15 12 39
-16 15 -18 25 -39 22 -46 -3 -7 -1 -16 4 -19 6 -4 10 11 10 35 0 23 4 39 9 35
5 -3 8 -21 6 -40 -3 -32 3 -39 26 -37 4 1 25 -15 48 -35 31 -26 45 -33 53 -25
8 8 8 15 -2 27 -9 10 -9 15 -1 15 6 0 16 -11 21 -24 5 -13 15 -26 22 -29 8 -4
7 -6 -4 -6 -31 -2 -19 -21 12 -21 23 0 33 -6 42 -25 10 -21 8 -28 -8 -40 -19
-15 -19 -15 1 -30 11 -9 30 -18 43 -22 15 -3 22 -13 22 -29 0 -19 5 -24 25
-24 16 0 28 -7 31 -17 10 -32 33 -68 43 -68 5 0 13 -3 17 -7 4 -5 18 -8 31 -8
29 0 29 -7 1 -29 -12 -10 -18 -23 -14 -29 11 -19 32 -14 44 11 10 22 11 22 11
-5 1 -16 6 -28 11 -28 13 0 13 43 -1 57 -7 7 -6 12 5 16 26 10 52 -70 32 -101
-5 -8 -1 -21 9 -32 10 -11 14 -26 10 -38 -7 -25 9 -37 27 -19 7 7 28 22 46 32
29 17 34 18 42 5 6 -8 8 -21 5 -27 -2 -8 4 -13 15 -13 11 0 20 -5 20 -11 0 -8
-14 -9 -44 -5 -44 7 -71 -6 -39 -18 15 -6 15 -8 3 -17 -10 -6 -1 -7 28 -4 28
4 42 1 42 -6 0 -7 14 -25 31 -42 28 -27 36 -29 78 -23 25 3 41 3 35 -2 -6 -4
-14 -15 -17 -26 -7 -17 -9 -17 -31 -3 -17 12 -26 13 -35 4 -8 -8 -11 -7 -11 6
0 13 -9 17 -40 17 -29 0 -40 -4 -40 -15 0 -9 9 -15 25 -15 13 0 28 -6 32 -12
13 -21 51 -38 83 -38 27 0 29 -2 18 -19 -6 -10 -17 -17 -24 -14 -14 5 -46 -36
-38 -49 3 -4 12 -1 20 7 18 17 33 20 35 5 1 -5 2 -15 3 -22 2 -21 26 -20 26 1
0 23 25 29 33 9 3 -7 6 -3 6 10 1 12 -5 22 -11 22 -9 0 -8 4 2 10 26 17 31 11
28 -27 -2 -21 -9 -38 -16 -38 -7 0 -13 -2 -14 -5 -3 -9 17 -37 32 -43 8 -4 -3
-4 -25 -2 -22 2 -32 2 -22 -1 24 -7 17 -39 -8 -40 -46 -2 -47 -5 -10 -24 51
-26 58 -25 51 4 -4 17 -1 26 10 30 36 14 44 7 42 -34 -1 -23 4 -46 10 -52 9
-9 12 -9 12 0 0 7 9 12 19 12 11 0 23 4 26 10 8 12 45 -10 45 -27 0 -7 -9 -13
-19 -13 -12 0 -21 -9 -25 -26 -5 -19 -11 -24 -26 -19 -14 4 -20 2 -20 -9 0
-10 6 -13 15 -10 8 4 22 1 29 -5 12 -10 15 -6 21 18 l7 31 36 -17 c20 -9 47
-16 60 -16 18 1 22 -5 22 -27 0 -22 5 -29 23 -32 19 -3 22 -9 21 -43 -1 -22 1
-34 3 -27 3 6 13 12 23 12 9 0 23 7 30 15 7 8 19 15 26 15 22 0 16 -27 -6 -33
-11 -3 -20 -11 -20 -17 0 -9 16 -11 58 -7 31 3 49 3 40 0 -21 -5 -24 -22 -5
-28 6 -3 34 -6 61 -9 41 -3 50 -7 53 -24 1 -12 -2 -24 -7 -27 -6 -3 -10 -16
-10 -28 1 -22 1 -22 15 -2 8 11 19 25 24 31 5 7 7 15 4 18 -4 3 2 6 13 6 10 0
29 3 40 6 25 7 40 -21 23 -42 -12 -15 -5 -44 11 -44 5 0 10 11 10 24 0 17 7
27 22 32 17 5 29 -1 55 -29 18 -20 43 -43 56 -52 22 -14 26 -14 37 0 14 17 46
20 55 5 3 -6 26 -9 51 -8 25 1 50 -4 56 -10 16 -16 28 -15 28 2 0 15 -21 26
-51 26 -10 0 -19 4 -19 9 0 5 -12 12 -26 15 -30 8 -27 30 4 34 14 2 25 -3 29
-15 9 -25 23 -33 62 -33 26 0 32 -3 27 -16 -5 -13 -1 -15 20 -11 14 2 27 0 30
-7 5 -12 65 -13 83 -1 6 3 18 -1 27 -10 9 -9 23 -14 30 -11 8 3 21 9 29 12 18
8 20 -17 3 -34 -10 -10 -10 -15 2 -22 21 -14 34 -7 38 18 4 25 20 29 28 7 9
-22 24 -18 24 6 0 28 20 20 41 -17 10 -18 23 -28 34 -26 24 5 85 -26 85 -43 0
-17 32 -20 59 -6 23 13 61 3 61 -15 0 -8 10 -14 25 -14 30 0 31 -7 6 -37 -12
-14 -30 -23 -47 -23 -15 0 -24 -3 -20 -7 3 -4 26 -6 49 -6 37 1 39 0 12 -6
-28 -7 -27 -8 17 -12 59 -5 74 -1 52 16 -15 10 -10 12 29 11 32 -1 47 -5 47
-15 0 -14 49 -12 99 4 17 6 22 5 17 -3 -5 -8 0 -12 13 -12 13 0 21 7 21 16 0
12 3 14 13 6 10 -8 21 -6 43 7 17 10 50 22 73 26 32 5 44 13 51 31 6 14 16 27
23 30 31 11 243 10 279 -2 43 -15 74 -9 105 19 20 18 26 19 47 7 21 -11 30
-10 63 5 40 19 199 29 209 13 8 -12 82 -10 90 3 4 7 22 9 44 6 20 -2 43 -1 51
3 27 15 199 26 314 21 70 -3 70 -4 25 -12 -25 -4 -75 -8 -112 -8 -44 -1 -68
-5 -71 -13 -3 -10 -30 -12 -103 -10 -95 3 -102 1 -129 -23 -36 -30 -32 -29
-81 -8 -49 21 -125 23 -187 5 -26 -7 -69 -17 -95 -20 -32 -5 -47 -12 -47 -22
0 -27 -28 -29 -204 -15 -58 5 -66 3 -95 -22 -37 -31 -86 -53 -121 -53 -25 0
-31 -2 -90 -33 -16 -8 -48 -18 -70 -22 -52 -10 -75 -22 -75 -40 0 -17 55 -21
65 -5 9 15 71 12 84 -4 9 -10 3 -17 -32 -30 -23 -9 -48 -16 -55 -16 -7 0 -12
-4 -12 -10 0 -5 -7 -10 -15 -10 -9 0 -21 -11 -27 -25 -8 -17 -18 -25 -32 -23
-14 2 -22 -3 -24 -17 -4 -22 -38 -57 -64 -68 -20 -7 -23 -22 -8 -32 6 -3 10
-1 10 4 0 6 5 11 10 11 6 0 8 -11 4 -26 -6 -22 -4 -25 12 -22 13 2 18 10 16
26 -2 12 2 22 7 22 13 0 14 -59 1 -80 -7 -12 -12 -12 -35 0 -25 13 -28 13 -41
-5 -12 -16 -18 -17 -33 -8 -13 8 -22 8 -29 1 -10 -10 -9 -14 19 -69 7 -15 7
-24 -2 -35 -13 -16 -4 -48 11 -39 6 4 8 11 5 16 -4 5 8 9 26 9 31 0 32 -1 13
-15 -21 -17 -30 -16 139 -14 38 0 74 -5 82 -11 7 -6 48 -13 91 -15 144 -9 209
-14 239 -18 56 -8 200 -17 320 -22 159 -6 301 -14 350 -19 35 -3 159 -12 315
-21 205 -12 266 -18 276 -25 5 -5 36 -12 67 -16 31 -4 55 -11 54 -17 -1 -6 24
-14 55 -19 32 -4 68 -13 80 -19 13 -7 35 -12 50 -11 15 1 29 -2 33 -8 3 -5 28
-12 56 -16 28 -4 56 -13 64 -20 7 -8 22 -14 32 -14 11 0 43 -11 72 -25 29 -14
66 -29 83 -32 16 -3 32 -12 35 -19 3 -8 15 -14 27 -14 34 0 98 -26 108 -44 5
-9 17 -16 26 -16 9 0 26 -7 36 -15 21 -16 37 -19 35 -7 -4 22 3 29 26 24 14
-2 25 -11 25 -19 0 -13 3 -13 15 -3 11 10 18 9 30 -4 9 -9 13 -21 9 -27 -5 -9
5 -10 35 -6 32 4 46 1 59 -12 22 -24 69 -35 75 -18 2 6 7 9 11 5 4 -3 1 -16
-6 -28 -11 -18 -11 -23 3 -33 9 -7 14 -17 12 -22 -2 -6 6 -16 17 -23 17 -10
20 -10 20 3 0 9 6 12 15 9 8 -4 12 -10 9 -15 -3 -5 4 -9 15 -9 11 0 26 -7 35
-15 8 -8 37 -20 65 -26 28 -6 53 -15 57 -20 3 -5 14 -9 25 -9 18 0 19 11 19
419 0 326 -3 421 -12 425 -10 5 -10 7 0 12 9 4 12 682 12 3340 l0 3334 -14400
0 -14400 0 0 -6814z m20237 2653 c26 -12 60 -21 74 -20 34 3 59 -31 59 -80 0
-40 -23 -71 -34 -44 -9 24 -29 17 -61 -21 -56 -68 -76 -87 -85 -78 -13 13 0
54 16 54 8 0 14 7 14 15 0 17 -27 20 -32 4 -2 -6 -16 -11 -31 -11 -31 0 -36
-22 -12 -54 8 -10 15 -36 15 -56 0 -20 4 -39 10 -43 5 -3 6 -13 3 -21 -5 -13
-16 -6 -52 30 -25 26 -57 55 -70 64 -24 19 -24 19 -4 38 11 10 28 31 37 45 15
25 15 26 -7 38 -13 7 -32 31 -42 53 -10 22 -26 43 -37 46 -35 9 -12 27 39 30
29 2 57 9 63 17 18 22 81 18 137 -6z m397 -44 c-5 -13 -2 -14 18 -6 16 6 33 5
53 -4 29 -13 29 -14 8 -20 -41 -13 -24 -26 27 -21 57 5 63 -2 21 -27 -23 -13
-35 -15 -56 -7 -39 15 -53 12 -60 -10 -10 -31 -30 -24 -65 21 -28 34 -36 39
-60 34 -28 -6 -46 7 -35 24 3 6 18 5 36 -3 40 -17 79 -9 79 15 0 12 7 19 20
19 13 0 18 -5 14 -15z m-95 -64 c7 -5 11 -14 7 -20 -4 -5 2 -16 14 -23 11 -7
20 -18 20 -25 0 -7 7 -10 15 -7 10 4 16 0 17 -12 3 -38 -4 -79 -15 -86 -15 -9
-37 2 -39 21 0 9 -4 -6 -7 -34 -3 -27 -3 -51 2 -53 16 -7 6 -32 -13 -32 -11 0
-20 -4 -20 -10 0 -5 -9 -10 -19 -10 -15 0 -19 -5 -16 -21 3 -15 0 -19 -11 -15
-10 4 -15 0 -13 -12 3 -32 -1 -41 -15 -36 -8 3 -16 15 -18 25 -3 19 -20 30
-111 75 -16 8 -35 14 -42 14 -7 0 -15 7 -19 15 -6 18 2 45 15 45 5 0 9 5 9 11
0 16 68 79 85 79 9 0 12 6 9 15 -4 9 11 32 38 59 34 36 50 45 78 45 19 1 41
-3 49 -8z m-1021 -23 c-2 -16 -10 -23 -25 -22 -29 1 -20 -12 12 -18 21 -4 25
-1 25 17 0 13 6 25 14 28 10 4 15 -5 18 -33 2 -21 0 -36 -4 -34 -5 3 -8 -5 -8
-17 0 -12 -8 -28 -17 -35 -10 -7 -15 -16 -10 -20 4 -4 13 1 21 11 7 10 18 15
25 11 6 -4 18 -2 26 4 12 10 16 9 21 -4 3 -9 14 -16 23 -15 12 0 12 2 2 6 -10
4 -10 7 -1 13 7 4 31 2 54 -5 22 -7 47 -10 54 -7 8 2 31 -4 53 -13 43 -20 51
-45 21 -67 -24 -17 -45 -56 -37 -68 3 -6 1 -10 -4 -10 -24 0 -9 -19 19 -25 17
-4 30 -11 30 -16 0 -5 7 -9 15 -9 14 0 13 3 -2 25 -10 13 -24 25 -31 25 -9 0
-12 10 -10 28 2 20 9 28 28 30 14 2 31 9 38 14 9 8 16 6 27 -8 15 -20 16 -21
21 -106 3 -60 -2 -66 -37 -48 -15 8 -19 7 -19 -5 0 -8 8 -15 18 -15 20 -1 73
-29 55 -30 -7 0 -13 -7 -13 -15 0 -8 -6 -15 -12 -16 -10 0 -10 -2 0 -6 6 -2
12 -16 12 -30 0 -18 4 -24 15 -19 10 4 15 -1 15 -14 0 -11 7 -20 15 -20 9 0
15 -9 15 -24 0 -16 7 -27 19 -31 47 -15 30 -76 -25 -89 -13 -4 -24 -11 -24
-17 0 -6 9 -8 19 -4 11 3 22 1 26 -5 10 -16 23 -12 30 10 9 28 24 25 30 -7 4
-16 11 -36 16 -46 6 -11 8 -22 5 -25 -3 -3 -6 -1 -6 4 0 5 -14 10 -30 11 -33
2 -38 -8 -15 -27 17 -14 20 -30 6 -30 -12 0 -132 -118 -152 -150 -12 -19 -14
-31 -6 -47 6 -13 14 -23 18 -23 5 0 13 -10 20 -22 10 -18 9 -20 -6 -15 -9 4
-22 1 -28 -6 -28 -28 -77 -96 -77 -104 0 -5 -11 -16 -25 -23 -14 -8 -31 -25
-38 -38 -7 -14 -21 -30 -31 -36 -11 -6 -27 -18 -36 -26 -46 -43 -86 -70 -100
-70 -9 0 -21 -5 -28 -12 -9 -9 -12 -9 -12 0 0 7 -4 12 -8 12 -5 0 -7 -13 -4
-30 4 -25 1 -30 -16 -30 -17 0 -22 8 -27 48 -9 63 -13 74 -25 67 -5 -3 -10 1
-10 9 0 9 -4 16 -9 16 -14 0 -23 -18 -11 -22 6 -2 13 -28 17 -58 3 -30 10 -60
15 -67 5 -7 11 -40 14 -73 2 -34 7 -66 11 -73 9 -14 12 -28 20 -83 4 -32 2
-42 -11 -47 -11 -5 -16 -1 -16 13 0 11 -4 20 -10 20 -9 0 -27 75 -22 93 1 4
-4 7 -12 7 -8 0 -17 -12 -21 -27 -3 -14 -12 -35 -19 -45 -13 -17 -14 -17 -34
1 -12 10 -22 21 -22 25 0 4 -12 33 -26 64 -15 31 -30 68 -34 82 l-8 25 -1 -27
c-1 -16 -4 -28 -9 -28 -4 0 -13 -13 -20 -30 -12 -27 -11 -33 7 -59 12 -16 21
-36 21 -44 0 -17 28 -74 48 -95 6 -7 12 -22 12 -33 0 -10 4 -19 9 -19 5 0 12
-13 16 -30 4 -16 10 -30 15 -30 12 0 31 -142 41 -314 4 -87 13 -164 19 -171
12 -15 -6 -145 -20 -145 -8 0 -64 85 -81 124 -11 27 -25 49 -70 111 -19 28
-46 73 -60 102 -13 29 -28 52 -32 53 -11 0 -46 42 -47 54 0 5 -33 41 -73 80
-49 48 -91 79 -129 95 -35 15 -60 32 -67 47 -6 13 -19 24 -29 24 -37 0 -52 35
-52 123 0 45 -5 100 -11 122 -12 45 -15 102 -6 125 7 20 21 93 19 103 -1 4 3
7 10 7 6 0 4 7 -5 18 -10 10 -17 24 -17 30 0 15 -37 16 -42 2 -2 -6 -21 -13
-43 -17 -52 -8 -165 -60 -165 -76 0 -6 -28 -38 -62 -69 -62 -57 -107 -74 -123
-48 -3 6 -15 10 -26 10 -10 0 -19 4 -19 10 0 5 -18 13 -40 16 -30 5 -40 11
-40 25 0 23 -16 25 -24 4 -7 -19 -26 -20 -26 -1 0 23 40 46 67 40 16 -4 28 -1
36 9 7 8 21 17 31 19 36 6 22 22 -21 24 -28 1 -43 -3 -47 -12 -7 -18 -47 -18
-72 1 -11 8 -14 15 -6 15 6 0 20 8 30 18 15 15 16 20 5 31 -10 9 -13 9 -13 -4
0 -8 -7 -15 -15 -15 -10 0 -15 10 -15 30 0 19 5 30 14 30 8 0 16 7 20 15 3 8
2 14 -2 14 -25 -4 -31 2 -22 25 5 13 6 33 3 45 -4 16 -1 21 15 21 15 0 22 9
27 30 5 25 12 30 35 30 20 0 27 5 26 17 0 10 6 18 14 18 8 0 25 6 37 13 12 7
45 12 74 11 28 -1 54 2 57 7 13 18 62 45 62 34 0 -7 6 -6 14 2 8 7 12 16 10
20 -3 4 4 13 16 20 11 7 20 18 20 25 0 14 10 16 48 13 14 -1 22 4 22 15 0 9 4
14 8 11 4 -2 14 -1 22 5 10 6 11 9 3 9 -7 0 -13 7 -13 16 0 9 -5 14 -12 12
-12 -4 -78 56 -78 72 0 6 -12 10 -27 10 l-28 -1 22 -18 c18 -15 20 -21 10 -29
-13 -11 -157 -13 -157 -3 1 31 15 51 36 51 31 0 32 26 2 36 -13 4 -25 6 -27 5
-2 -2 -7 3 -11 9 -11 17 -30 3 -30 -21 0 -10 -5 -19 -10 -19 -7 0 -7 -6 0 -19
18 -35 11 -43 -21 -21 -28 20 -29 24 -15 39 9 10 16 25 16 34 0 9 7 17 15 17
8 0 15 7 15 15 0 8 9 15 20 15 11 0 20 7 20 15 0 16 31 21 44 8 4 -5 17 -8 29
-8 12 0 26 -10 33 -24 12 -22 12 -22 12 12 0 19 5 45 12 57 6 12 13 35 15 51
3 23 0 29 -15 29 -24 0 -27 28 -5 37 9 3 24 -2 34 -11 10 -9 20 -16 23 -16 9
0 6 35 -4 47 -6 7 -8 19 -5 28 5 10 0 14 -15 12 -14 -1 -24 4 -26 16 -2 10 3
17 12 17 9 0 16 -5 16 -11 0 -6 10 -9 22 -7 28 4 35 58 8 58 -24 0 -60 44 -49
61 6 10 9 11 9 2 0 -7 6 -13 14 -13 8 0 21 -6 28 -12 17 -16 73 -48 84 -48 4
0 3 5 -4 12 -17 17 -15 33 2 19 11 -9 16 -9 22 0 4 7 0 17 -9 24 -15 10 -15
14 -2 31 14 19 15 19 21 -2 4 -16 14 -21 40 -22 30 -1 34 1 35 26 1 17 3 20 6
10 5 -20 12 -22 32 -9 9 6 22 6 34 -1 24 -12 31 -5 19 19 -14 25 -2 42 29 45
27 2 78 -30 79 -49 0 -29 31 -10 49 32 11 26 27 45 35 45 9 0 15 -3 14 -7 -1
-5 4 -22 12 -39 l14 -31 21 25 c32 37 45 21 45 -52 0 -42 5 -67 14 -75 11 -9
15 -5 18 25 3 22 -1 42 -9 49 -9 10 -10 14 -1 17 6 2 12 23 12 45 1 39 -1 42
-31 45 -22 3 -33 0 -33 -8 0 -19 -20 -28 -32 -16 -8 8 -6 20 5 43 8 18 13 38
10 45 -3 7 2 23 11 36 15 21 16 21 18 3 0 -11 1 -26 1 -32 -1 -8 11 -13 28
-13 18 0 29 5 29 14 0 17 25 27 46 19 15 -5 15 -17 -1 -55 -4 -10 1 -24 14
-37 24 -24 26 -42 9 -59 -22 -22 15 -13 43 11 20 17 28 35 33 76 9 70 14 77
37 50 l19 -22 0 22 c0 18 3 20 19 11 36 -19 49 -13 45 23 -3 26 1 35 19 43 39
20 59 17 55 -8z m526 -152 c8 -14 25 -27 36 -31 12 -4 20 -15 20 -29 0 -17 10
-26 43 -40 63 -26 72 -32 71 -49 -1 -8 7 -18 17 -20 12 -3 19 0 19 9 0 21 55
11 87 -18 36 -31 39 -48 9 -48 -13 0 -27 -6 -29 -12 -3 -8 -6 -5 -6 5 -1 26
-25 15 -29 -13 -2 -14 3 -29 13 -36 20 -15 13 -44 -10 -44 -8 0 -15 -7 -15
-15 0 -8 -4 -15 -10 -15 -5 0 -10 -7 -10 -15 0 -8 -7 -15 -15 -15 -8 0 -15 4
-15 9 0 6 -20 13 -44 16 -27 4 -47 13 -50 23 -4 10 -13 29 -21 44 -12 20 -13
33 -5 53 12 33 4 65 -16 65 -10 0 -14 -9 -12 -27 3 -27 2 -28 -54 -30 -63 -2
-69 4 -45 49 7 14 19 22 30 20 9 -2 17 1 17 7 0 6 -9 11 -20 11 -15 0 -20 7
-20 29 0 16 7 35 16 42 11 9 14 23 11 44 -8 56 10 72 37 31z m-1744 -145 c0
-6 16 -7 34 -4 53 8 79 -3 100 -41 30 -57 6 -81 -58 -57 -31 12 -52 -7 -30
-27 8 -7 14 -8 14 -2 0 5 14 10 30 10 31 0 41 -16 15 -26 -8 -4 -15 -12 -15
-20 0 -17 -17 -19 -22 -3 -2 6 -23 12 -47 13 -36 2 -44 -1 -55 -22 -8 -16 -16
-21 -20 -13 -4 6 -15 11 -26 11 -19 0 -34 25 -24 42 3 5 12 1 19 -9 9 -12 17
-15 23 -8 13 13 -3 55 -20 56 -7 1 1 4 17 8 25 5 30 11 30 37 0 24 4 30 17 26
10 -2 18 1 18 7 0 6 -7 11 -16 11 -8 0 -12 5 -9 10 8 13 25 13 25 1z m2345
-618 c9 -12 24 -16 49 -15 20 2 42 -1 49 -5 7 -4 21 -8 32 -8 31 0 22 -62 -15
-97 -34 -33 -43 -34 -61 -11 -8 10 -9 14 -2 10 16 -10 26 9 18 33 -7 21 -25
28 -25 10 0 -19 -24 -37 -41 -33 -9 3 -20 0 -23 -5 -8 -13 20 -42 39 -42 9 0
12 -6 9 -15 -9 -22 -54 -19 -55 3 0 9 -3 12 -5 5 -3 -7 -13 -9 -21 -6 -15 6
-15 4 0 -17 23 -33 21 -51 -2 -22 -11 12 -22 22 -27 22 -4 0 -13 8 -20 17 -7
10 -16 15 -20 11 -4 -5 10 -24 30 -44 32 -31 36 -40 30 -68 -5 -26 -26 -50
-44 -51 -16 -1 -49 -44 -55 -72 -3 -18 -11 -33 -16 -33 -5 0 -9 -11 -9 -24 0
-32 -18 -37 -65 -20 -45 17 -165 19 -175 5 -3 -6 -11 -6 -19 -2 -15 10 -7 82
12 113 9 14 7 22 -11 41 -18 19 -25 43 -32 113 -15 142 -18 134 39 134 31 0
53 5 61 15 16 20 116 21 127 1 4 -7 20 -15 36 -18 21 -4 27 -1 27 13 0 14 -7
19 -26 19 -22 0 -24 2 -14 15 8 10 30 13 73 12 34 -1 54 -3 45 -5 -10 -2 -18
-10 -18 -19 0 -10 6 -13 16 -9 9 3 22 6 30 6 8 0 14 7 14 15 0 8 6 15 14 15 8
0 16 7 20 15 7 20 16 19 31 -2z m-2635 -84 c0 -6 -5 -19 -10 -30 -9 -15 -7
-19 5 -19 9 0 18 7 21 15 9 22 34 18 34 -5 0 -11 -7 -20 -15 -20 -18 0 -19
-12 -4 -27 8 -8 7 -17 -5 -34 -19 -27 -22 -49 -4 -31 16 16 31 15 22 0 -4 -7
3 -3 15 10 36 36 60 -1 26 -39 -14 -15 -14 -18 1 -34 21 -20 11 -43 -27 -62
-17 -9 -19 -13 -7 -13 23 0 34 -20 17 -31 -9 -5 -21 -1 -34 11 -12 11 -27 20
-33 20 -7 0 -12 7 -12 15 0 8 7 15 15 15 10 0 15 10 15 30 0 18 6 33 15 36 21
9 19 24 -4 24 -11 0 -23 5 -26 11 -4 5 -16 -8 -27 -30 -11 -23 -26 -41 -34
-41 -8 0 -14 -4 -14 -9 0 -16 -57 -34 -76 -23 -13 7 -26 4 -48 -9 -41 -25 -60
-24 -90 5 -29 26 -34 41 -12 33 9 -4 17 2 21 13 4 11 17 23 31 26 17 4 24 13
24 31 0 21 4 24 33 23 54 -3 57 -2 57 33 0 40 42 104 72 110 42 8 58 7 58 -4z
m2098 -1 c7 -7 12 -38 12 -69 0 -32 5 -61 10 -64 8 -5 7 -11 -1 -21 -8 -10
-10 -37 -6 -85 7 -86 -11 -149 -56 -196 -35 -38 -57 -42 -57 -12 0 11 -4 28
-10 38 -5 10 -14 49 -19 87 -16 111 -32 198 -38 214 -22 53 5 100 60 101 18 0
41 4 52 9 28 12 39 12 53 -2z m-14543 -133 c-11 -8 -25 -19 -32 -25 -7 -5 -16
-10 -21 -10 -5 0 -15 -7 -22 -15 -7 -8 -21 -15 -32 -15 -19 0 -19 -1 -2 -17
17 -17 16 -18 -14 -21 -18 -2 -32 -9 -32 -17 0 -7 -16 -25 -35 -41 -19 -15
-35 -33 -35 -40 0 -7 -10 -14 -22 -16 -21 -3 -21 -3 -3 -22 17 -17 20 -17 30
-2 16 21 55 21 55 0 0 -8 -5 -12 -10 -9 -13 8 -8 -18 5 -27 19 -14 -5 -20 -34
-8 -31 12 -76 5 -66 -10 3 -5 -7 -13 -22 -16 -15 -4 -41 -15 -58 -24 -25 -14
-30 -23 -30 -53 -1 -35 1 -37 32 -37 18 0 33 -4 33 -10 0 -5 0 -13 0 -17 0 -7
-17 -11 -60 -15 -8 0 -19 -4 -25 -8 -5 -4 -49 -7 -98 -7 -67 0 -91 -4 -105
-16 -10 -10 -22 -17 -26 -17 -4 0 -15 -8 -24 -17 -12 -12 -13 -18 -4 -21 19
-6 14 -22 -8 -22 -30 0 -35 -26 -10 -57 l22 -28 -44 -3 c-65 -4 -88 -11 -88
-27 0 -8 4 -15 8 -15 5 0 7 -13 4 -28 -3 -22 -12 -32 -39 -41 -19 -7 -37 -19
-40 -27 -3 -8 -11 -14 -19 -14 -17 0 -18 -32 -2 -48 7 -7 39 -12 73 -13 33 0
54 -3 48 -6 -7 -2 -13 -20 -13 -39 0 -26 -3 -32 -15 -28 -8 4 -15 12 -15 19 0
24 -20 27 -46 6 -15 -12 -37 -21 -50 -21 -13 0 -24 -4 -24 -10 0 -5 -16 -10
-35 -10 -36 0 -55 -20 -55 -60 0 -16 4 -19 18 -12 9 5 35 10 57 10 l40 1 -37
-30 c-21 -17 -38 -37 -38 -45 0 -22 40 -16 75 10 24 18 35 22 43 14 14 -14 -2
-38 -24 -38 -8 0 -14 -10 -14 -25 0 -14 6 -25 13 -25 9 0 8 -3 -1 -9 -17 -10
-19 -84 -3 -89 7 -2 0 -14 -16 -28 -16 -14 -31 -20 -36 -15 -5 5 -16 7 -23 4
-8 -3 -17 3 -21 13 -15 40 -43 56 -84 49 -21 -4 -39 -11 -39 -15 0 -5 -19 -10
-42 -12 -43 -3 -43 -3 -46 -45 -3 -45 -15 -55 -30 -27 -8 14 -10 14 -25 0 -8
-9 -20 -16 -26 -16 -6 0 -11 -6 -11 -13 0 -8 -11 -23 -23 -36 -19 -17 -29 -20
-48 -12 -14 5 -37 7 -52 4 -16 -3 -27 -1 -27 6 0 15 -51 13 -72 -3 -18 -13
-20 -59 -3 -86 6 -10 4 -11 -11 -5 -60 25 -101 18 -84 -15 7 -12 7 -20 1 -20
-5 0 -16 -12 -23 -27 -10 -21 -23 -29 -52 -34 -57 -9 -72 -41 -35 -73 21 -18
23 -18 60 4 33 18 39 19 39 5 0 -8 -6 -17 -12 -19 -126 -34 -159 -54 -171
-103 -7 -29 9 -40 18 -13 7 21 45 28 45 9 0 -8 5 -8 15 1 8 7 15 19 15 26 0
17 26 18 34 2 3 -9 10 -7 21 7 16 19 17 18 10 -29 -6 -45 -5 -48 9 -33 9 8 16
18 16 21 0 9 32 39 63 59 26 17 27 17 27 -2 0 -10 -7 -24 -15 -31 -8 -7 -15
-19 -15 -27 0 -11 9 -7 31 11 29 25 64 27 40 3 -6 -6 -11 -21 -11 -34 0 -14
-6 -23 -15 -23 -8 0 -21 -13 -30 -29 -8 -16 -24 -31 -36 -33 -12 -2 -30 -19
-43 -43 -20 -36 -26 -40 -56 -37 -33 4 -33 4 -27 -32 5 -31 3 -36 -14 -36 -12
0 -19 -7 -19 -18 0 -24 -19 -42 -46 -42 -27 0 -38 -15 -40 -50 -2 -42 15 -54
41 -30 17 16 29 19 50 14 24 -6 27 -10 22 -40 -8 -48 -30 -68 -56 -52 -29 18
-36 5 -36 -65 l0 -61 -44 -16 c-48 -17 -68 -38 -58 -64 7 -16 8 -16 24 -1 16
16 17 16 24 -1 3 -11 4 -26 1 -34 -5 -12 -1 -11 21 3 15 10 38 22 52 27 24 9
25 8 25 -25 0 -29 -4 -35 -21 -35 -37 0 -57 -17 -51 -45 3 -18 -1 -30 -14 -39
-17 -13 -17 -14 0 -31 16 -16 16 -18 0 -37 -16 -16 -30 -18 -118 -16 l-101 3
-3 70 c-2 39 3 122 12 185 8 63 18 146 21 183 7 74 29 109 62 101 10 -2 24 0
32 5 12 8 12 12 2 25 -19 23 -17 155 2 191 10 17 17 40 17 52 0 12 4 24 9 27
5 4 12 29 16 57 7 46 35 121 35 92 0 -27 18 -11 43 37 32 62 27 80 -23 80 -21
0 -43 7 -50 15 -16 19 -6 72 18 94 19 18 29 46 12 36 -17 -10 -11 21 8 46 34
44 37 80 4 47 -9 -9 -12 -8 -12 4 0 8 6 21 14 27 8 7 16 30 18 51 3 39 -5 53
-15 28 -7 -17 -29 12 -22 30 6 16 -15 62 -29 62 -22 -1 -56 -48 -56 -79 0 -21
-5 -31 -15 -31 -18 0 -21 60 -5 91 8 13 7 25 0 40 -14 25 -34 20 -38 -9 -2
-12 -10 -22 -18 -22 -8 0 -14 -9 -14 -20 0 -30 -16 -24 -60 20 -22 22 -44 40
-50 40 -26 0 -40 -30 -40 -84 0 -41 -4 -56 -14 -56 -8 0 -17 12 -21 27 -3 15
-12 31 -18 35 -6 4 -10 31 -8 66 2 40 -2 64 -12 73 -7 8 -20 27 -28 44 -8 16
-27 36 -44 44 -16 8 -37 18 -45 22 -90 49 -133 51 -138 9 -3 -24 -6 -26 -59
-26 -48 0 -58 -3 -79 -27 -13 -15 -28 -27 -34 -27 -5 0 -10 -13 -10 -30 0 -16
4 -30 8 -30 14 0 52 -36 52 -49 0 -6 -4 -11 -8 -11 -5 0 -12 -12 -18 -26 l-9
-26 -45 31 c-25 17 -51 31 -57 31 -16 0 -16 12 -1 44 9 21 8 29 -6 45 -15 17
-15 19 -1 25 11 4 14 12 10 27 -12 38 -12 54 -1 62 8 5 7 10 -2 16 -9 5 -12
20 -9 40 5 28 3 31 -20 31 -16 0 -37 12 -55 30 -15 17 -30 30 -33 30 -3 0 -13
8 -23 18 -15 15 -31 18 -92 15 -73 -4 -112 -20 -109 -47 3 -24 -2 -36 -14 -36
-7 0 -19 -9 -27 -19 -11 -17 -17 -18 -34 -8 -36 20 -86 35 -86 26 0 -5 -9 -9
-21 -9 -26 0 -79 -37 -79 -55 0 -8 11 -26 25 -41 16 -17 25 -39 25 -59 0 -28
5 -35 31 -44 35 -12 89 -66 89 -88 0 -12 -8 -10 -37 8 -49 29 -83 59 -80 71 1
6 -5 13 -13 18 -19 10 -149 30 -196 30 -31 0 -35 -3 -32 -22 2 -13 12 -24 25
-28 12 -3 42 -24 67 -47 24 -24 49 -43 55 -43 6 0 8 -12 4 -30 -3 -17 -2 -30
3 -29 5 1 12 0 17 -1 12 -4 26 -7 37 -9 6 0 14 -11 19 -23 11 -29 -2 -38 -54
-38 -23 0 -46 -5 -52 -11 -6 -6 -42 -11 -79 -11 -40 0 -72 -5 -77 -12 -5 -8
-10 -7 -17 4 -8 13 -11 13 -27 -2 -15 -16 -15 -18 -1 -18 16 0 28 -26 21 -47
-3 -7 -10 -13 -17 -13 -17 0 -16 -31 1 -48 19 -19 16 -39 -7 -45 -33 -9 -58 3
-70 34 -7 16 -16 29 -21 29 -5 0 -9 7 -9 15 0 13 -26 21 -53 16 -5 -1 -6 3 -3
8 4 5 -3 12 -14 16 -11 3 -20 11 -20 16 0 5 -10 9 -23 9 -12 0 -30 9 -40 20
-9 11 -25 20 -36 20 -21 0 -33 38 -24 83 6 30 4 30 -74 27 -41 -1 -43 0 -43
29 0 36 -11 44 -43 32 -33 -13 -107 -2 -82 11 9 6 19 7 22 4 3 -3 12 1 19 9 8
7 23 11 34 8 16 -4 20 -1 19 18 -1 17 -3 19 -6 7 -7 -28 -20 -21 -27 13 -6 31
-7 31 -47 25 -38 -6 -41 -5 -36 14 4 15 0 20 -16 20 -20 1 -20 2 -4 11 9 6 15
14 12 20 -4 5 2 9 13 9 15 0 18 -6 15 -27 -3 -24 -2 -25 6 -8 l10 20 1 -20 1
-20 9 20 c5 12 9 14 9 6 1 -8 4 -12 7 -8 11 11 34 -21 28 -37 -5 -12 0 -16 20
-16 21 0 25 4 24 25 -1 14 -8 25 -15 25 -8 0 -17 8 -20 18 -4 9 -11 21 -17 25
-6 5 0 5 14 2 27 -7 70 -52 70 -72 0 -17 17 -17 27 0 4 8 16 16 26 20 13 5 16
13 11 33 -5 20 -3 25 7 22 8 -3 14 -10 14 -17 0 -16 54 -39 78 -33 19 5 23 27
7 37 -5 3 -10 14 -10 24 0 10 -8 21 -18 23 -23 6 -31 78 -8 78 8 0 20 -8 25
-17 9 -16 10 -14 11 9 0 18 7 29 20 33 11 3 25 15 31 26 6 12 17 18 25 15 9
-3 24 -1 34 4 11 6 21 6 24 1 4 -5 0 -11 -6 -14 -10 -3 -10 -8 2 -22 14 -16
12 -17 -19 -10 -31 7 -32 6 -21 -15 8 -16 15 -19 24 -11 7 6 16 8 19 5 3 -4 9
7 12 22 4 16 8 34 10 41 4 12 75 14 75 1 0 -4 5 -8 10 -8 6 0 10 14 10 30 0
29 -15 41 -22 18 -2 -6 -10 -8 -17 -4 -9 6 -8 12 5 27 9 10 14 27 11 39 -3 13
0 20 10 20 8 0 13 -7 11 -18 -1 -9 8 -28 20 -40 13 -13 21 -30 18 -38 -6 -15
3 -18 28 -8 13 5 12 9 -4 26 -25 27 -11 56 31 65 27 5 29 8 24 37 -5 25 -4 28
5 13 6 -9 16 -15 21 -11 6 3 16 -1 22 -9 7 -8 22 -17 35 -20 17 -4 22 -1 22
13 0 10 -4 20 -9 22 -4 2 -5 12 0 23 l8 20 0 -20 c1 -16 5 -14 21 13 11 17 24
32 30 32 14 0 12 -27 -2 -33 -8 -4 -4 -8 10 -12 26 -9 28 -20 5 -30 -17 -7
-16 -8 2 -15 13 -4 24 -2 30 6 11 15 145 25 145 11 0 -5 5 -5 10 -2 13 8 13
45 0 45 -5 0 -10 5 -10 10 0 6 7 10 15 10 18 0 19 12 3 28 -18 18 18 27 45 11
32 -20 87 -13 87 12 0 10 4 19 9 19 6 0 7 -15 4 -34 -3 -20 1 -44 10 -62 l15
-29 6 25 c3 14 7 34 8 45 3 15 11 20 36 19 28 -1 32 3 32 24 0 22 3 24 35 18
22 -4 35 -3 35 4 0 5 6 10 14 10 8 0 16 5 18 12 6 16 28 1 28 -19 0 -9 -6 -13
-15 -9 -22 8 -66 -15 -63 -33 2 -10 17 -15 48 -17 57 -2 110 21 110 48 0 16
-3 18 -13 9 -8 -6 -17 -8 -20 -4 -13 12 -7 23 13 23 11 0 20 7 20 15 0 9 6 12
15 9 9 -4 14 -13 13 -22 -5 -26 31 -26 58 -1 13 12 24 19 24 14 0 -4 -8 -14
-17 -22 -13 -10 -15 -16 -5 -19 12 -6 18 -34 6 -34 -3 0 -12 7 -20 15 -19 19
-44 19 -44 1 0 -16 38 -42 60 -40 8 1 21 2 28 3 6 0 12 8 12 16 0 8 11 17 25
21 20 5 23 9 15 20 -7 7 -18 10 -26 7 -8 -3 -14 -1 -14 3 1 13 30 49 30 37 0
-6 11 -21 24 -34 l23 -22 -28 -28 c-20 -19 -25 -30 -17 -35 7 -4 14 -2 16 4 5
16 43 15 65 -3 21 -16 47 -10 47 11 0 9 -11 14 -29 14 -17 0 -31 6 -35 15 -3
9 -1 15 7 14 40 -5 57 2 58 24 1 16 2 18 6 5 2 -10 13 -18 24 -18 14 0 19 -7
19 -25 0 -18 5 -25 20 -25 25 0 25 5 0 40 -20 28 -18 40 7 40 7 0 13 -7 13
-15 0 -9 10 -15 26 -15 27 0 25 15 -7 37 -11 9 -16 23 -13 45 5 52 6 54 13 28
4 -14 17 -29 29 -35 12 -5 22 -15 22 -22 0 -7 5 -13 11 -13 7 0 17 -8 24 -17
11 -15 18 -15 50 -6 36 11 37 11 33 -11 -4 -19 -1 -22 14 -18 13 3 16 10 12
29 -5 19 0 31 20 49 14 14 26 20 26 14 0 -6 10 -8 24 -4 33 8 67 -11 59 -33
-4 -10 9 -4 35 17 31 24 42 41 42 61 0 15 -6 30 -12 32 -7 3 -3 6 10 6 19 1
22 -3 17 -19 -7 -23 10 -60 29 -60 7 0 19 11 26 25 15 27 30 31 48 13 9 -9 7
-14 -5 -23 -16 -12 -16 -14 0 -39 10 -14 26 -26 37 -26 19 0 20 2 5 37 -10 24
-12 40 -6 46 7 7 7 16 1 28 -7 11 -7 20 0 24 5 3 10 1 10 -5 0 -7 6 -8 19 0
24 12 48 4 61 -21 15 -28 12 -49 -6 -42 -8 3 -13 12 -10 20 8 19 -40 41 -56
25 -8 -8 -1 -17 26 -32 20 -12 36 -28 36 -36 0 -23 26 -16 40 11 11 20 11 27
0 40 -16 19 -5 32 14 16 10 -8 16 -9 21 -1 15 25 24 7 9 -19 -16 -26 -16 -31
-2 -45 14 -13 18 -13 37 8 23 24 58 28 70 7 6 -10 10 -9 14 3 4 10 1 16 -7 16
-7 0 -16 14 -19 30 -6 27 -37 44 -37 20 0 -5 -7 -10 -15 -10 -20 0 -19 13 4
34 25 23 75 12 68 -15 -4 -14 0 -19 14 -19 13 0 19 -7 19 -24 0 -13 6 -29 14
-35 11 -9 15 -6 20 15 4 15 2 32 -3 37 -6 6 -11 15 -11 21 0 6 5 5 12 -2 16
-16 28 -15 28 3 0 7 -8 19 -17 24 -15 9 -16 12 -3 20 18 12 29 5 41 -25 8 -21
12 -23 30 -14 29 16 45 7 52 -29 7 -34 27 -40 48 -15 7 9 22 20 34 25 17 8 16
9 -7 4 -14 -3 -33 -8 -42 -11 -26 -10 -18 11 17 44 42 41 57 59 57 71 0 17 20
23 35 11 16 -13 20 -1 16 47 -1 12 3 24 9 28 18 11 11 25 -12 25 -13 0 -30 4
-38 10 -24 15 7 21 60 12 36 -6 48 -13 60 -37 14 -28 15 -29 18 -7 4 24 32 31
32 7 0 -9 9 -15 25 -15 27 0 32 9 13 28 -7 7 -9 12 -4 12 4 0 14 -7 23 -15 8
-9 28 -19 44 -22 16 -3 29 -11 29 -18 0 -16 76 -28 98 -16 19 11 23 8 -58 34
-25 8 -46 22 -48 31 -2 11 1 14 13 10 10 -4 24 2 36 15 26 27 37 27 65 -4 23
-25 54 -34 54 -15 0 6 8 10 17 10 13 0 14 -3 5 -12 -19 -19 -14 -53 13 -78 14
-13 27 -21 30 -18 3 3 -1 11 -10 18 -19 16 -20 31 -1 24 21 -8 32 17 12 28
-17 10 -22 38 -6 38 6 0 10 17 11 38 l1 37 9 -42 c8 -31 15 -42 34 -47 14 -4
25 -13 25 -20 0 -8 9 -16 20 -19 11 -3 20 -14 20 -25 0 -11 7 -25 16 -32 13
-11 16 -10 21 9 3 12 10 21 17 20 28 -3 46 2 46 14 0 14 38 42 59 42 16 0 27
18 37 60 5 21 8 25 11 13 3 -10 11 -18 19 -18 12 0 12 -4 4 -21 -15 -28 -7
-34 28 -20 16 7 40 10 54 7 19 -3 27 0 31 14 3 13 1 17 -10 13 -13 -5 -13 -3
-1 16 11 19 11 23 -5 32 -9 6 -15 15 -12 20 4 5 11 6 17 2 16 -9 131 -3 143 8
5 5 18 9 30 9 20 -1 20 -1 0 -15z m14317 -37 c1 -18 3 -51 5 -73 2 -22 3 -57
3 -78 -1 -22 3 -44 8 -50 5 -7 12 -28 15 -47 4 -19 9 -45 13 -57 6 -21 3 -23
-39 -23 -74 0 -104 -11 -146 -51 -22 -22 -44 -39 -50 -39 -6 0 -11 -6 -11 -13
0 -8 -24 -39 -52 -69 -29 -30 -62 -66 -72 -79 -12 -14 -21 -19 -23 -12 -3 7
-11 9 -19 6 -8 -3 -14 0 -14 6 0 6 6 11 14 11 18 0 46 143 46 237 0 69 1 73
38 110 39 41 99 84 154 112 23 11 37 27 45 53 14 42 50 88 70 88 8 0 14 -13
15 -32z m753 -78 c3 -5 12 -7 20 -3 10 3 15 -2 15 -16 0 -12 -6 -21 -14 -21
-8 0 -17 -11 -20 -25 -4 -14 -11 -25 -16 -25 -6 0 -10 -7 -10 -16 0 -35 -32
-84 -55 -84 -40 0 -85 21 -85 40 0 38 47 120 69 120 6 0 11 4 11 8 0 21 74 40
85 22z m-1919 -82 c-4 -24 -11 -44 -16 -46 -13 -5 -13 -75 -1 -87 8 -9 15 -73
12 -112 -1 -17 -30 -16 -50 0 -25 21 -103 47 -160 54 -28 3 -51 10 -51 15 0 5
-10 8 -22 6 -11 -2 -23 3 -26 11 -3 10 2 13 22 9 22 -4 26 -2 26 18 0 19 5 24
25 24 20 0 26 7 34 38 9 31 51 86 51 65 0 -4 5 -2 12 5 7 7 26 12 43 12 16 0
39 7 49 15 11 8 29 15 39 15 17 0 19 -5 13 -42z m1214 -222 c0 -7 -11 -25 -25
-40 -14 -15 -25 -33 -25 -41 0 -7 -3 -15 -7 -17 -5 -1 -26 -39 -47 -83 -22
-44 -52 -99 -68 -122 -15 -23 -28 -46 -28 -51 0 -6 -3 -12 -7 -14 -5 -1 -21
-20 -37 -41 -15 -21 -36 -41 -45 -45 -9 -3 -31 -16 -50 -29 -19 -13 -47 -23
-64 -23 l-30 0 6 78 c6 75 24 142 39 142 12 0 57 53 72 85 23 46 161 179 206
198 32 13 93 25 103 20 4 -2 7 -10 7 -17z m-18976 -301 c26 -14 52 -24 59 -22
7 1 12 -10 12 -28 0 -16 5 -30 12 -30 6 0 15 -3 19 -7 15 -15 32 -8 38 17 4
14 13 25 21 25 8 0 15 5 15 10 0 6 9 10 20 10 13 0 21 -9 25 -27 4 -16 10 -36
16 -45 13 -25 12 -28 -13 -28 l-23 -1 23 -19 c28 -23 20 -44 -15 -35 -18 4
-23 2 -17 -6 5 -9 2 -10 -12 -5 -10 4 -26 9 -34 11 -8 2 -23 6 -32 10 -12 5
-18 2 -18 -6 0 -12 -2 -12 -9 0 -5 8 -16 11 -25 8 -22 -9 -68 36 -60 57 3 9
10 16 15 16 5 0 9 10 9 21 0 16 -5 20 -20 16 -29 -8 -86 24 -86 48 0 18 13 34
27 35 3 0 27 -11 53 -25z m1086 -861 c0 -13 7 -15 43 -9 23 4 44 11 45 16 2 5
19 9 38 9 27 0 34 -4 34 -20 0 -11 6 -21 13 -22 35 -4 43 -3 49 6 10 15 58
-14 58 -34 0 -29 46 -63 74 -56 14 3 28 2 31 -4 10 -16 25 -12 19 5 -4 8 -2
15 3 15 15 0 12 -33 -5 -52 -8 -10 -21 -18 -27 -18 -7 0 -18 -7 -25 -15 -7 -8
-24 -15 -39 -15 -33 0 -131 -49 -145 -73 -9 -15 -6 -22 13 -38 32 -26 56 -24
80 7 16 20 21 22 21 10 0 -12 6 -15 24 -10 18 4 25 1 28 -14 3 -11 3 -24 -1
-29 -10 -15 -62 -31 -123 -38 -32 -4 -60 -11 -63 -16 -4 -5 -14 -9 -23 -9 -9
0 -30 -14 -46 -30 -22 -23 -27 -35 -22 -55 4 -17 11 -23 19 -18 7 4 17 8 24 9
7 1 26 12 42 23 18 13 32 17 36 11 3 -5 1 -10 -4 -10 -6 0 -11 -5 -11 -11 0
-7 10 -9 25 -7 17 4 25 1 25 -9 0 -9 6 -13 14 -10 8 3 17 1 20 -6 3 -9 7 -8
15 3 28 41 36 50 43 50 4 0 8 -7 8 -15 0 -8 -4 -15 -10 -15 -5 0 -10 -5 -10
-10 0 -6 -11 -27 -24 -48 -13 -20 -27 -56 -31 -79 -6 -38 -5 -43 13 -43 11 0
22 7 26 15 3 8 13 15 22 15 9 0 27 9 41 20 15 11 39 19 59 18 23 -1 40 5 53
20 22 26 31 28 31 7 0 -12 4 -13 25 -3 13 6 22 15 19 19 -3 5 10 9 29 9 19 0
40 7 47 15 7 8 19 15 28 15 13 0 14 -28 8 -242 -4 -134 -7 -262 -6 -285 1 -51
-10 -56 -110 -51 -62 3 -65 4 -70 31 -6 33 -55 97 -75 97 -8 0 -15 4 -15 9 0
5 -14 12 -31 16 -24 5 -29 11 -27 28 2 12 9 21 16 20 6 -2 12 5 12 15 0 10 5
23 12 30 18 18 -8 56 -53 76 -21 10 -39 24 -39 32 0 8 -4 14 -10 14 -5 0 -10
7 -10 15 0 8 -4 15 -9 15 -5 0 -12 11 -15 24 -10 41 -60 66 -133 66 -38 1 -53
21 -53 72 -1 32 -20 70 -37 69 -4 0 -19 3 -32 6 -14 3 -26 1 -31 -7 -7 -11
-11 -10 -24 3 -22 22 -20 51 7 92 23 36 44 44 64 24 15 -15 33 -3 33 22 0 10
6 28 12 39 10 15 10 22 0 32 -6 6 -12 19 -12 27 0 11 3 12 11 4 8 -8 16 -6 30
8 23 23 24 37 2 61 -9 10 -16 33 -15 51 1 17 -3 38 -7 46 -12 18 -48 5 -54
-19 -6 -25 -27 -26 -27 -3 0 31 32 103 46 103 8 0 14 -7 14 -16z m-267 -389
c8 -8 18 -11 21 -7 4 3 9 -3 12 -14 3 -11 19 -28 35 -39 51 -33 54 -50 16 -79
-19 -15 -38 -26 -42 -26 -20 0 -75 -65 -75 -89 0 -15 -10 -33 -26 -46 -18 -14
-27 -33 -31 -65 -3 -25 -14 -56 -24 -69 -10 -13 -16 -27 -13 -32 7 -12 -79 1
-87 13 -3 5 -17 4 -32 -1 -25 -10 -27 -8 -27 14 0 19 5 25 23 24 12 0 32 2 45
6 14 5 22 3 22 -4 0 -8 10 -6 30 4 35 18 37 33 9 66 l-20 24 48 10 c33 7 49
16 51 28 5 25 -18 49 -40 44 -30 -8 -30 10 -2 60 l26 48 -6 -42 c-4 -24 -4
-43 -2 -43 10 0 56 55 56 67 0 7 7 13 15 13 8 0 15 9 15 20 0 11 7 23 15 26
15 6 21 35 9 46 -3 4 -18 3 -32 -2 -24 -6 -46 -21 -101 -70 -29 -25 -89 -53
-103 -47 -9 4 -8 6 3 6 9 1 20 8 23 17 9 24 7 56 -3 49 -5 -3 -13 0 -17 6 -5
8 -16 2 -33 -18 -25 -29 -91 -53 -91 -34 0 5 5 11 11 13 8 3 8 10 -2 26 -12
19 -11 24 8 44 22 21 22 21 17 0 -4 -11 1 -31 10 -44 16 -22 16 -22 16 -1 0
16 8 22 34 27 19 4 46 4 59 1 18 -5 32 1 56 24 18 17 37 31 41 31 4 0 10 7 14
15 7 19 50 19 69 0z m1003 -94 c-21 -23 -21 -25 12 -58 24 -23 31 -43 45 -123
9 -52 16 -156 17 -230 0 -74 3 -154 6 -177 l6 -43 -67 0 -67 0 6 243 c4 133 9
284 12 334 6 89 7 92 26 82 18 -10 18 -12 4 -28z m158 -90 c3 -5 -1 -14 -9
-21 -20 -16 -20 -41 0 -34 10 4 18 -3 26 -22 12 -32 34 -427 25 -451 -4 -9
-17 -13 -37 -11 -28 3 -33 8 -45 48 -9 28 -14 101 -15 195 0 83 -4 175 -9 205
-8 52 -7 56 18 77 30 25 38 28 46 14z m112 -24 c-3 -13 -1 -40 5 -60 10 -36
10 -37 34 -21 15 9 32 13 45 9 15 -5 26 -1 36 12 12 16 15 16 24 3 6 -8 7 -26
4 -40 -6 -24 -18 -151 -30 -305 -8 -116 -8 -115 -62 -115 -26 0 -52 4 -58 8
-6 4 -14 57 -18 123 -4 64 -11 143 -16 175 -6 33 -10 96 -10 141 0 77 1 82 23
86 12 2 24 5 26 6 2 0 1 -9 -3 -22z m444 -7 c7 -17 10 -49 6 -77 -3 -26 -10
-102 -15 -168 -5 -66 -12 -149 -15 -184 -7 -73 -18 -91 -55 -91 -51 0 -56 11
-39 82 19 76 33 166 48 311 11 112 24 157 45 157 7 0 18 -13 25 -30z m-102
-10 c15 -41 -45 -498 -66 -501 -42 -6 -112 -3 -115 5 -11 33 29 414 49 464 12
29 17 32 53 32 22 0 43 5 46 10 10 16 25 12 33 -10z m14111 -874 c35 -1 46 -5
49 -18 2 -12 -3 -18 -17 -18 -11 0 -23 -4 -26 -10 -3 -5 2 -10 12 -10 10 0 26
-9 36 -20 19 -22 22 -35 7 -25 -5 3 -10 1 -10 -5 0 -14 -53 -4 -58 11 -14 39
-66 51 -75 18 -4 -16 -9 -19 -24 -11 -12 7 -25 7 -36 1 -14 -8 -17 -6 -17 11
0 16 -7 20 -32 20 -31 1 -32 1 -13 16 22 17 94 12 105 -7 4 -6 13 -8 19 -5 16
10 13 29 -4 23 -8 -4 -17 -2 -20 3 -8 14 24 40 42 33 9 -3 37 -7 62 -7z
m-8874 -272 c16 -11 25 -12 25 -5 0 8 5 9 19 2 10 -6 29 -10 42 -9 13 1 49 1
79 0 44 -2 51 -5 37 -13 -10 -6 -25 -8 -33 -5 -28 11 -478 8 -482 -3 -2 -6 -4
-14 -5 -18 -1 -3 25 -6 59 -4 49 2 61 -1 61 -13 0 -13 -12 -16 -52 -16 -28 0
-55 -4 -60 -9 -6 -5 -36 -4 -75 4 l-65 13 58 1 c57 1 63 5 51 35 -5 13 -24 16
-98 16 -69 1 -87 3 -73 11 27 16 317 25 317 10 0 -6 12 -11 28 -11 22 0 24 2
12 11 -11 7 6 9 60 5 46 -3 67 -1 55 4 -18 8 -18 9 -2 9 10 1 29 -6 42 -15z
m-2148 -35 c8 -8 13 -8 13 -1 0 6 21 9 48 9 71 -3 43 -23 -41 -30 -82 -7 -125
-26 -59 -27 23 0 42 -4 42 -10 0 -6 31 -10 73 -10 55 -1 68 -3 54 -11 -10 -6
-29 -8 -42 -5 -14 4 -25 1 -28 -7 -3 -9 -9 -9 -26 1 -12 7 -21 8 -21 2 0 -13
-32 -1 -47 18 -7 8 -21 12 -33 9 -15 -4 -20 0 -20 14 0 13 -7 19 -24 19 -14 0
-28 -5 -31 -10 -8 -13 -255 -12 -255 0 0 5 -16 8 -36 7 -22 -1 -39 3 -41 11
-3 8 7 12 31 12 19 0 37 4 41 10 8 13 385 12 402 -1z m3073 -14 c19 -5 38 -13
42 -19 5 -7 8 -7 8 2 0 9 14 12 44 11 25 -2 43 -6 40 -11 -3 -4 2 -8 10 -8 8
0 17 4 21 9 8 14 950 14 1153 -1 95 -6 168 -14 163 -18 -6 -3 24 -4 66 -3 67
3 74 2 63 -12 -7 -9 -29 -15 -54 -15 -23 0 -47 -5 -54 -12 -9 -9 -12 -9 -12 0
0 7 -13 12 -28 12 -15 0 -33 5 -39 11 -7 7 -17 8 -29 2 -11 -5 -86 -8 -169 -6
-82 1 -204 2 -270 1 -146 -2 -159 -1 -315 11 -98 7 -131 7 -156 -4 -24 -10
-35 -10 -43 -2 -8 8 -87 12 -247 13 -148 1 -239 5 -245 11 -7 7 -22 8 -46 1
-19 -5 -49 -6 -66 -2 -18 4 -45 8 -62 9 -94 4 -108 5 -103 10 8 8 193 22 248
20 25 -2 61 -6 80 -10z m-5372 -45 c5 -14 32 -13 32 1 0 8 25 9 83 5 45 -3 91
-6 102 -6 11 -1 22 -5 25 -10 3 -5 44 -10 90 -11 67 -1 86 2 95 15 15 20 61
20 95 1 14 -8 37 -14 52 -15 15 0 30 -5 33 -10 4 -6 11 -8 16 -4 5 3 7 8 5 12
-2 4 9 7 26 8 19 1 25 -2 16 -7 -7 -5 -13 -14 -13 -21 0 -7 -14 -14 -32 -16
-21 -2 -37 -11 -44 -24 -11 -20 -11 -20 -32 0 -19 17 -33 19 -107 16 -54 -3
-103 1 -135 10 -27 8 -71 17 -96 20 -59 9 -171 -9 -185 -29 -14 -19 -44 -19
-44 0 0 11 -11 15 -40 15 -22 0 -40 -4 -40 -10 0 -5 -9 -10 -20 -10 -11 0 -20
5 -20 11 0 6 -10 10 -22 9 -61 -5 -98 0 -98 15 0 12 -14 15 -65 15 -53 0 -63
-3 -59 -15 4 -11 0 -15 -16 -15 -15 0 -20 5 -17 14 8 20 -31 25 -116 16 -67
-8 -247 -3 -256 6 -15 14 33 19 212 22 111 2 205 4 209 5 26 7 364 -5 366 -13z
m7182 -20 c11 0 20 -4 20 -10 0 -5 25 -10 56 -10 34 0 53 4 49 10 -9 15 21 23
42 11 10 -6 12 -11 6 -11 -24 0 -13 -20 11 -20 31 0 55 26 29 33 -11 3 -8 5
10 6 17 1 26 -3 22 -9 -3 -5 1 -10 9 -10 8 0 17 4 21 9 10 17 232 2 294 -19
60 -20 57 -24 -29 -36 -88 -11 -134 -12 -330 -3 -102 5 -246 11 -320 15 -74 3
-142 10 -150 15 -11 6 -5 8 19 9 18 0 51 5 72 12 30 8 45 8 64 0 22 -10 29 -9
48 11 17 17 24 19 30 10 4 -7 17 -13 27 -13z m2330 20 c0 -16 43 -22 73 -11
18 7 26 7 22 1 -3 -6 1 -10 9 -10 8 0 17 4 20 9 3 4 28 6 56 3 33 -3 50 -1 50
7 0 6 9 11 20 11 13 0 20 -7 20 -20 0 -40 17 -45 127 -42 58 2 126 -1 151 -6
26 -5 75 -6 109 -3 35 4 64 4 65 0 2 -4 118 -10 258 -14 342 -8 445 -14 510
-26 30 -6 87 -9 127 -7 39 2 66 0 60 -4 -14 -9 15 -12 85 -8 64 3 108 -8 108
-27 0 -12 -8 -14 -42 -9 -24 3 -101 7 -171 8 -110 1 -131 4 -150 20 -15 14
-29 17 -47 13 -14 -4 -36 -8 -50 -9 -14 -2 -33 -6 -43 -10 -10 -5 -23 -3 -32
4 -8 6 -20 8 -27 4 -15 -9 -106 -9 -130 1 -9 3 -41 4 -72 2 -31 -3 -58 -2 -61
3 -2 4 -24 6 -47 5 -53 -4 -150 -5 -343 -5 -82 -1 -157 -1 -165 -2 -37 -3 -80
3 -80 11 0 5 19 12 43 16 l42 7 -39 15 c-29 12 -43 14 -56 5 -19 -12 -82 -7
-116 9 -29 15 -220 6 -216 -9 3 -17 -25 -15 -31 2 -7 18 -47 9 -47 -9 0 -15
-41 -8 -52 8 -3 6 -39 13 -80 16 l-73 6 39 14 c23 8 56 11 85 7 48 -6 78 4 67
23 -4 6 0 11 8 11 9 0 16 -4 16 -10z m-1410 -35 c39 -12 42 -15 23 -21 -35
-10 -27 -24 12 -24 34 0 47 13 23 23 -7 3 7 6 32 6 42 0 44 -1 26 -14 -18 -14
-17 -15 25 -15 35 0 46 -4 46 -15 0 -13 -12 -15 -76 -11 -105 7 -162 17 -155
27 3 5 -2 9 -10 9 -9 0 -16 5 -16 10 0 6 -16 10 -35 10 -29 0 -35 -4 -33 -17
3 -16 -4 -18 -47 -14 -29 2 -53 9 -58 17 -4 8 -16 14 -25 15 -9 0 -4 5 13 10
16 4 39 6 51 3 13 -3 31 -1 41 5 26 15 110 13 163 -4z m-3550 -20 c0 -8 5 -15
10 -15 6 0 10 -7 10 -15 0 -18 -14 -19 -41 -5 -15 9 -21 7 -26 -6 -8 -22 22
-44 62 -44 17 0 36 -5 41 -10 17 -17 43 -1 36 22 -3 15 -1 19 9 16 8 -3 13
-13 12 -22 -1 -14 4 -16 20 -11 51 16 65 16 79 2 8 -9 28 -17 44 -19 16 -2
-53 -5 -154 -6 -105 -1 -192 -7 -203 -13 -21 -11 -63 -3 -54 10 2 5 27 11 55
15 31 4 50 12 50 20 0 22 -38 49 -76 52 -52 5 -54 12 -6 20 23 4 39 10 36 15
-3 5 18 9 45 9 39 0 51 -4 51 -15z m79 -2 c19 -13 30 -14 55 -5 42 14 306 17
307 3 1 -6 3 -15 4 -21 1 -5 3 -14 4 -20 1 -12 38 -13 45 -1 8 12 61 8 59 -5
-3 -15 69 -2 75 14 3 9 -14 12 -64 12 -37 0 -64 4 -58 8 5 4 182 5 394 1 212
-4 484 -7 604 -8 168 -1 217 -4 208 -13 -17 -17 15 -37 61 -38 34 0 38 2 32
20 -7 22 5 25 40 11 11 -5 27 -5 35 -1 8 5 32 2 54 -5 21 -7 61 -17 90 -21 35
-5 45 -9 32 -13 -17 -7 -17 -8 -2 -23 9 -9 16 -21 16 -27 0 -6 4 -11 10 -11 5
0 7 -7 4 -15 -6 -15 -63 -22 -65 -7 -2 21 -8 44 -13 49 -3 3 -71 5 -151 4
-118 -1 -145 1 -145 13 0 17 -40 30 -96 31 -24 1 -48 8 -58 18 -12 12 -30 15
-67 13 -50 -4 -82 -16 -41 -16 12 0 22 -3 22 -7 0 -5 12 -16 25 -26 20 -14 29
-15 45 -7 15 8 37 8 82 -1 70 -14 58 -27 -24 -28 -27 -1 -48 -5 -48 -11 0 -5
16 -10 35 -10 24 0 35 -5 35 -15 0 -13 -24 -15 -147 -16 -234 -2 -358 2 -361
12 -5 13 -30 11 -35 -3 -2 -7 -7 -10 -11 -7 -4 4 0 13 8 22 21 21 -2 54 -30
42 -10 -4 -24 -7 -30 -6 -7 1 -14 -5 -18 -14 -3 -8 -12 -15 -21 -15 -8 0 -15
-4 -15 -10 0 -13 23 -13 37 1 7 7 12 6 16 -5 5 -13 -2 -16 -38 -16 -43 0 -45
1 -45 30 0 28 -3 30 -37 30 -21 0 -49 3 -62 7 -21 5 -23 3 -19 -15 5 -17 2
-22 -13 -22 -10 0 -19 -4 -19 -9 0 -5 -9 -7 -21 -4 -12 4 -25 0 -30 -8 -7 -11
-9 -11 -9 3 0 12 11 19 35 24 35 6 53 20 41 32 -4 3 -66 7 -139 8 -110 2 -133
6 -144 20 -8 11 -18 14 -30 9 -12 -5 -14 -9 -5 -12 16 -6 15 -20 -2 -26 -8 -3
-25 3 -38 13 -25 19 -58 22 -70 5 -4 -5 -8 0 -8 13 0 13 6 22 15 22 8 0 15 6
15 13 0 10 -17 14 -60 14 -45 1 -60 -3 -60 -13 0 -8 7 -14 15 -14 10 0 15 -10
15 -27 0 -16 -3 -23 -8 -16 -4 6 -19 13 -34 15 -27 3 -28 4 -13 32 l15 29 -42
-8 c-24 -4 -51 -7 -60 -6 -10 1 -37 3 -60 4 -43 2 -58 11 -58 35 0 16 11 15
39 -5z m9771 -45 c0 -5 5 -6 10 -3 6 3 10 2 10 -3 0 -5 12 -15 28 -23 15 -8
30 -18 33 -22 6 -8 25 -9 64 -5 11 1 64 1 119 0 86 -2 97 -4 86 -17 -15 -18
-67 -20 -73 -2 -2 6 -8 9 -12 5 -4 -4 -2 -14 5 -23 7 -9 10 -19 6 -22 -4 -4
-10 -3 -14 3 -9 12 -250 13 -275 0 -13 -6 -16 -5 -11 8 3 9 17 16 31 16 19 0
24 4 19 16 -3 9 -6 20 -6 25 0 5 -3 8 -7 8 -22 -4 -32 3 -27 16 4 8 1 22 -6
30 -11 13 -10 14 4 9 9 -3 16 -10 16 -16z m-7068 -51 c6 -9 8 -8 8 1 0 11 13
12 58 8 31 -3 74 -7 94 -9 73 -7 50 -17 -35 -17 -51 0 -87 -4 -87 -10 0 -9 6
-11 43 -14 12 -1 37 -21 37 -30 0 -8 -102 0 -124 9 -10 5 -26 4 -35 -1 -18
-12 -497 -10 -523 1 -11 4 -18 3 -18 -4 0 -8 -9 -7 -28 3 -16 8 -38 13 -49 10
-28 -8 -39 24 -16 42 10 7 27 14 38 14 11 0 25 4 32 8 20 13 597 2 605 -11z
m-5424 1 c13 -13 198 -19 223 -7 11 6 21 3 29 -6 7 -8 25 -15 41 -15 16 0 29
-4 29 -9 0 -5 8 -12 18 -14 9 -3 -2 -5 -25 -6 -23 0 -54 4 -70 10 -38 15 -295
17 -308 3 -7 -8 -34 -9 -95 -2 -47 5 -115 11 -152 12 -37 1 -71 5 -74 9 -8 7
55 23 71 18 6 -2 55 -2 110 0 55 1 117 2 138 2 20 -1 37 3 37 8 0 13 14 11 28
-3z m-3050 -179 c33 -8 55 -8 67 -2 12 7 29 7 50 0 18 -5 42 -6 52 -2 28 12
76 13 97 1 14 -8 20 -8 23 1 3 9 10 10 21 4 10 -5 37 -6 62 -1 25 5 81 4 124
-1 43 -4 83 -6 87 -3 13 8 135 8 148 0 9 -6 9 -11 0 -22 -9 -12 -6 -14 19 -14
23 0 30 4 26 14 -7 18 9 28 31 20 13 -5 14 -9 4 -15 -9 -5 -5 -10 13 -14 36
-9 83 -2 83 13 0 6 3 12 8 12 4 0 27 0 52 0 33 0 45 -4 45 -15 0 -7 8 -19 18
-25 13 -9 5 -10 -37 -5 -44 5 -55 3 -66 -12 -11 -14 -16 -16 -26 -5 -7 6 -24
12 -37 12 -13 0 -32 5 -43 10 -13 7 -19 7 -19 0 0 -17 -67 -11 -85 7 -16 16
-18 16 -27 0 -12 -22 -66 -22 -98 0 -17 12 -25 13 -28 5 -5 -15 -44 -15 -94 0
-29 8 -41 9 -50 0 -8 -8 -15 -9 -25 -1 -7 6 -21 8 -30 4 -15 -5 -12 -9 17 -23
l35 -16 -27 -3 c-17 -3 -34 3 -46 15 -16 16 -35 20 -89 21 -37 1 -84 4 -103 7
-19 4 -57 5 -85 4 -154 -8 -345 -4 -345 6 0 7 25 11 68 12 37 0 83 5 102 10
48 14 52 14 108 1z m1372 1 c49 -3 287 -3 405 0 66 1 127 2 135 2 8 -1 101 -4
205 -7 105 -4 204 -5 220 -4 17 1 82 1 145 0 181 -3 603 -9 623 -10 10 -1 15
-5 12 -11 -3 -5 3 -10 14 -10 12 0 21 5 21 10 0 14 103 13 118 -2 8 -8 15 -8
27 2 13 11 20 11 37 1 14 -8 23 -9 32 -2 14 12 135 9 154 -3 12 -7 76 -3 177
10 42 5 85 -5 85 -21 0 -14 25 -27 34 -18 3 3 3 17 0 29 -5 18 -2 24 9 24 9 0
19 -5 23 -11 3 -6 17 -8 30 -5 19 5 24 2 24 -13 0 -11 -9 -21 -21 -24 -12 -3
-18 -10 -15 -15 8 -14 -38 -32 -55 -21 -8 5 -26 9 -41 9 -30 0 -35 9 -15 29
10 10 6 12 -18 9 -21 -2 -29 -8 -27 -20 2 -14 -8 -16 -78 -15 -81 0 -89 4 -68
25 9 9 6 12 -16 12 -25 0 -27 -3 -22 -25 6 -24 -7 -35 -18 -16 -4 5 -14 8 -24
7 -9 -2 -22 4 -29 13 -9 13 -14 14 -24 4 -16 -16 -66 -17 -71 -2 -2 7 -18 7
-51 0 -35 -8 -52 -8 -66 1 -15 9 -25 9 -45 0 -18 -8 -26 -8 -26 -1 0 6 -9 9
-20 6 -11 -3 -23 -1 -26 4 -8 13 -21 11 -39 -7 -11 -12 -19 -13 -29 -5 -20 16
-103 26 -119 13 -7 -6 -34 -9 -62 -6 -28 3 -110 7 -183 9 -72 2 -149 9 -170
14 -47 14 -99 14 -107 1 -4 -6 -11 -8 -16 -5 -5 4 -9 3 -9 -2 0 -13 -61 -37
-69 -27 -10 14 -32 16 -47 3 -10 -8 -22 -8 -48 1 -19 6 -56 11 -83 10 -26 0
-68 4 -93 10 -25 6 -81 10 -125 9 -44 -1 -84 -1 -90 0 -66 7 -197 4 -223 -5
-32 -10 -84 -6 -124 11 -13 5 -18 2 -18 -9 0 -9 -7 -16 -15 -16 -8 0 -12 6 -9
14 8 20 -290 16 -323 -4 -18 -12 -25 -11 -47 3 -23 16 -33 37 -22 48 4 3 238
2 316 -1z m3000 -29 c0 -39 1 -40 43 -49 31 -7 48 -6 65 5 14 8 32 11 45 7 12
-4 42 -8 67 -9 25 -1 66 -2 93 -3 34 -2 47 -6 47 -17 0 -8 -7 -15 -15 -15 -8
0 -15 5 -15 10 0 14 -27 13 -32 -1 -2 -7 -24 -13 -49 -13 -48 -2 -73 -12 -64
-27 4 -5 -1 -9 -9 -9 -9 0 -16 -6 -17 -12 0 -10 -2 -10 -6 0 -2 6 -19 12 -36
12 -23 0 -28 3 -18 9 8 5 20 7 27 4 7 -3 23 2 36 11 12 9 18 16 13 17 -55 3
-173 3 -173 -1 1 -3 -2 -17 -6 -32 -9 -31 -23 -36 -32 -13 -8 20 -51 19 -63
-2 -7 -13 -12 -14 -23 -6 -7 7 -19 8 -27 4 -7 -4 -67 -6 -134 -3 -67 3 -144 5
-170 4 -27 -1 -60 4 -75 12 -25 13 -26 15 -8 22 11 4 66 2 123 -4 57 -6 111
-9 120 -6 10 3 25 8 33 11 8 4 23 5 33 4 9 -1 35 8 57 20 22 12 43 20 47 16 3
-4 -1 -7 -10 -7 -9 0 -17 -7 -17 -16 0 -14 7 -15 41 -10 26 4 46 2 56 -5 11
-10 18 -9 31 4 15 16 15 18 -1 34 -10 10 -17 12 -17 5 0 -6 -7 -9 -15 -6 -22
9 -18 24 5 24 21 0 27 15 10 25 -12 8 10 45 27 45 8 0 13 -14 13 -39z m-1527
-97 c-4 -11 -33 -14 -127 -15 -161 -2 -215 -6 -247 -19 -21 -9 -37 -8 -70 3
-30 10 -50 12 -62 6 -9 -6 -22 -7 -27 -4 -6 3 -15 3 -21 -1 -19 -11 -289 -13
-295 -2 -4 6 -10 5 -14 -2 -5 -8 -15 -10 -26 -5 -32 13 -67 15 -81 3 -10 -8
-20 -8 -38 0 -14 7 -27 7 -30 2 -7 -11 -164 -10 -171 2 -7 11 -54 10 -54 -2 0
-16 -36 -12 -51 6 -18 22 4 34 47 24 29 -7 158 -5 284 2 65 4 120 -3 135 -18
15 -15 15 -14 9 10 -5 20 -2 26 10 26 9 0 16 -7 16 -15 0 -18 21 -20 38 -3 9
9 17 9 36 -2 15 -7 32 -9 43 -5 10 5 90 10 178 11 88 2 178 5 200 7 22 3 51 0
64 -5 17 -6 27 -5 32 3 5 9 27 10 76 6 37 -4 74 -3 81 1 20 13 71 2 65 -14z
m-4680 2 c25 -20 477 -23 477 -4 0 9 2 10 8 1 5 -8 91 -11 305 -12 163 0 301
-2 305 -4 4 -3 49 -1 101 4 63 6 99 5 107 -2 9 -7 15 -5 22 7 8 14 13 16 24 6
11 -8 124 -12 414 -13 224 -1 407 -6 418 -11 12 -7 22 -6 29 1 6 6 44 11 85
11 60 0 78 -4 88 -17 18 -24 17 -43 -2 -43 -8 0 -13 4 -9 9 9 16 -83 25 -100
11 -10 -8 -27 -10 -48 -5 -17 4 -218 9 -445 11 -335 3 -417 2 -435 -9 -23 -14
-65 -15 -193 -3 -42 4 -82 3 -98 -4 -19 -7 -25 -7 -21 1 5 7 -5 8 -32 2 -21
-4 -58 -7 -83 -7 -285 8 -860 10 -860 3 0 -12 -28 -11 -32 1 -2 6 -96 10 -240
11 -214 2 -265 7 -225 21 6 3 50 4 97 2 47 -1 112 2 145 8 33 5 80 9 105 9 31
-1 41 2 31 8 -11 7 -9 10 10 14 13 2 26 5 29 5 3 1 13 -5 23 -12z m5305 -2
c12 -4 29 -1 37 6 8 6 19 9 25 5 6 -3 61 -7 123 -9 62 -1 118 -5 125 -10 6 -4
17 -4 22 -1 6 3 10 1 10 -5 0 -9 -33 -10 -122 -6 -93 5 -123 3 -130 -6 -6 -11
-10 -11 -16 0 -6 9 -46 12 -158 11 -82 -1 -233 -1 -336 0 -167 1 -188 3 -188
17 0 15 25 16 293 10 160 -3 302 -9 315 -12z m8737 -224 c7 0 15 6 18 13 5 15
37 -9 37 -29 0 -13 37 -44 52 -44 15 0 8 29 -12 48 -19 18 -19 18 27 31 45 11
48 11 64 -11 26 -34 29 -63 7 -77 -13 -8 -18 -8 -18 0 0 12 -59 3 -74 -12 -15
-14 -26 -11 -26 6 0 8 -3 14 -7 14 -27 -4 -45 3 -40 16 4 8 2 17 -3 20 -6 4
-10 -3 -10 -14 0 -12 -4 -21 -9 -21 -5 0 -16 -3 -25 -6 -11 -4 -16 -1 -16 10
0 21 -3 21 -68 -10 -50 -24 -57 -25 -67 -10 -7 9 -24 16 -39 16 -20 0 -26 5
-26 21 0 16 5 20 20 16 13 -3 20 0 20 9 0 8 5 14 10 14 6 0 10 -7 10 -15 0
-11 9 -13 37 -9 21 2 42 9 47 14 6 6 18 10 28 10 10 0 18 7 18 16 0 14 1 14
16 0 8 -9 21 -16 29 -16z m1125 -12 c39 -21 43 -22 55 -5 15 21 34 22 41 2 4
-8 12 -15 19 -15 8 0 15 -8 17 -17 3 -14 9 -11 36 15 31 30 61 44 47 22 -3 -5
-1 -19 5 -30 8 -15 21 -20 50 -20 36 0 40 3 40 25 0 14 5 25 11 25 5 0 8 -4 5
-9 -3 -5 1 -12 10 -15 21 -8 56 3 49 15 -4 5 -1 9 4 9 14 0 14 -13 0 -27 -9
-9 -7 -16 7 -30 17 -17 17 -18 -11 -21 -16 -2 -31 1 -33 7 -2 6 -8 11 -13 11
-6 0 -5 -9 2 -21 11 -21 10 -22 -19 -16 -17 4 -34 2 -37 -3 -9 -15 -35 -12
-35 4 0 7 -7 19 -15 26 -12 10 -15 10 -15 -2 0 -11 -12 -13 -57 -8 -32 3 -64
9 -70 13 -8 5 -13 4 -13 -2 0 -12 -45 -13 -75 -2 -14 6 -24 2 -37 -13 -9 -12
-17 -16 -18 -11 0 16 -57 16 -70 0 -10 -12 -15 -12 -36 2 -21 13 -24 13 -24 0
0 -8 -6 -20 -14 -26 -12 -10 -19 -8 -37 10 -15 15 -24 18 -27 11 -6 -18 -32
-15 -32 4 0 14 -1 14 -16 0 -20 -21 -34 -20 -50 2 -10 14 -15 15 -25 5 -18
-18 -40 -16 -33 1 3 8 2 22 -3 31 -8 14 -13 11 -34 -20 -19 -27 -29 -34 -46
-30 -12 3 -24 1 -28 -5 -3 -5 -12 -7 -20 -3 -19 7 -19 52 0 77 8 11 15 15 15
9 0 -18 61 -25 80 -8 9 8 22 15 28 15 7 0 12 7 12 15 0 22 19 18 40 -7 l17
-22 7 22 c9 27 26 29 26 2 0 -11 7 -20 15 -20 8 0 15 3 15 8 0 4 12 13 27 19
20 10 30 10 40 1 15 -12 84 -14 121 -3 19 6 21 4 15 -11 -5 -14 -3 -16 11 -11
10 4 20 7 22 7 2 0 4 9 4 20 0 25 -1 25 50 -2z m773 12 c10 0 17 -8 17 -20 0
-11 4 -20 9 -20 5 0 13 9 16 20 7 23 35 27 35 6 0 -7 7 -19 15 -26 12 -10 18
-10 30 0 12 10 15 10 15 -4 0 -9 7 -16 15 -16 8 0 15 -9 15 -20 0 -11 7 -20
15 -20 8 0 15 9 15 20 0 24 22 26 41 4 10 -12 23 -14 55 -9 36 5 43 3 46 -12
2 -10 10 -18 18 -19 8 -1 36 -2 63 -2 38 -2 47 -5 47 -20 0 -16 -6 -18 -47
-12 -27 3 -58 11 -69 18 -12 6 -31 9 -43 7 -14 -2 -21 1 -21 11 0 17 -48 16
-67 -2 -12 -12 -76 -6 -68 6 3 4 -6 11 -20 14 -14 4 -25 13 -25 21 0 8 -4 15
-10 15 -5 0 -10 -7 -10 -16 0 -14 -2 -14 -16 0 -14 15 -18 14 -46 -9 -29 -24
-31 -25 -45 -8 -10 13 -16 15 -19 6 -6 -14 -34 -18 -34 -5 0 5 -7 17 -15 28
-11 13 -14 14 -13 4 2 -9 -3 -14 -14 -12 -10 2 -18 -2 -18 -8 0 -14 -26 -13
-51 3 -17 10 -23 10 -26 0 -7 -19 -33 -16 -34 5 -1 16 -2 16 -6 0 -5 -22 -43
-24 -43 -3 0 8 6 15 13 15 8 0 7 3 -3 10 -9 5 -19 5 -24 0 -12 -12 -36 -1 -36
17 0 12 8 14 36 9 21 -5 41 -3 49 4 10 8 19 8 35 0 18 -9 25 -8 41 6 18 16 19
16 19 -4 0 -13 6 -22 15 -22 8 0 15 7 15 15 0 15 10 19 42 16 9 -1 19 3 23 9
4 7 17 9 29 6 11 -3 29 -6 39 -6z m-10581 -11 c2 -7 12 -7 32 2 24 11 29 11
37 -4 8 -13 24 -17 79 -17 40 0 70 4 70 10 0 6 7 10 15 10 8 0 15 -5 15 -11 0
-10 35 -9 130 4 30 5 80 -13 80 -29 0 -8 -11 -8 -42 0 -32 9 -42 8 -45 -1 -5
-15 -109 -18 -118 -4 -3 6 -18 6 -37 1 -17 -5 -35 -7 -40 -3 -16 9 -97 12
-103 3 -3 -5 -18 -2 -33 6 -24 12 -28 12 -38 -1 -14 -19 -21 -19 -48 3 -17 13
-20 20 -12 29 14 15 53 17 58 2z m8960 -6 c10 -9 18 -22 18 -30 0 -11 9 -12
38 -7 20 4 43 11 49 16 17 14 63 1 63 -17 0 -8 7 -15 15 -15 8 0 15 8 15 18 0
12 8 18 25 20 14 1 25 -3 25 -9 0 -5 4 -8 9 -5 5 4 11 1 13 -6 6 -17 -28 -52
-42 -43 -6 4 -17 2 -25 -5 -10 -8 -16 -8 -26 3 -12 12 -18 12 -46 1 -20 -9
-34 -10 -38 -4 -3 6 -31 10 -61 10 -45 0 -54 3 -54 18 0 9 -7 26 -15 36 -26
34 3 50 37 19z m-7074 -17 c39 -1 74 -5 77 -8 6 -5 323 0 333 6 4 2 16 -2 27
-10 16 -12 -7 -14 -186 -14 -135 0 -209 -4 -216 -11 -8 -8 -17 -8 -33 1 -12 7
-35 9 -51 6 -19 -4 -29 -1 -29 7 0 13 -54 15 -84 2 -12 -5 -21 -3 -28 6 -7 11
-11 11 -15 2 -6 -17 -28 -16 -43 2 -10 12 -2 15 52 18 35 1 77 1 93 0 17 -2
63 -5 103 -7z"/>
<path d="M21807 12087 c3 -18 10 -40 15 -50 5 -9 6 -22 3 -27 -3 -6 0 -10 8
-10 19 0 36 -21 40 -50 2 -13 19 -36 38 -52 32 -27 65 -40 41 -16 -7 7 -12 16
-12 20 0 13 44 8 64 -7 26 -20 53 -19 81 3 32 25 19 40 -33 39 -44 -2 -53 6
-26 21 14 8 14 10 1 15 -9 3 -21 -1 -27 -9 -22 -26 -66 -17 -104 22 -20 20
-33 41 -30 45 3 5 -2 12 -10 15 -9 3 -16 14 -16 23 0 9 -9 24 -20 33 -19 17
-19 16 -13 -15z"/>
</g>
</svg>
